<svg width="150" height="121" viewBox="0 0 150 121" fill="none" xmlns="http://www.w3.org/2000/svg">
<path d="M77.4337 7.25858C89.3164 7.25858 100.907 11.2629 110.254 18.5744C110.331 18.5286 110.405 18.4828 110.483 18.437C111.976 17.5319 113.522 16.6937 115.195 16.1724C116.083 15.8942 117.016 15.6829 117.949 15.5808C113.66 11.7032 108.814 8.43841 103.552 5.92379C95.3529 2.00394 86.3757 0 77.3843 0C72.9327 0 68.4811 0.48954 64.121 1.48271L65.734 8.57224C69.6151 7.68825 73.542 7.25858 77.4337 7.25858Z" fill="#008780"/>
<path d="M129.208 81.2001C128.888 81.2318 128.567 81.2424 128.247 81.2424C127.951 81.2424 127.655 81.2318 127.363 81.2248C127.071 81.2142 126.775 81.2072 126.482 81.2072C126.447 81.2072 126.408 81.2072 126.373 81.2072C121.474 92.7483 112.494 102.606 100.28 108.414C96.6627 110.132 92.9471 111.407 89.1999 112.259C85.3152 113.143 81.3919 113.573 77.5002 113.573C64.7053 113.573 52.2484 108.931 42.5703 100.518C42.447 100.56 42.3202 100.602 42.197 100.644C41.6722 100.982 41.1369 101.299 40.584 101.592C38.6857 102.595 36.8789 102.909 34.9102 103.289C39.6894 108.037 45.254 111.985 51.3855 114.915C59.5809 118.831 68.5617 120.835 77.5495 120.835C82.0012 120.835 86.4528 120.346 90.8164 119.353C95.1377 118.37 99.371 116.901 103.404 114.982C118.696 107.713 129.532 94.8121 134.614 79.9287C134.308 80.0097 134.005 80.1048 133.702 80.1999C132.237 80.6507 130.74 81.0487 129.208 81.2001Z" fill="#008780"/>
<path d="M26.8594 41.7942C27.1447 41.766 27.437 41.7272 27.7328 41.6885C32.4099 29.2669 41.7147 18.5674 54.6505 12.4217C58.2674 10.7031 61.983 9.42815 65.7303 8.57586C65.7303 8.57586 65.7303 8.57586 65.7338 8.57586L64.1208 1.48633C59.7995 2.46893 55.5627 3.93755 51.5301 5.85697C36.9531 12.781 25.9508 24.9702 20.5447 40.1741C20.1256 41.3504 19.7452 42.5302 19.4036 43.7171C19.9882 43.6396 20.4179 43.5762 20.5482 43.5445C22.6684 43.0374 24.6688 42.0125 26.8594 41.7942Z" fill="#008780"/>
<path d="M110.447 28.3691C110.74 31.2641 112.863 33.5745 115.688 34.4409C117.562 35.0184 116.554 38.329 115.139 39.942C114.543 40.6217 115.434 41.3719 116.368 41.0972C123.056 39.1038 126.803 32.8208 126.211 26.8019C125.81 22.8363 121.96 19.9695 117.611 20.4027C113.261 20.8288 110.053 24.4 110.447 28.3691Z" fill="#008780"/>
<path d="M149.512 60.5408C148.297 55.339 144.307 52.8103 136.051 50.3943C131.445 49.0419 127.768 48.5277 127.113 45.7454C126.666 43.8154 128.465 42.4807 130.776 41.8995C132.47 41.4769 134.773 41.6284 136.196 42.3997C137.573 43.1463 139.161 43.9669 140.693 42.6603C141.535 41.9418 141.669 40.5577 141.433 39.3497C141.292 38.6277 140.926 37.5289 140.545 36.8914C140.13 36.2012 139.496 35.3982 138.809 34.9157C138.126 34.4332 137.302 34.5001 136.499 34.8628C135.629 35.2538 135.34 35.8314 134.822 36.3068C134.4 36.6942 130.976 37.2049 129.634 37.543C122.524 39.3321 117.498 44.3472 118.745 49.6829C119.865 54.4726 123.918 56.4132 130.202 58.2093C135.903 59.847 139.637 60.819 140.626 65.0347C141.295 67.8734 139.446 69.8033 136.231 69.8245C134.611 69.835 134.297 68.856 133.266 67.7395C132.529 66.9436 131.955 65.8588 130.835 65.6334C130.395 65.5454 129.923 65.6088 129.494 65.7673C128.426 66.1617 127.669 67.0985 127.285 68.0952C126.902 69.0884 126.497 73.2935 126.518 74.2691C126.581 77.4881 129.244 76.59 130.082 76.2906C131.093 75.9314 132.198 74.3149 133.251 74.4769C133.899 74.5755 138.298 75.22 141.038 74.2726C148.748 71.6065 151.15 67.5388 149.512 60.5408Z" fill="#008780"/>
<path d="M39.6333 94.333L39.672 94.3224L39.6016 94.0794L39.5875 93.9597L39.5558 93.8223C39.4924 93.5441 39.3762 93.2905 39.2388 93.0546C38.6718 91.9029 37.823 91.6705 36.6467 91.2936C35.326 90.871 34.273 86.9617 34.0159 85.9298L27.0567 55.4515C33.1143 53.3278 35.724 52.6833 38.9571 53.5849C42.5001 54.5746 42.2747 51.1548 41.8556 50.1194C39.4713 44.2555 29.0747 44.7063 18.2555 49.2354C17.4913 49.5559 16.7235 49.8694 15.9557 50.1828C13.3108 51.2605 10.9511 51.7782 9.75723 52.0494C6.31636 52.8312 4.52373 52.6305 2.56204 50.9541C1.53366 50.0771 0.0298179 51.2887 0.00164294 52.5918C-0.0934476 57.3181 3.96375 59.8186 5.79512 60.3223C10.1517 61.5197 11.9514 61.1781 16.9101 59.0438L23.5383 88.0605C23.57 88.2014 24.6759 93.1954 23.5277 94.2766C22.7318 95.0268 22.1225 95.5727 21.9816 96.5764C21.8901 96.9779 21.876 97.397 21.9711 97.8196L22.0028 97.957L22.0838 98.193L22.1049 98.3162L22.126 98.3127C22.6473 99.7038 24.2286 100.517 25.8592 100.148L37.0658 97.6048C38.6859 97.2315 39.7601 95.8157 39.6333 94.333Z" fill="#008780"/>
<path d="M124.739 74.9457L124.736 74.914L124.588 74.2695C124.5 73.875 124.313 73.5264 124.067 73.227C123.577 72.4945 122.94 72.2585 122.105 71.9134C121.267 71.5647 120.481 69.3001 120.031 67.7399C119.946 67.3913 119.862 67.0461 119.777 66.6763L115.755 49.1973C113.575 39.7058 101.84 40.6004 97.7936 49.6093C94.0886 44.161 85.5515 45.5028 81.762 52.3951L81.5824 52.2261C76.6976 47.2286 67.6851 47.6582 58.2359 53.8321C51.0865 51.881 39.6439 54.7337 40.8308 59.9777C41.0597 60.9744 41.5951 61.7034 42.3593 62.2036C36.1186 65.4824 34.1181 71.6492 35.4353 77.4497C37.9041 88.3464 48.3888 95.1683 58.8522 92.7945C69.3192 90.4208 75.9897 80.5102 73.5208 69.6101C72.0205 63.0347 68.0267 58.6993 63.3638 56.1988C65.7445 54.9098 72.4924 53.7933 74.4717 61.1576L74.4929 61.1364C74.5387 61.3125 74.5844 61.4851 74.6161 61.6365L78.1415 76.9778C78.4198 78.5697 78.7543 81.1794 78.1134 81.8943C77.5252 82.5494 77.0568 83.0284 76.9159 83.8631C76.8067 84.261 76.7786 84.6766 76.8737 85.0992L77.0181 85.7437C77.3526 87.2124 78.9269 88.1069 80.5364 87.7406L89.3728 85.7367C90.9435 85.381 91.9543 83.9582 91.6972 82.5283L91.7078 82.5248L91.6866 82.4473L91.6831 82.4156L91.5387 81.7711C91.4507 81.3766 91.264 81.028 91.0175 80.7286C90.528 79.9961 89.887 79.7566 89.0558 79.4149C87.7562 78.8761 86.587 73.7482 86.587 73.7482L83.3081 59.4917C82.6319 55.2655 89.7989 52.0359 91.0914 57.6568L94.7331 73.3679C95.0042 74.9668 95.3001 77.4427 94.6802 78.1365C94.0921 78.7916 93.6237 79.2705 93.4828 80.1052C93.3736 80.5032 93.3454 80.9188 93.4405 81.3414L93.5849 81.9859C93.9195 83.4545 95.4938 84.3491 97.1033 83.9828L105.94 81.9789C107.51 81.6232 108.521 80.2003 108.264 78.7704L108.275 78.7669L108.254 78.6894L108.25 78.6577L108.102 78.0132C108.014 77.6188 107.827 77.2701 107.581 76.9708C107.091 76.2382 106.45 76.0023 105.619 75.6571C104.32 75.1183 103.15 69.9904 103.15 69.9904L103.133 69.9939L99.8433 55.7022C99.1671 51.4759 106.338 48.2358 107.627 53.8638L110.951 68.2154H110.944C110.944 68.2154 112.099 73.3468 111.163 74.3928C110.574 75.0478 110.106 75.5268 109.965 76.3615C109.856 76.7559 109.828 77.175 109.923 77.5977L110.067 78.2422C110.402 79.7108 111.976 80.6053 113.586 80.2426L122.422 78.2386C123.993 77.8829 125.004 76.4601 124.746 75.0302L124.757 75.0267L124.739 74.9457ZM53.3159 57.3399C49.2622 59.9707 46.258 60.7702 45.7896 59.1114C45.1698 56.9102 51.8085 56.6425 53.3159 57.3399ZM57.8415 88.3394C53.1855 89.3959 47.8112 83.2362 45.8284 74.4949C44.7964 69.9341 44.8493 64.9612 46.1629 63.0488C49.2727 62.9748 53.2313 61.6647 56.6581 59.6889C59.3171 62.2423 61.7085 66.3488 62.9728 71.8746C64.9486 80.6124 62.4974 87.2828 57.8415 88.3394Z" fill="#008780"/>
<path d="M36.1852 40.4384L35.1921 42.3966L33.8855 41.7345L36.5938 36.4023L37.9004 37.0645L36.9072 39.0226L42.0351 41.6253L41.3166 43.0411L36.1852 40.4384Z" fill="#008780"/>
<path d="M37.5938 34.7749L38.5377 33.5L40.8339 35.201L42.5773 32.8484L40.281 31.1509L41.2249 29.876L47.0219 34.1691L46.078 35.4441L43.75 33.7219L42.0067 36.0745L44.3347 37.8002L43.3908 39.0751L37.5938 34.7749Z" fill="#008780"/>
<path d="M43.3664 27.555L47.3531 23.8535L48.3146 24.8889L45.483 27.5163L46.4797 28.5869L48.9697 26.273L49.9312 27.3085L47.4412 29.6223L48.4696 30.7317L51.3399 28.0692L52.3014 29.1046L48.2759 32.8413L43.3664 27.555Z" fill="#008780"/>
<path d="M53.9532 23.4381L53.9426 23.4205C52.9988 21.5997 53.6644 19.3633 55.6437 18.3384C57.623 17.3171 59.803 18.0567 60.7469 19.8775L60.7574 19.8951C61.7013 21.7159 61.0357 23.9523 59.0564 24.9771C57.0771 26.002 54.8935 25.2589 53.9532 23.4381ZM59.2923 20.6769L59.2818 20.6593C58.7148 19.5605 57.4328 19.0604 56.2988 19.6485C55.1647 20.2367 54.8407 21.5398 55.4077 22.6386L55.4183 22.6562C55.9853 23.755 57.2673 24.2552 58.4013 23.667C59.5354 23.0788 59.8594 21.7758 59.2923 20.6769Z" fill="#008780"/>
<path d="M61.4264 15.8597L64.5925 14.937C65.473 14.6799 66.2267 14.7292 66.8148 15.0497C67.3114 15.3208 67.6777 15.8069 67.8679 16.4584L67.8749 16.4795C68.2024 17.596 67.801 18.4764 67.0156 19.0575L69.4281 21.0368L67.646 21.5546L65.5153 19.7725L64.3178 20.1212L64.9623 22.3364L63.4373 22.7802L61.4264 15.8597ZM65.473 18.3285C66.2161 18.1137 66.526 17.5924 66.3535 17.0078L66.3464 16.9867C66.1562 16.3351 65.6033 16.1309 64.8602 16.3457L63.3458 16.7859L63.9269 18.7723L65.473 18.3285Z" fill="#008780"/>
<path d="M69.6398 13.8164L71.207 13.584L72.2601 20.7158L70.6893 20.9482L69.6398 13.8164Z" fill="#008780"/>
<path d="M73.6369 16.8665V16.8454C73.6017 14.7921 75.1725 13.0875 77.356 13.0488C78.6556 13.0277 79.4445 13.3658 80.2088 13.9891L79.2297 15.2112C78.6662 14.7569 78.1661 14.4963 77.3314 14.5104C76.1762 14.5315 75.2746 15.5669 75.2957 16.7925V16.8137C75.3169 18.1344 76.2431 19.0888 77.5216 19.0641C78.0992 19.0536 78.6134 18.9021 79.0113 18.6063L78.9937 17.5744L77.3948 17.6026L77.3701 16.2326L80.5046 16.1797L80.5574 19.3142C79.8249 19.9552 78.8141 20.487 77.4934 20.5116C75.2464 20.5539 73.6722 19.0007 73.6369 16.8665Z" fill="#008780"/>
<path d="M83.0787 13.5205L84.6495 13.7353L83.6704 20.8812L82.0996 20.6664L83.0787 13.5205Z" fill="#008780"/>
<path d="M87.6506 14.1895L89.0558 14.6015L91.0492 19.8174L92.2994 15.5559L93.8033 15.9962L91.7712 22.9202L90.4751 22.5398L88.4148 17.1549L87.1223 21.5572L85.6184 21.117L87.6506 14.1895Z" fill="#008780"/>
<path d="M98.811 18.2539L100.104 18.9407L99.4344 26.8085L97.9693 26.0302L98.1454 24.2904L95.4512 22.864L94.1128 23.984L92.683 23.2268L98.811 18.2539ZM98.2968 22.7866L98.5469 20.2719L96.6063 21.892L98.2968 22.7866Z" fill="#008780"/>
<path d="M104.668 21.7861L105.918 22.7652L102.358 27.3049L105.186 29.5237L104.295 30.6577L100.216 27.4563L104.668 21.7861Z" fill="#008780"/>
<path d="M59.9723 100.511L59.9793 100.494C60.6274 98.546 62.6912 97.4613 64.8078 98.1621C66.9209 98.863 67.9141 100.944 67.2696 102.892L67.2626 102.91C66.6145 104.857 64.5507 105.942 62.4341 105.241C60.321 104.537 59.3278 102.455 59.9723 100.511ZM65.6777 102.406L65.6848 102.388C66.0757 101.216 65.5404 99.9477 64.3253 99.5462C63.1103 99.1412 61.9516 99.8209 61.5607 100.997L61.5536 101.015C61.1627 102.188 61.7015 103.456 62.9131 103.857C64.1281 104.258 65.2903 103.579 65.6777 102.406Z" fill="#008780"/>
<path d="M69.6572 99.6514L75.1055 100.37L74.9153 101.803L71.0413 101.293L70.8405 102.818L74.2567 103.265L74.0666 104.695L70.6504 104.244L70.2841 107.016L68.7098 106.808L69.6572 99.6514Z" fill="#008780"/>
<path d="M79.0186 100.451L80.7162 100.229L82.9913 103.011L84.4775 99.7395L86.1751 99.5176L87.1048 106.674L85.5411 106.878L84.9354 102.205L83.3188 105.522L83.2766 105.529L80.8887 102.761L81.491 107.403L79.9484 107.604L79.0186 100.451Z" fill="#008780"/>
<path d="M89.4783 98.4049L90.8659 97.9365L96.1241 103.832L94.5498 104.364L93.4052 103.043L90.5137 104.022L90.408 105.766L88.8725 106.283L89.4783 98.4049ZM92.419 101.899L90.7602 99.9898L90.6017 102.515L92.419 101.899Z" fill="#008780"/>
<path d="M94.4653 96.4999L95.8882 95.792L99.1036 102.251L97.6843 102.959L94.4653 96.4999Z" fill="#008780"/>
<path d="M97.5684 94.9997L98.7693 94.1615L104.08 95.8766L101.541 92.2315L102.827 91.3369L106.951 97.2572L105.841 98.0285L100.354 96.2605L102.974 100.025L101.689 100.92L97.5684 94.9997Z" fill="#008780"/>
<path d="M104.316 89.9773L108.099 86.0645L109.113 87.0471L106.426 89.8258L107.479 90.8436L109.842 88.3995L110.856 89.3821L108.493 91.8262L109.581 92.8793L112.304 90.0653L113.318 91.0479L109.497 94.9994L104.316 89.9773Z" fill="#008780"/>
</svg>
