<svg width="253" height="353" viewBox="0 0 253 353" fill="none" xmlns="http://www.w3.org/2000/svg">
<g clip-path="url(#clip0)">
<path d="M118.711 310.625C115.591 310.625 114.616 313.284 114.616 316.007C114.616 318.666 115.591 321.324 118.711 321.324C121.897 321.324 122.807 318.601 122.807 316.007C122.807 313.348 121.897 310.625 118.711 310.625Z" fill="#EFF0F3"/>
<path d="M146.599 319.638C146.599 321.388 147.964 321.777 149.459 321.777C153.035 321.777 153.23 318.924 153.23 317.952V316.266C152.45 316.979 150.824 316.979 149.394 317.238C147.899 317.433 146.599 317.952 146.599 319.638Z" fill="#EFF0F3"/>
<path d="M212.838 260.435C213.033 260.435 213.228 260.37 213.358 260.305C213.553 260.24 213.618 260.11 213.748 259.981C213.813 259.851 213.878 259.656 213.878 259.397C213.878 259.203 213.813 259.008 213.748 258.878C213.683 258.749 213.553 258.684 213.423 258.619C213.293 258.554 213.163 258.489 212.968 258.489C212.773 258.489 212.643 258.489 212.448 258.489H211.148V260.499H212.188C212.383 260.499 212.643 260.435 212.838 260.435Z" fill="#EFF0F3"/>
<path d="M99.9248 310.625C96.8695 310.625 95.8944 313.284 95.8944 316.007C95.8944 318.731 96.9345 321.324 99.9248 321.324C102.98 321.324 103.955 318.731 103.955 316.007C103.955 313.413 102.915 310.625 99.9248 310.625Z" fill="#EFF0F3"/>
<path d="M190.414 310.625C187.293 310.625 186.318 313.284 186.318 316.007C186.318 318.666 187.293 321.324 190.414 321.324C193.599 321.324 194.509 318.601 194.509 316.007C194.509 313.348 193.534 310.625 190.414 310.625Z" fill="#EFF0F3"/>
<path d="M183.458 38.0816C182.678 37.2386 181.508 36.7847 179.883 36.7847C178.843 36.7847 177.998 36.9792 177.283 37.3034C176.567 37.6277 176.047 38.0816 175.592 38.6003C175.202 39.1191 174.877 39.7027 174.747 40.2863C174.552 40.8699 174.487 41.3887 174.422 41.8426H185.083C184.758 40.2215 184.238 38.9894 183.458 38.0816Z" fill="#EFF0F3"/>
<path d="M201.529 49.6239C201.984 50.3372 202.634 50.9208 203.349 51.3747C204.064 51.8286 204.974 52.0231 205.949 52.0231C207.054 52.0231 207.899 51.8286 208.679 51.3747C209.394 50.9208 209.98 50.3372 210.435 49.6239C210.89 48.9106 211.15 48.0676 211.345 47.1598C211.54 46.2519 211.605 45.2793 211.605 44.3066C211.605 43.3339 211.54 42.3612 211.345 41.4534C211.15 40.5456 210.825 39.7674 210.37 39.0541C209.914 38.3408 209.329 37.8221 208.614 37.3682C207.899 36.9143 206.989 36.7197 205.949 36.7197C204.844 36.7197 203.934 36.9143 203.219 37.3682C202.504 37.8221 201.854 38.3408 201.464 39.0541C201.009 39.7674 200.684 40.5456 200.489 41.4534C200.294 42.3612 200.164 43.3339 200.164 44.3066C200.164 45.2144 200.294 46.1222 200.489 47.0949C200.684 48.0676 201.009 48.9106 201.529 49.6239Z" fill="#EFF0F3"/>
<path d="M82.5684 38.0816C81.7883 37.2386 80.6182 36.7847 78.9931 36.7847C77.953 36.7847 77.1079 36.9792 76.3928 37.3034C75.6778 37.6277 75.1577 38.0816 74.7027 38.6003C74.3127 39.1191 73.9876 39.7027 73.7926 40.2863C73.5976 40.8699 73.5326 41.3887 73.4676 41.8426H84.1285C83.8685 40.2215 83.3484 38.9894 82.5684 38.0816Z" fill="#EFF0F3"/>
<path d="M67.2915 310.625C64.1713 310.625 63.1962 313.284 63.1962 316.007C63.1962 318.666 64.1713 321.324 67.2915 321.324C70.4768 321.324 71.3869 318.601 71.3869 316.007C71.3869 313.348 70.4118 310.625 67.2915 310.625Z" fill="#EFF0F3"/>
<path d="M126.641 84.3164C82.8269 84.3164 47.2689 119.722 47.2689 163.362C47.2689 207.003 82.8269 242.408 126.641 242.408C170.454 242.408 206.013 207.003 206.013 163.362C206.013 119.722 170.519 84.3164 126.641 84.3164ZM138.797 215.303H88.3524V111.357H126.186C135.416 111.357 147.507 111.357 153.813 115.118C160.704 119.203 166.099 126.595 166.099 136.841C166.099 147.929 160.249 156.229 150.628 160.12V160.444C163.499 163.038 170.519 172.7 170.519 185.475C170.519 200.778 159.599 215.303 138.797 215.303Z" fill="#EFF0F3"/>
<path d="M133.986 167.706H102.263V203.63H137.041C149.002 203.63 156.607 196.368 156.607 185.02C156.672 171.467 145.687 167.706 133.986 167.706Z" fill="#EFF0F3"/>
<path d="M210.498 265.103C211.018 265.362 211.668 265.427 212.253 265.427C212.904 265.427 213.489 265.298 214.009 265.103C214.529 264.844 215.049 264.519 215.439 264.13C215.829 263.741 216.154 263.222 216.349 262.639C216.609 262.055 216.674 261.472 216.674 260.823C216.674 260.175 216.544 259.591 216.349 259.008C216.154 258.424 215.829 257.97 215.439 257.516C215.049 257.127 214.529 256.803 214.009 256.543C213.489 256.349 212.904 256.219 212.253 256.219C211.603 256.219 211.018 256.349 210.498 256.543C209.913 256.803 209.458 257.127 209.068 257.516C208.678 257.905 208.353 258.424 208.158 259.008C207.898 259.591 207.833 260.175 207.833 260.823C207.833 261.472 207.963 262.12 208.158 262.639C208.353 263.222 208.678 263.676 209.068 264.13C209.458 264.519 209.978 264.844 210.498 265.103ZM210.173 257.646H212.644C213.424 257.646 213.944 257.775 214.334 258.1C214.724 258.424 214.919 258.878 214.919 259.461C214.919 260.045 214.724 260.434 214.464 260.694C214.139 260.953 213.749 261.083 213.229 261.147L215.049 263.936H214.009L212.253 261.212H211.213V263.936H210.173V257.646Z" fill="#EFF0F3"/>
<path d="M202.504 1.57421L52.2109 0.860917C24.6485 0.731228 2.15658 22.9082 2.02656 50.4025L0.856463 301.352C0.726452 328.847 22.9584 351.283 50.5207 351.413L200.814 352.126C228.376 352.256 250.868 330.079 250.998 302.584L252.233 51.6345C252.298 24.1403 230.066 1.7039 202.504 1.57421ZM194.248 39.5734C194.703 38.0819 195.353 36.785 196.263 35.6178C197.173 34.5154 198.213 33.5428 199.579 32.8943C200.879 32.181 202.439 31.8568 204.194 31.8568C205.624 31.8568 206.924 32.181 208.224 32.7646C209.524 33.3482 210.499 34.2561 211.28 35.4233H211.345V23.4918H217.91V56.3682H211.67V53.3205H211.605C210.825 54.6174 209.849 55.5252 208.549 56.1088C207.314 56.6924 205.884 56.9518 204.324 56.9518C202.504 56.9518 200.944 56.6276 199.644 55.9143C198.278 55.201 197.173 54.2932 196.263 53.126C195.353 51.9587 194.703 50.597 194.248 49.0407C193.793 47.4844 193.598 45.9282 193.598 44.2422C193.598 42.6211 193.793 41.0648 194.248 39.5734ZM168.701 39.5085C169.286 37.9522 170.131 36.6553 171.171 35.553C172.276 34.4506 173.511 33.5428 175.006 32.8943C176.502 32.2459 178.127 31.9216 179.947 31.9216C181.962 31.9216 183.717 32.3107 185.277 33.0889C186.772 33.867 188.008 34.9045 188.983 36.2663C189.958 37.5632 190.673 39.1194 191.063 40.8054C191.518 42.4914 191.648 44.2422 191.518 46.1227H174.421C174.486 48.2626 175.071 49.754 176.047 50.7267C177.022 51.6994 178.452 52.1533 180.272 52.1533C181.572 52.1533 182.742 51.8291 183.717 51.1806C184.692 50.5322 185.277 49.8189 185.472 49.1056H191.258C190.348 51.9587 188.918 54.0338 187.032 55.201C185.147 56.433 182.807 57.0166 180.077 57.0166C178.192 57.0166 176.502 56.6924 175.006 56.1088C173.511 55.5252 172.211 54.6822 171.171 53.5799C170.131 52.4775 169.286 51.1806 168.766 49.6243C168.181 48.068 167.921 46.3821 167.921 44.5664C167.856 42.6859 168.116 40.9999 168.701 39.5085ZM159.145 23.4918H165.711V28.8739H159.145V23.4918ZM165.711 32.5053V56.3034H159.145V32.5053H165.711ZM139.643 32.5053H143.544V30.6896C143.544 28.5497 144.194 26.8637 145.559 25.502C146.859 24.1403 148.874 23.4918 151.539 23.4918C152.124 23.4918 152.71 23.4918 153.295 23.5567C153.88 23.6215 154.465 23.6215 154.985 23.6863V28.5497C154.205 28.4849 153.425 28.42 152.58 28.42C151.669 28.42 151.019 28.6146 150.694 29.0685C150.369 29.4575 150.174 30.106 150.174 31.0787V32.5053H154.725V36.8499H150.174V56.3034H143.609V36.8499H139.708V32.5053H139.643ZM130.478 23.4918H137.043V28.8739H130.478V23.4918ZM130.478 32.5053H137.043V56.3034H130.478V32.5053ZM111.301 32.5053H115.266V25.3723H121.832V32.5053H126.642V36.8499H121.832V48.6516C121.832 49.754 122.027 50.4673 122.417 50.8564C122.807 51.2454 123.522 51.3751 124.627 51.3751C125.017 51.3751 125.342 51.3751 125.667 51.3103C125.992 51.3103 126.317 51.2454 126.642 51.1806V56.2385C126.057 56.3034 125.472 56.3682 124.822 56.433C124.172 56.433 123.457 56.4979 122.807 56.4979C121.767 56.4979 120.857 56.433 119.947 56.3034C119.037 56.1737 118.257 55.9143 117.542 55.5252C116.826 55.1361 116.306 54.5525 115.916 53.8392C115.526 53.126 115.331 52.1533 115.331 50.9212V36.9147H111.366V32.5053H111.301ZM93.7495 32.5053H99.99V36.9147H100.055C100.38 36.2014 100.77 35.4881 101.29 34.8397C101.81 34.1912 102.395 33.6725 103.11 33.2185C103.76 32.7646 104.54 32.4404 105.255 32.181C106.036 31.9216 106.816 31.792 107.661 31.792C108.116 31.792 108.571 31.8568 109.091 32.0513V38.1468C108.766 38.0819 108.441 38.0171 107.986 38.0171C107.531 37.9522 107.141 37.9522 106.751 37.9522C105.58 37.9522 104.54 38.1468 103.695 38.5358C102.85 38.9249 102.2 39.5085 101.68 40.157C101.16 40.8703 100.835 41.6484 100.575 42.5562C100.38 43.4641 100.25 44.5016 100.25 45.5391V56.2385H93.6844V32.5053H93.7495ZM67.8772 39.5085C68.4623 37.9522 69.3074 36.6553 70.3474 35.553C71.4525 34.4506 72.6876 33.5428 74.1828 32.8943C75.6779 32.2459 77.303 31.9216 79.1232 31.9216C81.1384 31.9216 82.9585 32.3107 84.4537 33.0889C85.9488 33.867 87.1839 34.9045 88.159 36.2663C89.1341 37.5632 89.8491 39.1194 90.2392 40.8054C90.6942 42.4914 90.8242 44.2422 90.6942 46.1227H73.4677C73.5327 48.2626 74.1178 49.754 75.0929 50.7267C76.0679 51.6994 77.4981 52.1533 79.3182 52.1533C80.6183 52.1533 81.7884 51.8291 82.7635 51.1806C83.7386 50.5322 84.3236 49.8189 84.5187 49.1056H90.3042C89.3941 51.9587 87.964 54.0338 86.0788 55.201C84.1936 56.433 81.8534 57.0166 79.1232 57.0166C77.238 57.0166 75.5479 56.6924 74.0528 56.1088C72.5576 55.5252 71.2575 54.6822 70.2174 53.5799C69.1773 52.4775 68.3323 51.1806 67.8122 49.6243C67.2272 48.068 66.9672 46.3821 66.9672 44.5664C66.9672 42.6859 67.2922 40.9999 67.8772 39.5085ZM36.0895 33.2185C36.8046 31.1435 37.9096 29.263 39.2748 27.7067C40.6399 26.1504 42.33 24.9184 44.3452 24.0106C46.3604 23.1027 48.6356 22.7137 51.1708 22.7137C52.9909 22.7137 54.6811 22.973 56.3062 23.4918C57.9314 24.0106 59.3615 24.7887 60.6616 25.7614C61.9617 26.7341 63.0018 27.9661 63.8469 29.4575C64.692 30.949 65.212 32.6349 65.407 34.5154H58.3864C58.2564 33.6725 57.9964 32.9592 57.5413 32.2459C57.0863 31.5326 56.5663 30.949 55.9162 30.4302C55.2662 29.9115 54.5511 29.5224 53.706 29.1982C52.9259 28.9388 52.0809 28.7442 51.1708 28.7442C49.5457 28.7442 48.1805 29.0685 47.0104 29.7169C45.8403 30.3654 44.9303 31.2084 44.2152 32.2459C43.5001 33.2834 43.0451 34.5154 42.7201 35.8772C42.395 37.1741 42.2 38.6007 42.2 40.0273C42.2 41.389 42.33 42.7508 42.6551 44.0477C42.9801 45.3446 43.5001 46.5118 44.2152 47.5493C44.9303 48.6516 45.9053 49.4946 47.0104 50.0782C48.1805 50.7267 49.5457 51.0509 51.1708 51.0509C53.381 51.0509 55.1361 50.4025 56.3712 49.0407C57.6063 47.679 58.3864 45.8633 58.6464 43.6586H65.667C65.472 45.7336 65.017 47.5493 64.2369 49.2353C63.4569 50.9212 62.4818 52.283 61.1817 53.4502C59.9465 54.6174 58.4514 55.5252 56.7613 56.1737C55.0711 56.7573 53.186 57.0815 51.1708 57.0815C48.6356 57.0815 46.3604 56.6276 44.3452 55.7846C42.33 54.8768 40.6399 53.7096 39.2748 52.1533C37.8446 50.597 36.8046 48.7813 36.0895 46.7063C35.3094 44.6961 34.9844 42.4265 34.9844 40.0273C34.9844 37.5632 35.3094 35.2936 36.0895 33.2185ZM46.3604 324.956C39.1448 324.956 34.9194 319.639 34.9194 312.96C34.9194 306.086 39.1448 300.769 46.3604 300.769C51.4958 300.769 55.7862 303.752 56.3712 309.069H51.4308C51.1058 306.735 48.8956 304.984 46.3604 304.984C41.745 304.984 40.0548 308.874 40.0548 312.96C40.0548 316.786 41.81 320.676 46.3604 320.676C49.4806 320.676 51.2358 318.536 51.6258 315.489H56.5663C56.0462 321.26 52.0809 324.956 46.3604 324.956ZM67.2922 324.826C62.0267 324.826 58.5814 321.325 58.5814 316.007C58.5814 310.625 62.0267 307.188 67.2922 307.188C72.6226 307.188 76.0029 310.69 76.0029 316.007C76.0029 321.325 72.5576 324.826 67.2922 324.826ZM89.6541 311.598C89.1991 311.468 88.549 311.468 87.964 311.468C84.5837 311.468 83.4136 313.867 83.4136 316.85V324.372H78.8632V307.578H83.2186V310.69H83.2836C84.1286 308.615 86.4038 307.124 88.679 307.124C89.0041 307.124 89.3941 307.188 89.7191 307.253V311.598H89.6541ZM101.225 324.826C99.2099 324.826 97.2598 323.918 96.1547 322.297H96.0897V330.273H91.4743V307.642H95.8946V309.782H95.9596C97.0647 308.031 98.8849 307.188 100.965 307.188C106.231 307.188 108.636 311.403 108.636 316.202C108.571 320.676 106.101 324.826 101.225 324.826ZM118.712 324.826C113.446 324.826 110.001 321.325 110.001 316.007C110.001 310.625 113.446 307.188 118.712 307.188C124.042 307.188 127.422 310.69 127.422 316.007C127.422 321.325 124.042 324.826 118.712 324.826ZM141.139 311.598C140.749 311.468 140.033 311.468 139.448 311.468C136.068 311.468 134.898 313.867 134.898 316.85V324.372H130.283V307.578H134.703V310.69H134.768C135.613 308.615 137.888 307.124 140.163 307.124C140.488 307.124 140.879 307.188 141.204 307.253V311.598H141.139ZM153.685 324.372C153.555 323.854 153.36 323.335 153.36 322.751C151.929 324.308 149.784 324.826 147.704 324.826C144.519 324.826 141.984 323.27 141.984 319.768C141.984 316.007 144.844 315.1 147.704 314.711C150.564 314.257 153.165 314.386 153.165 312.506C153.165 310.56 151.799 310.236 150.174 310.236C148.419 310.236 147.249 310.949 147.119 312.765H142.504C142.764 308.485 146.664 307.188 150.434 307.188C153.815 307.188 157.845 307.902 157.845 311.922V320.676C157.845 322.233 157.975 323.724 158.43 324.437H153.685V324.372ZM170.521 310.69H167.141V318.99C167.141 320.547 167.531 320.936 169.091 320.936C169.611 320.936 170.066 320.871 170.521 320.806V324.372C169.741 324.502 168.701 324.567 167.791 324.567C164.996 324.567 162.46 323.918 162.46 320.611V310.755H159.665V307.642H162.46V302.584H167.076V307.642H170.456V310.69H170.521ZM178.582 324.372H173.966V307.642H178.582V324.372ZM178.647 305.049H174.031V301.288H178.647V305.049ZM190.413 324.826C185.147 324.826 181.702 321.325 181.702 316.007C181.702 310.625 185.147 307.188 190.413 307.188C195.743 307.188 199.124 310.69 199.124 316.007C199.124 321.325 195.678 324.826 190.413 324.826ZM217.91 324.372H213.295V314.905C213.295 312.182 212.45 310.755 210.304 310.755C207.769 310.755 206.729 312.182 206.729 315.553V324.308H202.114V307.578H206.534V309.912H206.599C207.769 308.031 209.784 307.124 211.735 307.124C216.675 307.124 217.91 309.847 217.91 313.997V324.372ZM217.91 285.595H35.4394V273.664H217.91V285.595ZM206.794 260.824C206.794 260.046 206.924 259.333 207.249 258.684C207.574 258.036 207.964 257.452 208.419 256.998C208.939 256.48 209.524 256.156 210.174 255.896C210.825 255.637 211.54 255.507 212.255 255.507C213.035 255.507 213.685 255.637 214.4 255.896C215.05 256.156 215.635 256.545 216.09 256.998C216.61 257.517 217 258.036 217.26 258.684C217.585 259.333 217.715 260.046 217.715 260.824C217.715 261.602 217.585 262.316 217.26 262.964C217 263.613 216.545 264.196 216.09 264.715C215.57 265.234 215.05 265.558 214.4 265.882C213.75 266.142 213.035 266.271 212.255 266.271C211.54 266.271 210.825 266.142 210.174 265.882C209.524 265.623 208.939 265.234 208.419 264.715C207.899 264.196 207.509 263.677 207.249 262.964C206.924 262.316 206.794 261.602 206.794 260.824ZM126.642 254.405C76.1329 254.405 35.2444 213.617 35.2444 163.362C35.2444 113.043 76.198 72.3201 126.642 72.3201C177.152 72.3201 218.04 113.108 218.04 163.362C218.105 213.617 177.152 254.405 126.642 254.405Z" fill="#EFF0F3"/>
<path d="M152.252 139.499C152.252 125.104 142.046 123.029 130.02 123.029H102.263V156.1H130.02C145.817 156.1 152.252 150.393 152.252 139.499Z" fill="#EFF0F3"/>
</g>
<defs>
<clipPath id="clip0">
<rect width="251.312" height="351.265" fill="white" transform="translate(0.855957 0.860352)"/>
</clipPath>
</defs>
</svg>
