<svg width="332" height="401" viewBox="0 0 332 401" fill="none" xmlns="http://www.w3.org/2000/svg">
<path d="M134.49 0.000214862C20.366 -1.04759 -66.2526 89.5003 -67.999 196.202C-69.8326 311.984 23.1602 400.088 131.695 400.088C243.549 399.913 331.128 310.325 332.001 202.139C332.962 88.8891 242.763 1.04802 134.49 0.000214862ZM259.877 330.146C224.514 364.986 181.292 381.664 131.608 382.711C81.0515 381.751 37.1309 363.851 1.5055 327.527C-33.2467 291.989 -50.6229 248.767 -50.4482 199.171C-50.1863 148.701 -31.7623 105.13 4.21233 69.854C40.7109 34.0539 85.2427 16.7651 136.498 17.7256C232.023 19.3846 316.022 97.8828 314.45 203.537C313.664 252.871 295.066 295.482 259.877 330.146Z" fill="#009484"/>
<path d="M260.837 88.1907C260.225 87.4049 259.701 86.5317 259.09 85.7459C258.916 85.8332 258.828 85.9205 258.654 86.0951C258.828 87.2302 259.09 88.2781 260.837 88.1907C260.487 88.802 259.789 89.5005 259.963 89.7624C261.011 91.4215 259.439 90.8976 258.741 91.0722C260.138 92.7312 261.273 94.2156 264.067 93.779C262.496 95.0888 261.622 95.2634 260.225 94.4776C258.916 93.6917 257.257 93.3424 255.685 92.9932C254.812 92.8185 253.851 92.7312 254.2 91.5088C254.375 90.8102 254.462 89.4132 255.947 90.199C256.121 90.2863 256.558 90.0244 256.907 89.9371C255.597 88.8893 257.082 88.7146 257.518 88.1907C258.217 87.3176 257.955 86.5317 257.169 86.0078C256.733 85.7459 255.947 85.8332 255.336 85.7459C255.423 86.3571 255.597 86.9683 255.685 87.5795C255.685 87.7541 255.685 87.8415 255.685 87.6668C254.986 88.2781 254.2 88.7146 253.851 89.4132C253.502 90.0244 253.327 90.6356 252.541 90.2864C252.105 90.1117 251.668 89.4132 251.668 89.0639C251.756 88.6273 252.367 88.1907 252.803 87.8415C253.24 87.4922 253.677 87.2302 254.2 86.9683C254.288 86.7937 254.375 86.619 254.55 86.5317C254.55 86.5317 254.462 86.4444 254.375 86.4444C254.288 86.619 254.288 86.7937 254.2 87.0556C252.279 86.9683 252.279 86.9683 253.065 85.3966C253.502 84.5234 253.24 84.0868 252.279 84.0868C251.581 84.0868 250.795 83.9995 250.97 82.9517C251.057 82.6898 250.97 82.3405 250.882 81.9912C250.533 82.0785 250.009 82.1659 249.747 82.3405C249.398 82.6898 248.874 83.2137 248.874 83.7376C248.787 85.0473 248.001 85.3966 246.517 85.3093C247.564 86.3571 248.176 87.3176 246.953 88.3654C246.778 88.54 246.604 89.2385 246.778 89.4132C246.953 89.6751 247.477 89.6751 247.826 89.6751C248.525 89.6751 249.223 89.5878 249.922 89.5005C250.009 90.6356 249.573 92.0327 251.494 92.12C251.668 92.12 252.105 92.6439 252.017 92.8186C251.93 93.1678 251.668 93.5171 251.319 93.6917C250.708 93.9537 250.009 94.1283 249.311 94.2156C248.35 94.3029 247.652 94.4776 248.176 95.7873C248.525 96.6605 247.826 96.9225 247.128 96.7478C245.993 96.5732 245.556 95.7873 245.731 94.6522C245.294 94.6522 244.857 94.6522 244.421 94.6522C243.984 93.4298 243.548 92.382 241.801 92.8186C240.841 93.0805 239.706 92.382 238.833 92.2073C239.356 91.0722 240.317 89.9371 240.142 89.1512C239.706 87.3176 241.277 86.7937 241.714 85.5712C241.801 85.3966 242.675 85.222 242.849 85.3966C244.421 86.7937 245.207 85.9205 245.818 84.4361C245.993 84.0868 246.604 83.6502 246.604 83.3883C246.342 81.7293 246.691 80.8561 248.263 79.8956C248.437 79.8083 248.525 79.459 248.612 79.1971C246.953 79.0224 246.691 78.1493 247.215 76.7522C247.215 76.7522 246.778 76.4902 246.517 76.3156C245.032 75.5297 244.246 74.22 245.032 72.9102C245.643 71.8624 245.119 71.6005 244.596 71.1639C244.072 70.7273 243.635 70.2907 243.024 70.0288C242.675 69.8541 241.976 69.7668 241.714 70.0288C241.277 70.4654 240.928 71.0766 241.976 71.4258C242.325 71.5132 242.5 72.0371 242.762 72.299C242.325 72.4736 241.976 72.6483 241.539 72.9102C241.277 73.0849 240.928 73.4341 241.016 73.6088C241.277 74.6566 241.627 75.6171 241.801 76.5776C241.889 76.8395 241.714 77.2761 241.539 77.538C241.016 78.2366 239.269 78.3239 238.483 77.7127C237.61 76.9268 238.396 76.3156 238.833 75.7044C238.92 75.6171 239.095 75.5297 239.095 75.3551C239.182 75.0058 239.182 74.7439 239.182 74.3946C238.92 74.4819 238.571 74.5693 238.309 74.5693C237.785 74.5693 237.348 74.5693 236.824 74.5693C236.562 72.7356 238.309 73.3468 239.182 72.6483C238.92 72.1244 238.745 71.5132 238.221 70.378C237.436 71.5132 236.912 72.2117 236.388 72.9975C236.213 72.9102 235.951 72.7356 235.776 72.6483C236.038 72.0371 236.126 71.2512 236.562 70.8146C237.785 69.6795 235.776 69.6795 236.038 68.981C236.213 68.3697 237.959 67.7585 238.658 67.9332C238.92 68.0205 239.356 67.8458 239.618 67.8458C239.007 67.2346 238.571 66.4488 237.872 66.0122C237.261 65.5756 236.475 65.4883 236.3 66.6234C236.213 66.8853 235.951 67.1473 235.776 67.4092C235.515 67.1473 235.253 66.9727 235.078 66.7107C233.855 64.9644 232.72 63.1307 231.585 61.4717C231.236 61.9083 230.974 62.3449 230.625 62.7814C230.276 61.9956 230.101 61.559 230.101 61.1224C230.101 60.3366 228.18 58.3283 227.394 58.5029C227.307 58.5029 227.132 58.5902 227.045 58.6775C226.608 59.3761 225.91 60.2492 225.997 60.8605C226.084 61.3844 227.219 61.8209 227.918 62.1702C228.267 62.3449 228.616 62.3449 229.228 62.4322C228.704 63.0434 228.267 63.48 228.093 63.9166C227.918 64.3531 227.918 64.9644 228.093 65.3136C228.878 66.7107 228.878 66.6234 227.394 66.8853C226.783 66.9727 226.259 67.2346 225.648 67.4092C225.298 67.4966 224.862 67.4092 224.6 67.3219C223.989 66.9727 223.377 65.9249 222.766 67.06C222.33 67.9332 220.583 68.981 222.504 70.1161C222.766 70.2907 223.028 70.7273 223.29 70.8146C224.163 71.0766 225.036 71.4258 225.91 71.2512C226.172 71.1639 227.481 70.4654 226.957 69.3302C226.87 69.0683 227.394 68.2824 227.743 68.1078C228.791 67.6712 229.839 67.3219 230.363 66.1868C230.45 65.9249 231.411 66.0122 232.022 66.0995C232.458 66.1868 232.982 66.4488 233.157 66.7107C233.681 67.5839 233.855 68.719 234.117 69.8541C233.594 69.8541 233.07 69.9414 232.633 69.7668C232.371 69.6795 232.371 68.981 232.109 68.719C231.673 68.3697 231.061 68.0205 230.537 67.9332C230.275 67.8458 229.926 68.3697 229.664 68.719C230.014 68.981 230.276 69.3302 230.625 69.5922C231.76 70.2907 232.458 71.1639 231.673 72.561C231.498 72.9102 231.498 73.2595 231.411 73.7834C232.371 73.3468 233.157 72.9102 233.943 72.561C234.467 73.6088 232.109 73.5215 233.419 74.5693C231.673 74.3946 232.284 75.9663 231.847 76.7522C231.585 77.1015 230.974 77.3634 230.625 77.2761C229.664 77.0141 229.14 77.2761 228.966 78.2366C228.878 78.5858 228.529 79.0224 228.267 79.2844C228.005 79.459 227.656 79.5463 227.394 79.5463C227.307 79.5463 227.132 79.1097 227.132 78.8478C227.132 78.4985 227.219 78.1493 227.307 77.6254C226.521 77.9746 225.91 78.2366 225.386 78.4985C225.298 78.6732 225.298 78.8478 225.211 79.0224C225.124 78.9351 224.949 78.8478 225.036 78.8478C225.124 78.6732 225.211 78.5858 225.298 78.4112C225.473 77.9746 225.648 77.4507 225.735 77.0141C225.822 76.4029 225.91 75.7044 225.822 75.0932C225.822 74.8312 225.473 74.5693 225.298 74.3073C225.036 74.5693 224.6 74.9185 224.6 75.1805C224.6 75.879 224.775 76.6649 224.862 77.3634C224.076 76.2283 221.544 77.3634 222.068 75.1805C221.282 75.3551 220.409 75.879 220.059 75.7044C218.662 74.5693 218.051 75.6171 217.353 76.4902C218.313 77.6254 219.186 78.6732 220.059 79.8083C220.583 79.0224 221.195 78.1493 221.893 77.1888C222.941 77.9746 223.203 78.5858 222.679 79.721C222.242 80.7688 221.893 82.2532 222.242 83.3883C222.679 84.6107 223.814 85.6585 224.687 86.7937C225.036 86.1824 225.386 85.5712 225.735 85.0473C226.957 85.9205 228.18 86.7937 229.49 87.7542C231.236 87.0556 231.061 85.1346 230.799 83.2137C230.712 82.4278 230.799 81.642 230.799 80.8561C232.371 82.2532 232.284 82.2532 232.196 84.1742C232.196 84.6981 232.458 85.222 232.633 85.7459C233.419 87.9288 234.816 90.0244 232.458 92.12C232.284 92.2946 232.196 92.7312 232.196 93.0805C232.109 94.041 231.935 95.0015 231.935 96.0493C231.935 96.3986 232.633 97.0971 232.808 97.0098C233.681 96.6605 234.554 96.6605 234.641 97.621C234.729 98.4069 236.126 99.6293 234.205 100.153C233.943 100.241 233.681 100.677 233.681 101.026C233.506 102.86 232.109 103.471 230.887 104.432C230.363 104.868 229.577 105.218 229.402 105.741C229.315 106.091 230.101 106.702 230.45 107.051C230.101 107.401 229.664 107.837 229.228 108.361C229.752 108.71 230.276 109.06 230.799 109.234C231.76 109.583 232.808 109.845 233.768 110.195C233.681 110.457 233.594 110.719 233.506 110.981C231.935 110.631 230.363 110.282 228.791 109.933C228.529 110.544 228.355 111.155 228.005 111.679C227.743 112.028 227.307 112.29 226.957 112.552C226.695 112.116 226.172 111.679 226.084 111.242C225.997 110.719 226.346 110.195 226.521 109.671C226.957 108.536 227.394 107.313 227.743 106.178C227.569 106.003 227.394 105.916 227.307 105.741C226.172 106.527 225.124 107.313 223.989 108.012C223.639 107.924 223.028 107.75 222.504 107.837C221.369 108.099 220.321 108.536 219.274 108.885C212.463 110.719 205.652 111.766 199.103 107.75C198.317 107.313 197.881 107.488 197.794 108.361C197.532 111.504 197.794 114.473 199.627 117.18C200.588 118.577 201.723 119.8 202.945 120.935C203.906 121.808 204.342 122.419 203.12 123.38C201.81 124.427 200.588 125.65 199.278 126.698C192.991 131.5 186.268 132.461 179.282 128.444C176.401 126.785 173.694 124.777 170.9 123.03C167.669 120.935 164.438 118.926 161.208 116.918C160.247 116.307 159.461 116.394 158.501 117.18C156.667 118.664 154.746 119.974 152.738 121.197C148.721 123.729 144.443 125.562 139.466 124.951C136.497 124.602 133.615 123.991 130.647 123.467C127.852 123.03 125.146 123.205 122.963 124.951C121.74 125.999 121.216 125.475 120.78 124.515C119.645 121.982 118.597 119.363 117.462 116.743C116.85 117.093 115.977 117.442 115.191 117.879C111.35 119.887 107.246 121.109 102.88 120.673C100.26 120.411 97.5534 119.887 95.0212 119.014C92.0524 118.053 89.2583 117.966 86.2895 118.752C83.5827 119.363 80.8758 119.8 78.0817 119.8C75.0256 119.8 72.0568 119.276 69.0007 118.839C65.508 118.402 62.3646 119.188 59.5704 121.284C57.5621 122.856 55.8158 124.777 53.9821 126.523C52.9343 127.571 51.7992 128.531 50.5768 129.404C50.0529 129.841 49.1797 129.841 48.4812 130.016C48.3065 129.23 47.6953 128.269 47.9573 127.658C48.5685 125.824 49.3543 123.903 50.4021 122.332C52.1485 119.712 53.2836 116.918 53.6329 113.862C53.9821 111.33 53.3709 108.885 51.2753 107.051C49.3543 105.392 47.2587 105.829 45.1631 106.789C44.1153 107.313 42.8055 107.401 41.6704 107.662C41.5831 107.488 41.4958 107.313 41.4085 107.226C42.6309 105.043 43.3294 102.86 43.1548 100.328C42.9802 97.9703 41.4085 96.3986 39.0509 96.3112C35.9075 96.2239 33.6372 97.9703 31.7163 100.066C27.0011 105.305 25.0802 111.504 25.6041 118.49C25.866 122.07 27.0885 123.816 30.4065 124.864C30.8431 125.039 31.1924 125.126 31.6289 125.301C33.2007 126.174 33.5499 127.396 32.5894 128.968C31.2797 131.063 30.0572 133.246 28.3982 135.08C26.6519 137.088 25.7787 138.922 27.4377 141.28C27.6997 141.629 27.787 142.24 27.8743 142.677C28.5728 146.431 28.3982 149.924 25.2548 152.631C23.6831 153.941 23.0719 155.774 22.548 157.608C22.1114 159.354 21.7621 161.188 21.2382 162.934C20.8889 164.069 20.627 165.379 19.1426 166.165C19.0553 159.267 18.706 152.631 20.627 146.082C21.0636 144.772 21.4128 143.463 20.4523 142.065C20.0158 141.454 19.9284 140.406 20.0158 139.621C20.1904 137.176 20.627 134.731 20.8016 132.199C21.0636 128.357 20.2777 124.602 18.8806 120.935C17.3962 116.918 16.6104 112.901 16.9597 108.623C17.1343 106.091 17.3089 103.559 17.9202 101.026C18.3567 99.0181 18.1821 97.621 16.3484 96.6605C16.3484 96.6605 16.4358 96.3986 16.4358 96.3112C17.047 96.3986 17.4836 96.4859 17.7455 96.4859C18.7933 96.4859 18.968 96.0493 19.4045 94.3903C19.9284 92.5566 20.627 90.7229 21.0636 88.8893C21.1509 88.4527 22.548 87.1429 20.5397 87.2302C20.5397 87.2302 20.365 86.619 20.4523 86.2698C20.5397 85.7459 20.7143 85.2219 20.8889 84.6107C21.0636 84.4361 21.1509 84.3488 21.3255 84.1742C21.8494 83.9122 22.8099 83.7376 22.9845 83.301C24.207 79.9829 25.3421 76.6649 26.3026 73.2595C26.4772 72.561 27.0885 71.2512 25.5167 70.9019C25.5167 70.2907 25.4294 69.7668 25.4294 68.8063C25.1675 69.5922 24.9928 69.9414 24.9055 70.2907C24.7309 70.1161 24.5563 70.0288 24.4689 69.8541C24.3816 69.1556 24.2943 68.3697 24.207 67.6712C24.0324 67.5839 23.945 67.4966 23.7704 67.4092C23.2465 68.0205 22.548 68.5444 22.286 69.3302C21.9367 70.2034 21.6748 70.7273 20.627 70.2907C20.5397 70.2907 20.2777 70.7273 20.1031 70.9893C20.1031 70.9893 20.1031 70.9893 20.1904 70.9893C20.365 71.2512 20.5397 71.6005 20.8016 71.8624C20.365 71.9497 19.9284 72.1244 19.4919 72.1244C18.0075 72.2117 16.3484 74.0454 16.6977 75.5297C16.8723 76.4029 16.3484 76.7522 15.6499 76.6649C13.9036 76.4029 12.8558 77.4507 11.8079 78.5858C10.6728 79.8083 9.45038 80.9434 8.31526 82.0785C6.91818 83.5629 5.52111 85.0473 4.21136 86.7063C3.4255 87.6668 2.98891 88.802 2.29037 89.8498C2.02842 90.2864 1.76647 90.8976 1.4172 90.9849C-0.241825 91.2468 -0.241821 92.382 -0.241821 93.6044C-0.241821 94.5649 -0.416458 95.4381 -1.81353 94.6522C-1.98817 94.5649 -2.77402 94.9142 -2.86134 95.1761C-3.21061 96.4859 -3.90915 97.2717 -5.04427 98.1449C-6.44134 99.1927 -7.48915 100.939 -8.36232 102.511C-9.14818 103.995 -11.2438 104.956 -10.4579 107.139C-10.4579 107.139 -10.7199 107.313 -10.8945 107.401C-12.9028 108.885 -14.3872 110.631 -14.3872 113.251C-14.3872 113.513 -14.6492 113.687 -14.8238 113.862C-15.2604 114.211 -15.8716 114.473 -16.0462 114.91C-16.3955 116.045 -18.2292 116.656 -17.2687 118.315C-19.4516 119.363 -19.7136 121.633 -20.7614 123.38C-21.8965 125.213 -22.6823 127.309 -23.6428 129.317C-24.516 131.325 -25.3892 133.334 -26.2623 135.342C-27.1355 137.35 -27.9214 139.446 -28.6199 141.454C-29.3184 143.375 -29.755 145.383 -30.5409 147.304C-31.938 151.059 -32.9858 154.988 -33.9463 158.918C-36.1292 167.824 -37.7882 176.905 -38.3121 186.161C-38.6614 192.098 -39.3599 198.036 -38.7487 203.973C-38.2248 209.649 -38.0502 215.412 -37.3516 221.087C-36.8277 225.977 -36.0419 230.867 -34.9941 235.757C-32.3745 247.719 -28.6199 259.245 -23.5555 270.422C-18.5784 281.336 -12.6409 291.64 -5.48085 301.245C-2.07549 305.872 1.59184 310.238 5.43379 314.604C7.70404 317.224 10.3236 319.494 12.8558 321.939C12.8558 321.677 12.9431 321.415 12.8558 321.24C11.284 315.128 10.7601 308.929 10.9348 302.729C10.9348 301.157 10.2362 298.712 12.9431 297.927C13.1177 297.839 13.2923 297.228 13.2923 296.791C13.205 295.831 13.1177 294.783 12.9431 293.823C11.8953 286.488 12.7684 279.241 13.5543 271.993C14.2528 265.707 14.864 259.507 15.5626 253.22C15.8245 250.863 15.9992 248.418 16.6977 246.148C17.8328 242.393 17.8328 238.726 16.4358 235.146C13.6416 227.636 13.0304 219.865 13.0304 211.919C13.0304 209.649 13.3797 207.379 13.3797 205.108C13.3797 201.005 13.1177 196.901 13.0304 192.797C13.0304 190.701 12.6811 188.344 13.467 186.51C14.6894 183.716 15.126 181.009 15.126 178.04C15.126 174.897 16.4358 172.365 19.0553 170.356C20.4523 169.221 21.7621 167.737 22.548 166.165C24.1197 162.847 25.1675 159.267 26.6519 155.949C27.787 153.417 29.2714 150.972 30.8431 148.614C31.7163 147.217 33.4626 146.955 34.8597 147.566C36.2568 148.178 37.2172 149.4 37.3046 151.059C37.3046 151.583 37.2172 152.107 37.3919 152.543C37.6538 153.417 38.0031 154.203 38.2651 154.988C39.0509 154.552 39.8368 154.203 40.5353 153.679C42.369 152.107 43.4168 151.932 45.4251 153.329C49.267 155.862 51.7119 159.442 53.4582 163.633C54.9426 167.213 56.7763 170.269 59.5704 172.976C61.4914 174.809 63.0631 177.08 64.3729 179.437C66.0319 182.231 67.3417 185.287 68.5641 188.256C70.747 193.321 72.5807 198.385 72.4061 204.061C72.3187 207.728 71.1836 210.871 68.4768 213.404C67.5163 214.277 66.6431 215.237 66.0319 216.285C63.9363 219.603 64.8095 222.572 68.3895 224.056C69.6992 224.667 70.5724 225.541 71.009 226.938C71.4456 228.335 71.7075 229.819 72.2314 231.216C74.0651 236.543 77.9944 240.297 82.0983 243.79C86.2022 247.37 90.6554 250.688 94.5846 254.355C98.7759 258.285 100.959 263.349 100.61 269.287C100.26 275.049 97.3788 278.455 91.6158 278.368C87.5993 278.368 84.8051 279.939 82.7968 283.257C80.6139 286.837 78.5183 290.505 76.3353 293.997C74.851 296.355 73.0173 298.363 70.4851 299.848C65.5953 302.642 60.8802 301.943 56.1651 299.149C54.768 298.276 53.2836 297.577 51.7992 297.053C49.0924 296.18 47.6953 297.141 47.1714 299.935C46.9094 301.157 46.7348 302.38 45.3377 302.904C42.1943 304.126 38.8763 304.65 35.5582 303.777C33.8992 303.34 32.4148 302.031 30.7558 301.157C30.1446 300.808 29.2714 300.284 28.9221 300.546C28.4855 300.808 28.1363 301.769 28.1363 302.38C28.1363 303.515 28.3982 304.65 28.5728 305.698C28.7475 307.008 29.0094 308.317 29.0967 309.714C29.0967 310.238 28.7475 310.937 28.3109 311.286C28.0489 311.461 27.2631 311.111 26.8265 310.85C26.2153 310.413 25.7787 309.714 25.1675 309.191C24.5563 308.667 23.7704 308.405 23.0719 307.968C22.8972 308.667 22.6353 309.365 22.4606 310.064C22.4606 310.151 22.286 310.151 21.9367 310.413C21.2382 309.016 20.5397 307.706 19.7538 306.309C19.5792 305.96 19.1426 305.785 18.8806 305.523C18.706 305.872 18.2694 306.222 18.2694 306.571C18.2694 307.27 18.444 307.968 18.5314 308.667C18.8806 310.85 18.444 311.635 16.3484 311.985C16.4358 314.342 17.047 316.438 16.6977 318.359C16.3484 320.105 16.2611 321.852 15.9118 323.511C15.5626 325.082 16.1738 325.781 17.1343 326.567C19.5792 328.662 22.0241 330.671 24.4689 332.679C33.026 339.752 42.2816 345.776 52.1485 351.015C65.3334 358.001 79.3041 363.24 93.8861 366.558C101.483 368.304 109.167 369.701 116.938 370.138C119.557 370.313 122.177 370.574 124.796 370.574C131.52 370.574 138.243 370.662 144.967 370.4C149.42 370.225 153.786 369.439 158.239 368.828C161.033 368.392 163.827 367.955 166.534 367.082C169.415 366.121 172.122 364.55 174.916 363.327C178.322 361.843 180.33 359.398 181.029 355.731C182.251 349.095 183.648 342.371 185.045 335.735C185.482 333.639 185.133 331.893 183.91 330.321C181.989 327.876 180.854 325.082 180.155 322.113C178.671 315.914 175.266 311.286 169.153 308.929C164.875 307.27 160.422 305.872 156.056 304.388C147.586 301.419 140.775 296.355 136.06 288.671C132.044 282.035 130.734 274.788 132.131 267.016C133.353 260.468 136.41 255.054 141.125 250.513C143.046 248.68 144.355 246.584 145.229 244.139C145.665 242.917 146.276 241.694 146.888 240.472C148.197 238.114 150.468 236.63 152.738 235.233C164.089 228.073 175.44 220.913 186.879 213.927C191.856 210.871 197.008 207.815 202.247 205.196C208.184 202.14 214.558 201.266 221.02 203.275C224.6 204.41 228.093 205.894 231.498 207.553C238.396 210.871 245.294 214.364 252.105 217.769C255.597 219.516 259.09 221.262 262.583 223.008C263.631 223.532 264.067 224.056 263.543 225.279C261.098 230.78 260.313 236.543 261.273 242.48C262.146 248.156 264.242 253.133 268.433 257.062C272.188 260.642 274.895 261.079 279.522 258.721C283.364 256.8 287.381 255.927 291.572 257.586C292.533 257.935 293.057 257.673 293.319 256.713C295.327 249.553 297.335 242.393 299.256 235.233C299.78 233.399 299.605 233.312 297.597 233.661C297.51 233.661 297.335 233.574 297.16 233.399C300.217 223.183 299.256 213.578 292.271 204.934C291.659 207.291 291.398 209.649 291.048 212.007C290.088 217.595 289.127 223.183 288.167 228.771C287.992 229.732 287.643 230.168 286.857 230.43C283.626 231.653 279.348 230.168 277.514 227.2C276.816 226.065 276.816 225.104 277.951 224.231C279.348 223.096 280.57 221.873 281.967 220.738C283.015 219.865 283.277 218.905 282.928 217.682C280.832 209.474 278.649 201.266 276.641 192.971C276.292 191.574 275.68 191.138 274.109 191.138C270.179 191.138 266.25 191.225 262.408 190.614C257.78 189.915 253.327 188.431 248.787 187.383C247.302 187.034 245.731 186.859 244.246 186.946C241.277 187.121 239.444 189.129 237.697 191.225C236.388 192.797 235.078 194.368 233.681 195.853C232.109 197.512 229.926 198.123 227.831 197.861C222.941 197.25 219.535 194.543 217.964 189.653C216.217 184.414 216.043 179.001 216.479 173.674C216.916 168.697 219.361 166.864 224.513 166.776C226.695 166.776 228.878 166.689 231.061 166.776C234.467 166.864 237.174 168.348 239.095 171.229C239.968 172.626 240.928 173.936 241.976 175.159C243.81 177.342 246.167 177.691 248.612 176.294C250.795 175.071 251.93 173.063 252.629 170.793C253.589 167.562 252.978 164.419 252.105 161.363C251.494 159.18 252.017 159.267 253.764 158.568C257.518 157.171 261.273 156.735 265.29 156.997C270.703 157.346 276.03 157.433 281.443 158.044C285.285 158.481 289.04 159.616 292.795 160.489C293.842 160.751 294.89 161.188 295.501 159.354C295.851 161.624 296.025 161.712 298.383 161.45C298.208 160.839 296.549 160.489 297.946 159.529C298.121 159.442 298.034 158.83 297.859 158.481C296.375 154.814 296.549 150.535 293.93 147.217C293.755 147.043 293.93 146.693 293.842 146.431C293.755 145.733 293.842 145.034 293.58 144.423C292.707 141.891 291.747 139.446 290.786 136.914C290.524 136.215 290 135.691 289.651 134.993C289.389 134.469 289.302 133.858 289.04 133.246C288.603 132.111 288.429 130.365 287.643 129.928C286.42 129.23 286.595 128.531 286.682 127.396C285.198 128.095 283.801 128.706 282.753 129.754C282.055 130.54 281.88 130.714 281.269 129.841C281.094 129.579 280.745 129.492 280.396 129.317C280.308 129.666 280.134 129.928 280.046 130.278C279.872 130.802 279.959 131.413 279.61 131.849C279.26 132.286 278.649 132.548 278.125 132.81C278.038 132.199 277.776 131.675 277.776 131.063C277.863 128.881 280.134 128.444 281.007 126.785C281.094 126.61 281.793 126.61 281.967 126.785C283.277 127.92 284.325 126.96 285.46 126.61C285.635 126.523 285.809 126.261 285.897 125.999C285.635 125.999 285.373 126.086 285.198 125.999C283.976 125.65 283.277 124.427 283.626 123.118C283.976 121.982 283.801 121.022 282.928 120.236C282.928 120.585 283.015 120.935 282.928 121.284C282.578 122.332 281.618 123.205 282.317 124.427C282.317 124.515 281.967 124.951 281.793 124.951C281.443 124.951 280.919 124.777 280.919 124.602C280.658 122.943 280.134 122.943 279.173 124.165C279.086 124.34 278.737 124.34 278.475 124.34C278.475 124.078 278.3 123.729 278.387 123.554C278.649 123.205 278.998 122.856 279.26 122.506C277.951 122.07 276.03 123.03 275.68 124.253C275.593 124.602 275.244 124.951 274.982 125.301C274.895 124.951 274.895 124.515 274.72 124.165C274.545 123.729 274.371 122.856 274.196 122.856C272.624 122.856 271.053 122.681 269.656 123.205C268.171 123.729 267.123 123.816 266.25 122.594C265.814 123.118 265.464 123.816 264.94 123.991C263.98 124.34 263.805 123.292 263.281 122.768C261.884 121.371 262.496 119.538 262.059 117.879C261.71 116.918 263.107 115.958 264.242 116.394C264.94 116.569 265.552 116.831 266.163 117.267C266.425 117.442 266.774 117.966 266.687 118.228C266.599 118.49 266.076 118.839 265.814 118.839C265.29 118.752 264.766 118.402 264.242 118.315C263.98 118.315 263.718 118.577 263.369 118.752C263.98 119.712 263.98 121.197 265.552 121.284C266.687 121.371 267.909 121.546 269.132 121.459C269.918 121.371 271.14 120.935 271.227 120.498C271.315 119.712 270.965 118.664 270.354 118.141C269.394 117.267 268.084 116.743 266.949 116.045C266.163 115.521 265.464 114.91 264.678 114.299C265.639 113.949 266.687 113.775 266.774 113.425C267.036 111.592 265.377 113.251 264.766 112.378C265.464 111.941 266.076 111.592 267.123 110.981C266.076 111.068 265.552 111.068 264.591 111.155C265.202 110.631 265.552 110.107 265.814 110.107C266.774 110.195 266.861 109.671 266.861 108.972C266.861 108.099 267.123 107.139 266.774 106.44C265.814 104.694 267.996 103.646 267.473 102.161C267.473 102.161 267.822 101.9 267.997 101.9C268.433 101.9 269.132 101.9 269.132 102.074C269.394 102.685 269.656 103.646 269.394 103.995C268.258 105.13 270.616 105.567 269.83 106.527C270.529 106.964 271.227 107.488 271.926 107.924C272.275 108.186 272.45 108.448 272.799 108.71C272.45 108.885 272.013 108.972 271.751 109.234C271.402 109.583 270.791 110.282 270.878 110.369C271.489 110.981 272.188 111.504 272.886 112.028C272.886 112.028 273.148 111.941 273.236 111.766C273.41 110.631 273.934 109.409 273.672 108.448C273.148 106.789 274.109 107.051 275.069 107.051C275.244 107.139 275.331 107.313 275.506 107.401C275.418 107.226 275.244 107.139 275.157 106.964C274.982 106.44 274.895 105.829 274.545 105.392C274.109 104.781 273.236 103.821 273.061 103.995C271.489 104.868 271.751 103.646 271.664 102.86C271.577 102.336 271.751 101.812 271.577 101.376C271.315 100.764 270.878 100.153 270.354 99.6293C270.267 99.542 269.568 99.9786 269.132 100.153C268.608 100.328 268.084 100.328 267.56 100.502C267.473 100.328 267.385 100.153 267.211 100.066C268.695 99.7166 269.394 98.9307 268.608 97.7083C267.473 95.8746 266.163 94.2156 264.853 92.4693C264.766 92.382 264.242 92.4693 263.98 92.5566C262.757 93.2551 262.059 92.5566 261.273 91.4215C262.146 91.2468 262.757 91.1595 263.893 90.9849C262.583 89.8498 261.71 89.0639 260.837 88.1907ZM249.835 89.5005C249.835 89.5005 249.747 89.5005 249.66 89.5878C249.747 89.5005 249.747 89.5005 249.835 89.4132C249.835 89.4132 249.835 89.4132 249.835 89.5005ZM241.976 82.5151C243.111 81.38 243.81 79.8083 243.722 78.5858C243.722 78.2366 243.635 77.8873 243.81 77.538C243.984 77.2761 244.246 76.9268 244.508 76.9268C244.77 76.9268 245.119 77.2761 245.207 77.538C245.556 78.1493 244.159 83.2137 243.548 83.6502C243.198 83.8249 242.762 83.9995 242.413 83.9995C242.151 83.9995 241.714 83.7376 241.627 83.4756C241.627 83.2137 241.801 82.7771 241.976 82.5151ZM228.878 83.7376C228.442 83.1263 228.005 82.6024 227.656 81.9039C227.656 81.9039 228.093 81.38 228.18 81.4673C228.791 81.8166 229.315 82.2532 230.101 82.7771C229.402 83.3883 229.14 83.5629 228.878 83.7376ZM231.411 79.8956C230.799 80.3322 230.101 80.5068 229.315 80.6815C229.228 80.7688 228.878 80.4195 228.878 80.1576C228.878 79.8956 229.053 79.6337 229.315 79.459C230.014 79.1098 230.799 78.8478 231.76 78.4985C231.585 79.1097 231.673 79.721 231.411 79.8956ZM23.5084 71.7751C24.207 71.4258 24.9928 71.3385 25.7787 71.2512C25.2548 71.9497 24.8182 72.7356 24.207 73.3468C24.0324 73.5214 23.4211 73.2595 22.9845 73.1722C23.2465 72.6483 23.2465 71.9497 23.5084 71.7751ZM18.5314 81.9039C19.5792 82.6898 20.5397 83.5629 21.5002 84.3488C21.3255 84.5234 21.2382 84.6107 21.0636 84.7854C20.4523 85.1346 19.9284 85.5712 19.3172 85.9205C19.0553 86.0951 18.444 86.2698 18.1821 86.0951C17.8328 85.9205 17.4836 85.3093 17.5709 84.8727C17.7455 83.9122 18.1821 83.039 18.5314 81.9039ZM-1.72622 112.465C-2.42475 112.203 -3.12329 112.028 -3.73451 111.679C-3.90914 111.592 -3.99646 111.242 -4.1711 110.981C-3.90915 110.893 -3.47256 110.544 -3.29792 110.719C-2.59939 111.068 -1.98817 111.592 -1.37695 112.028C-1.55158 112.116 -1.6389 112.29 -1.72622 112.465ZM-0.0671883 105.305C-0.241821 103.384 -0.416458 101.55 -0.67841 99.8039C-0.67841 99.8039 -0.67841 99.8039 -0.67841 99.7166C-0.765724 99.6293 -0.940361 99.4547 -1.02768 99.3673C-0.940361 99.28 -0.853046 99.28 -0.765728 99.1927C-0.765728 99.3673 -0.67841 99.542 -0.67841 99.7166C-0.67841 99.7166 -0.67841 99.7166 -0.67841 99.8039C1.24257 100.852 1.59184 103.297 -0.0671883 105.305ZM11.1967 89.8498C11.0221 89.7624 10.8475 89.4132 10.7601 89.2385C10.9348 89.0639 11.1967 88.802 11.4587 88.802C12.5938 88.54 13.205 89.1512 13.3797 90.9849C12.5938 90.6356 11.8953 90.2864 11.1967 89.8498ZM12.8558 84.3488C12.0699 84.1741 11.284 83.7376 10.5855 83.3883C10.5855 83.3883 10.5855 83.039 10.6728 83.039C11.4587 82.9517 12.3319 82.8644 13.205 82.8644C13.467 82.8644 13.6416 83.301 13.9909 83.6502C13.467 83.9122 13.1177 84.3488 12.8558 84.3488ZM204.866 118.752C203.818 118.053 203.12 117.18 203.731 115.783C204.43 116.394 205.215 116.831 205.739 117.442C206.001 117.704 205.914 118.315 205.914 118.752C205.565 118.752 205.128 118.926 204.866 118.752ZM214.995 112.902C214.296 112.814 213.685 112.116 213.074 111.679C213.947 111.33 214.733 110.893 215.694 110.631C215.868 110.544 216.305 111.068 217.003 111.679C216.043 112.29 215.432 112.989 214.995 112.902ZM294.017 153.242C294.104 153.155 294.541 153.504 294.803 153.679C294.541 154.028 294.192 154.464 293.755 154.988C293.493 154.639 293.231 154.377 293.231 154.29C293.493 153.853 293.755 153.504 294.017 153.242ZM270.529 140.756C270.616 140.581 270.965 140.581 271.227 140.581C271.315 141.454 271.402 142.24 271.402 143.113C270.267 142.502 269.83 141.716 270.529 140.756ZM276.728 143.288C276.554 143.899 276.117 144.336 275.68 145.209C275.244 144.423 274.807 143.812 274.633 143.201C274.545 142.764 274.633 141.978 274.807 141.891C275.331 141.803 276.03 141.803 276.554 142.065C276.728 142.153 276.816 142.851 276.728 143.288ZM282.404 152.718C282.055 152.369 281.618 152.02 281.443 151.583C281.356 151.408 282.055 150.972 282.578 150.535C282.84 150.972 283.277 151.408 283.19 151.583C283.102 152.02 282.666 152.282 282.404 152.718ZM286.682 151.321C286.42 151.234 286.158 151.234 285.897 151.146C286.158 150.361 286.333 149.487 286.595 148.702L287.119 148.789C286.944 149.662 286.857 150.448 286.682 151.321ZM292.62 158.481C292.183 158.918 291.834 159.18 291.572 159.529C291.31 159.267 290.786 158.83 290.874 158.743C291.048 158.306 291.485 157.957 291.834 157.608C292.009 157.783 292.271 158.044 292.62 158.481ZM290.961 145.995C291.136 146.169 291.398 146.431 291.747 146.781C291.398 147.13 291.136 147.304 290.874 147.566C290.699 147.304 290.35 147.043 290.35 146.868C290.35 146.519 290.699 146.257 290.961 145.995ZM289.477 138.485C289.738 139.359 290 139.97 290.088 140.494C290.088 140.668 289.564 140.843 289.302 141.105C289.127 140.668 288.778 140.144 288.778 139.708C288.603 139.446 289.04 139.097 289.477 138.485ZM285.023 135.779C285.023 135.691 285.897 135.866 285.897 135.866C285.897 136.564 285.897 137.263 285.809 138.049C285.722 137.962 285.809 138.049 285.809 138.049C286.42 138.311 286.944 138.573 287.556 138.835C287.206 139.097 286.857 139.446 286.508 139.533C285.635 139.621 284.587 139.795 284.325 138.485C284.237 138.311 284.238 138.049 284.238 137.874C284.499 137.176 284.674 136.39 285.023 135.779ZM284.761 140.494C284.936 140.406 285.46 140.93 285.46 141.192C285.547 141.454 285.111 141.803 284.849 142.327C284.412 141.891 283.976 141.629 283.976 141.28C283.976 140.93 284.412 140.494 284.761 140.494ZM279.697 137.176C279.784 136.826 280.221 136.564 280.483 136.303C280.832 135.779 281.007 135.167 281.356 134.556C282.055 135.08 282.753 135.604 283.452 136.128C283.539 136.215 283.539 136.39 283.539 136.564C283.452 136.739 283.539 137.001 283.364 137.088C282.404 137.874 282.578 138.747 282.928 139.795C283.015 140.144 282.578 140.93 282.142 141.105C281.269 141.454 281.007 141.018 281.269 140.232C281.269 140.057 280.919 139.708 280.658 139.621C280.308 139.446 279.697 140.756 279.522 139.446C279.435 138.747 279.522 137.962 279.697 137.176ZM277.427 151.758C277.427 151.321 277.165 150.797 277.339 150.448C277.776 149.749 278.3 149.138 276.903 149.138C276.816 149.138 276.728 148.527 276.816 148.265C276.816 147.741 276.903 147.217 277.078 146.781C277.252 146.344 277.514 145.907 277.776 145.558C278.213 145.907 278.562 146.257 278.999 146.693C278.824 146.781 278.649 146.955 278.475 147.043C278.649 147.566 278.911 148.09 278.999 148.614C279.086 149.4 279.26 150.361 279.086 151.059C278.911 151.408 277.951 151.583 277.427 151.758ZM275.331 135.342C275.68 134.905 276.117 134.469 276.554 134.382C277.339 134.382 278.125 134.643 278.911 134.905C278.562 135.517 278.125 136.128 277.776 136.739C277.514 137.176 277.077 137.612 276.99 138.136C276.903 139.359 276.204 139.533 274.982 139.533C274.633 139.359 274.109 139.184 273.585 138.835C273.41 138.747 273.41 138.223 273.497 137.962C274.021 137.001 274.633 136.128 275.331 135.342ZM263.369 127.134C264.329 126.698 265.377 125.824 266.425 126.96C267.822 128.357 269.481 128.357 271.227 128.007C273.41 127.483 273.41 127.571 273.236 129.754C273.236 130.19 273.498 130.714 273.847 131.762C272.799 131.151 272.013 130.976 271.489 130.452C270.703 129.579 269.917 129.666 269.044 130.103C268.084 130.627 268.258 131.5 268.433 132.373C268.52 132.81 268.782 133.159 268.782 133.596C268.87 134.032 268.957 134.731 268.782 134.818C268.346 135.08 267.647 135.167 267.211 134.993C266.337 134.556 265.552 133.858 264.678 133.246C265.377 132.984 266.076 132.723 266.949 132.461C266.687 131.762 266.512 131.063 266.163 130.452C265.639 129.492 265.115 128.444 263.631 128.793C263.281 128.881 262.845 128.444 262.408 128.182C262.845 127.833 263.019 127.309 263.369 127.134ZM257.082 99.542C257.169 99.9786 257.169 100.328 257.257 100.677C256.733 100.677 256.121 100.677 255.598 100.677C255.598 100.415 255.51 100.241 255.51 99.9786C256.034 99.8912 256.558 99.7166 257.082 99.542ZM252.716 103.384C253.502 103.559 254.375 104.17 254.986 103.995C256.209 103.646 257.169 103.908 258.13 104.606C258.566 104.868 259.352 104.781 259.701 105.043C260.138 105.392 260.4 106.091 260.749 106.615C260.313 106.527 259.789 106.527 259.352 106.353C258.479 105.916 257.78 105.567 257.693 107.051C257.693 107.313 257.257 107.662 256.995 107.924C256.645 107.75 256.383 107.575 256.383 107.488C256.209 105.567 254.55 105.741 253.327 105.218C252.803 104.956 252.279 104.694 251.93 104.344C251.756 104.082 251.843 103.646 251.756 103.209C252.017 103.209 252.367 103.297 252.716 103.384ZM260.138 110.02C259.527 110.369 259.09 110.719 258.916 110.631C258.566 110.544 258.392 110.02 258.304 109.671C258.217 109.496 258.566 109.147 258.741 108.885C259.09 109.234 259.527 109.496 260.138 110.02ZM244.159 94.6522C244.072 94.6522 244.072 94.6522 244.159 94.6522C244.508 95.4381 244.945 96.1366 245.207 96.9225C245.556 97.7956 245.207 98.3195 244.334 98.4069C243.46 98.5815 243.111 97.9703 243.286 97.2717C243.548 96.3986 242.5 95.0888 244.159 94.6522ZM239.793 94.8268C239.968 94.8268 240.23 95.8747 240.055 96.2239C239.793 96.6605 239.182 96.8351 238.396 97.359C239.095 97.5337 239.618 97.5337 239.793 97.7956C239.968 98.0576 239.88 98.5815 239.968 99.0181C239.618 98.9308 239.356 98.8434 239.007 98.8434C238.221 98.6688 237.436 98.4942 236.65 98.2322C236.824 97.7083 236.999 97.0971 237.086 96.5732C237.174 96.0493 237.086 95.0015 237.261 94.9142C238.134 94.6522 239.007 94.6522 239.793 94.8268ZM237.872 105.654C238.047 105.567 238.134 105.392 238.309 105.218C238.396 105.13 238.571 105.13 238.745 105.13C239.095 105.916 239.531 106.789 239.793 107.575C239.88 107.924 239.618 108.448 239.444 108.885C239.007 108.798 238.571 108.71 238.221 108.448C237.959 108.361 237.785 108.099 237.61 107.924C235.689 106.44 235.689 106.527 237.872 105.654ZM235.776 104.257C236.3 103.821 236.737 103.209 237.348 102.947C237.61 102.86 238.221 103.384 238.658 103.733C238.658 103.908 238.658 104.082 238.658 104.257C237.872 104.519 237.174 104.781 236.388 104.956C236.213 104.868 235.951 104.432 235.776 104.257ZM236.038 85.1346C236.3 84.8727 236.65 84.5234 237.174 83.9995C237.785 84.698 238.309 85.222 238.745 85.7459C238.483 86.0078 238.047 86.4444 237.959 86.4444C237.261 86.0951 236.737 85.5712 236.038 85.1346ZM237.785 91.3342C237.523 91.2468 237.174 91.1595 236.824 91.0722C236.912 90.2864 236.824 89.5005 237.086 88.802C237.174 88.6273 238.309 88.802 238.92 88.8893C238.571 89.6751 238.134 90.461 237.785 91.3342ZM236.737 78.0619C237.697 77.8873 239.356 79.2844 239.182 80.0702C239.095 80.4195 238.745 80.7688 238.221 81.38C237.348 80.5068 236.562 79.8083 235.951 79.0224C236.038 78.9351 236.475 78.0619 236.737 78.0619ZM236.388 74.5693C236.3 75.3551 236.3 76.141 236.038 76.8395C235.951 77.1888 235.34 77.2761 234.991 77.538C234.729 77.1888 234.379 76.7522 234.379 76.4029C234.379 75.0932 235.165 74.5693 236.388 74.5693ZM233.768 82.8644C233.681 82.8644 233.506 82.4278 233.594 82.3405C234.03 82.0785 234.467 81.7293 234.991 81.5546C235.427 81.4673 235.864 81.5546 236.65 81.5546C236.213 82.0785 235.951 82.6898 235.602 82.7771C234.991 82.9517 234.292 82.8644 233.768 82.8644ZM240.492 118.228C239.968 118.577 239.357 119.014 238.745 119.276C238.483 119.45 237.872 119.625 237.872 119.538C236.475 117.704 234.816 119.101 233.244 119.101C231.847 119.101 231.76 119.014 232.196 117.617C232.633 116.045 233.681 114.561 233.07 112.727C232.982 112.378 233.506 111.504 233.943 111.33C235.078 110.893 234.991 112.116 235.515 112.64C236.038 113.163 235.951 113.687 235.253 113.949C234.03 114.386 234.205 115.346 234.467 116.22C234.729 117.18 235.515 117.18 236.3 117.267C237.697 117.355 239.095 117.529 240.492 117.704C240.492 117.966 240.492 118.141 240.492 118.228ZM241.627 130.714C241.627 130.627 241.539 130.627 241.539 130.54C240.841 129.841 240.404 129.142 241.365 128.095C241.452 128.881 241.539 129.666 241.539 130.54C241.627 130.627 241.714 130.714 241.714 130.714H241.627ZM244.072 110.893C245.556 111.766 245.731 112.552 244.77 113.862C244.159 114.648 243.897 114.91 242.762 113.862C240.579 111.679 240.579 109.758 241.889 107.139C242.675 105.567 243.722 104.344 245.381 104.17C245.381 104.082 245.381 104.082 245.294 103.995C244.945 103.297 243.635 102.947 244.508 101.987C244.857 101.725 245.993 102.249 246.691 102.423C247.215 101.812 248.001 101.114 248.699 100.328C248.699 100.328 248.699 100.328 248.699 100.241C248.787 99.8912 248.874 99.1927 249.049 99.1927C249.485 99.1054 250.009 99.28 250.446 99.4547C250.62 99.542 250.62 100.153 250.62 100.153C250.184 100.328 249.747 100.415 249.311 100.502C249.136 100.502 248.961 100.415 248.699 100.328C248.699 100.764 248.787 101.288 248.612 101.725C248.263 102.685 248.263 103.297 249.485 103.471C249.747 103.559 250.184 103.995 250.184 104.344C250.184 104.694 249.835 105.13 249.485 105.305C249.311 105.392 248.699 105.043 248.612 104.694C248.263 103.995 247.826 103.908 247.128 104.082C246.517 104.257 245.905 104.17 245.294 104.17C245.119 105.218 245.381 105.916 246.691 105.741C247.128 105.654 247.564 105.829 247.914 106.003C248.176 106.178 248.525 106.44 248.525 106.702C248.525 106.964 248.176 107.401 247.914 107.401C247.128 107.488 246.517 107.575 246.866 108.623C246.866 108.623 246.08 109.147 245.993 109.06C245.381 108.623 244.072 109.321 244.072 107.924C244.072 107.662 244.159 107.488 244.159 107.139C242.587 108.012 242.5 109.933 244.072 110.893ZM250.708 114.124C249.66 114.997 248.263 115.608 247.564 114.299C246.778 112.814 247.477 111.854 249.311 112.814C249.747 113.076 250.184 113.687 250.708 114.124ZM249.223 120.236C248.699 120.498 248.088 120.76 247.477 120.935C247.128 121.022 246.691 120.935 246.342 120.935C246.342 120.585 246.342 120.149 246.517 119.974C247.302 119.014 248.088 117.879 249.573 118.228C249.922 118.315 250.184 118.577 250.446 118.752C250.62 119.014 250.708 119.188 250.882 119.45C250.271 119.625 249.747 119.974 249.223 120.236ZM250.096 97.9703C249.835 97.9703 249.573 97.7083 249.311 97.5337C249.66 97.1844 250.009 96.8351 250.358 96.4859C250.446 96.3986 250.795 96.6605 250.97 96.8351C251.144 97.0098 251.232 97.2717 251.406 97.4464C250.97 97.621 250.533 97.8829 250.096 97.9703ZM252.541 113.425C252.192 113.425 251.843 113.076 251.494 112.814C251.843 112.378 252.192 111.854 252.629 111.504C252.716 111.417 253.24 112.028 253.938 112.552C253.327 112.989 252.978 113.425 252.541 113.425ZM258.916 141.018C258.654 141.978 258.654 142.065 256.558 141.105C257.082 140.843 257.431 140.581 257.78 140.406C258.304 140.144 258.828 139.97 259.439 139.795C259.265 140.144 259.09 140.581 258.916 141.018ZM258.566 124.427C257.868 124.253 256.733 123.816 256.645 123.467C256.558 122.681 256.995 121.459 258.217 121.721C258.828 121.808 259.265 122.681 260.051 123.467C259.265 123.991 258.916 124.427 258.566 124.427ZM259.265 121.022C259.09 121.022 258.828 120.498 258.654 120.149C259.177 119.887 259.701 119.625 260.225 119.538C260.487 119.538 260.837 119.887 261.535 120.411C260.487 120.76 259.963 120.935 259.265 121.022ZM257.955 116.394C257.693 116.307 257.518 115.958 257.344 115.696C256.82 114.997 256.383 114.211 255.772 113.6C255.685 113.513 255.248 113.6 255.161 113.687C254.899 114.386 254.462 114.735 254.026 114.037C253.851 113.687 254.2 112.552 254.462 112.465C256.558 112.203 258.654 112.028 260.749 112.028C261.098 112.028 261.448 113.076 261.535 113.251C261.71 115.172 259.439 116.831 257.955 116.394ZM262.758 112.028C262.234 111.504 261.71 110.981 261.273 110.369C261.186 110.282 261.884 109.758 262.408 109.147C262.932 109.758 263.631 110.195 263.631 110.544C263.631 111.068 263.107 111.592 262.758 112.028ZM263.369 107.313C263.194 106.877 263.107 106.44 262.932 106.003C263.281 105.916 263.718 105.654 263.98 105.741C264.329 105.829 264.678 106.178 265.464 106.615C264.417 106.964 263.893 107.139 263.369 107.313ZM264.504 98.1449C264.678 98.7561 264.766 99.3673 264.94 99.9786C264.591 99.8912 264.242 99.8039 263.805 99.8039C263.805 99.8039 263.805 99.8039 263.718 99.8039C263.456 101.114 262.234 100.764 261.797 100.502C260.313 99.7166 260.837 100.852 260.662 101.376C260.313 101.55 259.963 101.725 259.614 101.987C259.701 102.074 259.789 102.161 259.789 102.249C260.051 101.987 260.4 101.725 260.662 101.463C261.186 101.812 261.71 102.161 262.496 102.773C260.924 103.035 259.701 103.384 258.392 103.471C257.606 103.559 257.344 102.86 257.78 102.336C259.352 100.764 258.479 99.1054 258.042 97.5337C258.042 97.5337 258.042 97.5337 257.955 97.5337C257.955 97.5337 257.955 97.5337 257.955 97.4464C256.995 97.0098 255.336 94.5649 255.598 93.779C255.685 93.6044 256.383 93.3425 256.645 93.5171C257.693 94.1283 258.392 96.1366 257.955 97.4464C257.955 97.4464 257.955 97.4464 257.955 97.5337C259.352 98.2322 260.749 98.9307 262.146 99.542C262.496 99.7166 263.019 99.6293 263.456 99.6293C263.543 99.1054 263.543 98.5815 263.631 98.1449C264.155 98.2322 264.329 98.2322 264.504 98.1449Z" fill="#009484"/>
<path d="M133.965 52.2159C133.004 52.7398 133.179 53.089 133.354 53.8749C133.965 56.8437 135.799 59.1139 137.632 61.3842C137.894 61.7334 138.418 62.2573 138.855 62.17C140.688 61.9954 141.3 62.9559 141.911 64.4403C142.085 64.9642 143.046 65.4007 143.657 65.4007C144.705 65.4007 145.753 65.0515 146.888 64.9642C147.237 64.9642 147.674 65.1388 148.11 65.3134C147.761 65.6627 147.499 66.1866 147.15 66.4486C146.888 66.6232 146.364 66.5359 145.927 66.6232C147.761 67.0598 149.333 68.9808 151.516 67.4964C152.04 67.1471 152.651 67.3217 152.913 68.1949C153.087 68.7188 153.699 69.33 154.135 69.4173C156.231 69.6793 158.326 69.7666 160.509 69.9412C161.47 70.0286 161.994 69.592 161.906 68.5442C161.732 67.409 162.518 66.9725 163.391 66.9725C165.225 66.9725 166.884 66.5359 168.368 65.4007C169.154 64.8768 169.59 65.2261 169.503 66.0993C169.416 66.6232 169.241 67.1471 169.154 67.7583C169.154 67.7583 169.154 67.7583 169.066 67.8456C169.066 67.8456 169.154 67.8456 169.154 67.7583C170.114 67.8456 170.813 67.671 170.551 66.3612C170.464 65.9247 171.162 65.2261 171.686 64.8768C172.035 64.6149 172.734 64.8768 173.083 64.7022C173.432 64.5276 173.782 64.0037 173.782 63.6544C173.782 63.2178 173.52 62.6939 173.258 62.432C173.083 62.2573 172.472 62.432 172.21 62.6939C171.599 63.1305 170.987 63.7417 170.376 64.2656C170.202 64.1783 170.114 64.091 170.027 64.0037C170.289 62.9559 170.551 61.9954 170.9 60.9476C171.075 60.511 171.162 59.7251 171.424 59.7251C171.861 59.6378 172.472 59.8998 172.908 60.1617C173.869 60.7729 174.829 61.4715 175.79 62.0827C176.401 62.432 176.925 63.0432 176.75 63.829C177.624 63.4798 178.497 63.1305 179.37 62.6939C179.195 62.432 179.108 62.3446 179.021 62.17C178.933 61.7334 178.933 61.2968 178.846 60.8603C179.108 61.1222 179.37 61.3842 179.719 61.4715C180.243 61.7334 180.942 62.17 181.204 61.9954C183.037 60.8603 185.22 61.2095 186.967 61.1222C189.062 61.0349 189.062 59.8998 188.975 58.9393C188.887 57.1929 189.761 57.2803 190.896 57.3676C190.896 57.1929 190.896 57.0183 190.983 56.931C192.555 56.1451 193.253 55.0973 192.031 53.4383C191.944 53.2637 192.118 53.0017 192.118 52.7398C192.467 52.8271 192.991 52.9144 193.166 53.089C193.69 53.6129 194.127 54.2241 194.912 55.0973C194.738 55.7085 192.817 56.1451 194.476 57.4549C192.991 57.3676 191.944 57.3676 190.896 57.2803C190.721 58.2407 190.459 59.2012 190.285 60.1617C190.285 60.4237 190.546 60.9476 190.808 61.0349C192.206 61.6461 194.039 60.3364 195.349 61.9081C195.436 61.9954 196.135 61.7334 196.309 61.3842C196.571 60.9476 196.571 60.3364 196.746 59.8124C196.659 59.7251 196.571 59.7251 196.571 59.6378C196.659 59.6378 196.659 59.6378 196.659 59.6378C196.659 59.6378 196.746 59.7251 196.746 59.8124C197.008 60.249 197.27 60.6856 197.357 61.1222C197.532 61.6461 197.445 62.17 197.532 62.6066C198.056 62.432 198.58 62.3446 199.104 62.17C199.453 61.9954 199.802 61.7334 199.889 61.7334C199.54 60.7729 199.191 60.0744 198.929 59.3759C200.675 59.4632 202.684 58.6773 203.557 61.1222C203.644 61.3842 204.255 61.5588 204.692 61.7334C206.438 62.2573 208.185 62.7812 209.931 63.2178C211.328 63.5671 211.677 63.3051 211.677 61.9081C211.677 61.6461 211.59 61.3842 211.59 61.0349C211.503 57.9788 209.232 55.01 211.066 51.8666C211.153 51.692 210.891 51.3427 210.804 51.0807C210.28 50.0329 210.455 49.2471 211.852 48.6359C210.455 47.9373 209.232 47.4134 208.185 46.7149C207.224 46.1037 206.438 46.191 206.002 47.2388C205.478 48.4612 204.779 48.1993 203.993 47.588C203.12 46.8895 202.334 46.191 201.548 45.4924C200.937 47.0641 200.937 47.0641 201.985 48.0246C202.334 48.3739 202.858 48.7232 202.946 49.0724C203.819 51.43 206.176 50.5568 207.835 51.43C208.185 51.6046 208.621 51.5173 209.058 51.5173C208.796 51.9539 208.534 52.3905 208.272 52.7398C207.835 53.2637 207.399 53.6129 206.962 54.1368C207.399 54.5734 207.923 54.9227 208.621 55.5339C207.748 55.7085 206.962 55.5339 206.526 55.8832C206.089 56.2324 205.914 57.0183 205.652 57.6295C205.652 57.7168 206.089 58.0661 206.351 58.1534C207.573 58.4154 208.883 58.5027 210.193 58.6773C210.193 58.852 210.193 59.0266 210.193 59.2012C209.32 59.8125 207.661 59.6378 207.661 61.2968C207.661 61.3842 206.438 61.7334 205.827 61.5588C205.478 61.4715 204.954 60.4237 205.041 60.3364C206.613 58.7646 204.954 58.852 204.168 58.3281C203.557 57.8915 203.207 57.1929 202.771 56.669C203.295 56.4071 203.819 55.9705 204.43 55.7959C205.478 55.3593 205.827 54.5734 205.128 53.7002C204.517 53.0017 203.906 52.2159 203.207 51.7793C202.684 51.43 201.898 51.43 201.199 51.2554C201.112 51.8666 200.85 52.5651 200.85 53.1763C200.85 53.7876 201.461 54.8354 201.287 54.9227C199.627 56.0578 201.461 56.4071 201.723 56.8437C200.675 57.8042 199.802 58.6773 198.842 59.5505C198.405 59.4632 197.968 59.5505 197.619 59.3759C196.309 58.7646 196.397 58.5027 197.445 57.4549C198.318 56.5817 198.929 55.4466 199.54 54.3115C199.627 54.1368 199.366 53.7002 199.278 53.351C199.016 53.4383 198.667 53.4383 198.405 53.6129C197.968 53.9622 197.532 54.3115 197.095 54.7481C197.095 54.1368 197.095 53.5256 197.095 53.0017C197.095 52.9144 197.008 52.7398 196.921 52.6524C195.262 54.1368 194.301 54.0495 193.515 52.1285C192.991 50.9061 191.856 51.43 190.983 51.0807C190.459 50.9061 189.935 52.8271 190.459 53.6129C190.634 53.9622 190.896 54.6607 190.896 54.6607C190.11 55.0973 189.324 55.5339 188.451 55.7085C188.189 55.7959 187.752 54.9227 187.403 54.5734C187.228 55.1846 187.141 55.9705 186.879 56.7563C186.792 57.0183 186.443 57.2803 186.181 57.3676C186.093 57.3676 185.744 57.1056 185.657 56.8437C184.696 55.272 183.561 55.272 182.601 56.7563C182.077 57.4549 181.727 58.2407 181.291 58.9393C181.116 59.2012 180.767 59.2885 180.418 59.4632C180.33 59.2012 180.156 58.9393 180.068 58.7646C179.806 58.4154 179.632 57.9788 179.283 57.7168C178.933 57.5422 178.497 57.5422 178.06 57.5422C178.322 57.1929 178.497 56.7563 178.846 56.4944C179.894 55.5339 181.116 54.5734 180.418 53.1763C179.894 52.1285 179.37 51.2554 179.283 50.1202C179.283 49.5963 179.021 48.9851 179.195 48.6359C179.37 48.3739 180.156 48.1119 180.505 48.2866C181.029 48.5485 181.815 49.2471 181.727 49.509C181.204 50.9061 181.553 52.0412 182.601 53.089C182.775 53.2637 182.688 53.7876 182.688 54.1368C183.823 53.6129 184.784 54.2241 185.831 54.4861C185.919 54.4861 186.53 53.7002 186.443 53.2637C186.355 52.6524 186.006 52.0412 185.569 50.9934C186.53 51.43 187.054 51.6919 187.578 51.9539C187.316 49.509 187.316 49.509 185.22 50.2076C184.696 50.3822 184.172 50.3822 183.648 50.4695C184.085 49.4217 184.784 48.7232 185.482 48.1119C186.705 46.9768 187.228 46.9768 187.84 48.6359C188.364 50.0329 189.237 48.6358 189.761 49.0724C190.023 48.8105 190.285 48.4612 190.372 48.1993C190.896 46.7149 189.848 45.1432 190.11 44.008C190.721 41.9124 188.887 40.9519 188.887 39.2929C188.887 39.1183 188.626 38.9436 188.451 38.9436C186.967 39.031 185.482 37.0227 183.91 39.3802C184.347 37.7212 183.561 37.1973 182.426 36.848C180.942 36.4114 180.33 37.4593 179.545 38.4197C179.457 37.8958 179.632 37.4592 179.632 37.0227C179.632 36.6734 179.37 36.0622 179.195 35.9749C176.663 35.3636 174.131 34.7524 171.599 34.2285C172.21 36.0622 172.908 37.9832 173.52 39.8168C173.607 39.9914 173.432 40.428 173.345 40.5154C172.123 40.9519 172.385 41.6505 172.734 42.611C172.908 43.0476 173.083 44.27 171.773 44.0954C170.987 44.008 170.114 43.4841 169.416 43.5715C167.757 43.6588 168.368 41.9997 167.495 41.7378C165.923 41.3012 166.36 40.69 167.32 39.9914C167.669 39.7295 167.757 39.1183 167.931 38.6817C167.495 38.5944 167.058 38.4197 166.622 38.3324C166.447 38.2451 166.185 38.3324 166.01 38.3324C166.098 37.8958 166.185 37.5466 166.185 37.11C166.185 36.7607 166.36 36.2368 166.272 36.2368C165.923 36.1495 165.312 35.9749 165.137 36.1495C164.264 37.1973 163.391 37.0227 162.343 36.4988C161.994 36.3241 161.295 36.9353 160.771 37.11C160.946 37.4593 161.208 37.7212 161.383 38.0705C161.645 38.5944 161.906 39.031 161.994 39.5549C162.081 39.9041 162.256 40.5154 162.081 40.69C161.819 40.9519 161.295 40.9519 160.859 40.9519C160.597 40.9519 160.422 40.7773 160.16 40.69C160.16 41.0393 160.073 41.3885 160.16 41.6505C160.422 42.349 161.121 43.0476 161.121 43.7461C161.208 45.0558 161.47 45.7544 162.954 45.5797C163.304 45.5797 163.653 46.191 164.002 46.5402C163.565 46.7149 163.129 46.9768 162.605 47.0641C161.383 47.1515 160.073 47.1515 158.763 47.2388C158.065 47.2388 157.366 47.3261 156.667 47.3261C157.104 46.8895 157.628 46.4529 158.065 45.929C158.152 45.8417 158.239 45.7544 158.239 45.8417C157.977 44.9685 157.715 44.1827 157.453 43.3968C158.239 43.1349 158.938 42.8729 159.724 42.611C159.549 42.0871 159.2 41.5632 159.2 41.0393C158.938 39.1183 159.025 39.1183 157.017 39.1183C156.493 39.1183 155.882 39.3802 155.358 39.2929C154.834 39.2056 153.961 38.8563 153.961 38.6817C153.961 37.3719 153.175 37.8085 152.564 37.9832C151.865 38.1578 151.428 38.4197 151.865 39.3802C152.04 39.7295 151.865 40.3407 151.865 40.7773C151.341 40.5154 150.643 40.428 150.381 39.9914C150.031 39.3802 149.944 38.5071 148.984 38.8563C148.372 39.1183 146.975 38.769 147.586 40.3407C147.586 40.428 147.15 40.8646 147.063 40.8646C146.102 40.6027 145.054 41.3012 144.181 40.1661C143.919 39.8168 142.697 40.0788 141.911 40.1661C141.736 40.1661 141.736 41.0393 141.649 41.4758C141.562 42.349 141.736 42.7856 142.784 43.1349C144.094 43.4841 144.094 44.3573 142.959 45.3178C142.435 45.7544 142.085 46.2783 141.3 47.2388C141.3 46.1037 141.212 45.4924 141.3 44.7939C141.387 43.4841 141.212 42.1744 139.903 41.7378C138.767 41.3885 137.458 41.4758 136.584 42.611C136.934 42.6983 137.283 42.8729 137.72 42.9602C137.632 43.1349 137.458 43.2222 137.37 43.3968C137.108 43.1349 136.846 42.8729 136.584 42.611H136.497C134.402 43.7461 134.227 46.191 133.179 48.0246C132.917 48.5485 133.179 49.771 133.703 50.2076C134.751 51.0807 135.1 51.692 133.965 52.2159ZM136.846 57.7168C136.323 57.4549 135.886 57.0183 135.362 56.669C135.624 56.4944 135.973 56.1451 136.148 56.2324C136.672 56.4071 137.196 56.669 138.069 57.1056C137.37 57.4549 137.021 57.8042 136.846 57.7168ZM167.931 62.2573C167.669 62.432 166.971 62.432 166.884 62.2573C166.622 61.8207 166.622 61.2968 166.447 60.7729C166.796 60.8603 167.145 60.9476 167.495 61.0349C168.019 61.1222 168.543 61.0349 169.066 61.0349C169.066 61.1222 169.154 61.2968 169.154 61.3842C168.805 61.7334 168.455 62.0827 167.931 62.2573ZM169.59 59.5505C169.241 59.3759 168.892 59.2012 168.63 58.852C168.543 58.852 168.805 58.5027 168.979 58.2407C169.241 58.0661 169.503 57.8915 169.678 57.7168C169.852 58.1534 170.027 58.59 170.114 59.1139C170.114 59.2885 169.678 59.6378 169.59 59.5505ZM182.251 44.5319C181.989 44.5319 181.815 44.5319 181.553 44.5319C181.291 43.9207 180.942 43.3095 180.854 42.611C180.767 42.2617 181.204 41.8251 181.466 41.3885C181.815 41.6505 182.426 41.8251 182.513 42.0871C182.513 42.9602 182.339 43.7461 182.251 44.5319ZM182.863 51.692C182.863 51.5173 182.775 51.43 182.775 51.2554C182.775 51.168 183.037 51.168 183.125 51.168C183.125 51.2554 183.212 51.3427 183.212 51.5173C183.125 51.6046 183.037 51.6046 182.863 51.692ZM184.172 40.8646C184.347 39.7295 185.22 39.3802 186.355 39.6422C186.705 39.7295 187.228 40.428 187.141 40.6027C186.705 41.7378 187.403 42.1744 188.189 42.4363C188.887 42.7856 189.324 43.3095 188.626 43.6588C187.054 44.4446 188.189 44.7939 188.713 45.4051C188.975 45.7544 189.149 46.1037 189.324 46.5402C188.8 46.5402 188.189 46.8022 187.752 46.5402C187.228 46.191 186.879 45.5797 186.617 45.0558C185.831 43.3095 185.919 43.3095 184.347 43.9207C183.212 42.5236 182.164 41.1266 180.854 39.4675C182.164 39.9914 183.125 40.428 184.172 40.8646ZM180.68 38.5071C180.767 38.5944 180.767 38.769 180.767 38.8563C180.767 38.8563 180.68 38.9436 180.592 38.9436C180.592 38.8563 180.505 38.6817 180.505 38.5944C180.592 38.5944 180.68 38.5071 180.68 38.5071ZM178.671 39.4675C179.283 39.2929 180.068 38.8563 179.981 40.1661C179.894 41.0393 178.409 42.349 177.624 41.9997C177.1 41.8251 176.226 41.0393 176.314 40.6027C176.488 39.3802 177.362 38.8563 178.671 39.4675ZM177.012 43.6588C177.187 43.6588 177.536 43.9207 177.536 43.9207C179.195 41.3885 179.108 44.6193 179.981 44.6193C180.156 44.6193 180.243 44.8812 180.418 45.0558C181.116 46.7149 181.116 46.7149 179.283 47.0641C179.719 46.3656 180.068 45.7544 180.418 45.0558C179.195 44.9685 178.584 45.4924 178.671 46.8022C178.671 47.0641 178.322 47.3261 178.147 47.588C177.886 47.4134 177.624 47.1515 177.449 46.9768C177.012 46.4529 176.488 45.8417 176.226 45.2305C176.052 44.8812 175.965 44.3573 176.052 43.9207C176.052 43.8334 176.663 43.7461 177.012 43.6588ZM176.052 55.5339C176.314 55.4466 176.663 55.7959 177.187 55.9705C176.488 56.5817 176.226 56.7563 175.965 57.0183C175.79 56.7563 175.441 56.4944 175.441 56.3198C175.441 55.9705 175.79 55.6212 176.052 55.5339ZM172.21 44.7066C172.385 44.6193 172.646 44.7066 172.821 44.6193C173.432 44.4446 174.044 44.1827 174.655 44.008C174.655 44.1827 174.742 44.4446 174.655 44.5319C174.044 45.1432 173.432 45.6671 172.646 46.2783C172.123 45.8417 171.773 45.5797 171.511 45.4051C171.773 45.1432 171.948 44.8812 172.21 44.7066ZM174.829 49.509C174.917 49.5963 174.48 49.9456 174.306 50.2076C173.782 49.771 173.345 49.3344 172.908 48.8105C172.821 48.7232 173.17 48.2866 173.52 47.7627C174.044 48.4612 174.48 48.9851 174.829 49.509ZM169.066 46.191C169.503 45.8417 170.114 45.8417 170.638 45.6671C170.726 46.1037 170.813 46.5402 170.813 46.8895C170.813 47.85 172.646 50.3822 173.52 50.7315C174.131 50.9934 174.742 51.3427 175.266 51.6046C175.179 51.8666 175.091 52.0412 175.091 52.3032C173.956 52.0412 172.559 52.1285 171.773 51.5173C170.551 50.4695 169.678 48.8978 168.805 47.5007C168.717 47.1515 168.805 46.4529 169.066 46.191ZM167.582 47.9373C168.543 49.771 169.416 51.2554 170.376 52.9144C168.455 53.7002 168.455 53.7002 170.027 54.9227C170.202 55.0973 170.464 55.6212 170.376 55.6212C170.027 55.9705 169.59 56.2324 169.154 56.4071C168.979 56.4944 168.543 56.1451 168.455 55.9705C168.281 55.3593 168.019 54.7481 168.106 54.1368C168.281 53.2637 167.844 53.351 167.233 53.1763C166.272 53.0017 164.613 53.0017 166.098 51.2554C165.399 49.6837 167.233 49.3344 167.582 47.9373ZM165.923 38.2451C165.748 38.5944 165.574 38.9436 165.399 39.2056C165.05 38.8563 164.701 38.5071 164.351 38.1578C164.875 38.2451 165.399 38.2451 165.923 38.2451ZM161.033 49.509C161.208 49.509 161.557 49.8583 161.906 50.1202C161.383 50.4695 161.033 50.8188 160.771 50.8188C160.509 50.8188 160.335 50.2949 160.073 50.0329C160.335 49.8583 160.684 49.509 161.033 49.509ZM159.025 51.168C159.462 51.9539 159.811 52.6524 160.247 53.4383C161.033 53.1763 161.819 52.9144 162.605 52.6524C161.645 53.8749 161.033 54.8354 162.256 56.1451C162.343 56.2324 161.906 56.7563 161.732 57.0183C161.732 57.0183 161.732 57.0183 161.732 57.1056C162.343 57.5422 162.954 57.9788 163.653 58.4154C164.264 58.7646 165.399 59.0266 165.399 59.2885C165.312 60.249 165.137 61.7334 164.526 61.9954C162.78 62.6939 162.518 64.3529 161.645 65.5754C161.557 65.75 161.383 65.8373 160.859 65.8373C161.033 65.3134 161.295 64.7895 161.295 64.2656C161.295 63.5671 161.295 62.8686 161.033 62.2573C160.946 62.0827 160.073 62.2573 159.549 62.2573C158.85 62.2573 158.152 62.0827 157.453 62.17C157.017 62.2573 156.405 62.432 156.144 62.7812C155.969 63.0432 156.144 63.6544 156.405 64.0037C156.755 64.6149 157.191 65.1388 157.541 65.75C158.85 66.3612 158.85 67.409 158.676 68.5442C158.501 68.6315 158.326 68.6315 158.152 68.7188C157.89 67.7583 157.628 66.7978 157.366 65.9247C155.532 66.5359 154.048 66.4486 152.651 64.8768C151.166 63.3051 148.896 63.829 146.975 63.5671C146.451 63.4798 145.665 63.2178 145.665 63.0432C145.665 62.3446 145.927 61.5588 146.277 60.8603C146.364 60.6856 147.324 60.8603 147.761 61.1222C148.896 61.6461 149.944 62.3446 150.992 62.8685C152.04 63.3925 152.738 62.9559 153.175 61.9954C152.389 61.9954 151.69 61.9954 150.904 61.9954C150.817 61.8207 150.73 61.6461 150.73 61.5588C151.428 61.2095 152.214 60.8603 152.913 60.511C153 61.0349 153.087 61.5588 153.175 62.0827C153.524 61.9081 153.873 61.6461 154.135 61.6461C155.445 61.9081 156.056 61.1222 156.58 60.0744C156.755 59.7251 157.017 59.3759 157.541 58.7646C157.715 59.4632 157.715 59.8998 157.977 60.3364C158.152 60.6856 158.501 61.1222 158.676 61.1222C160.16 61.1222 161.645 60.9476 163.216 60.8603C163.216 60.6856 163.216 60.5983 163.216 60.4237C162.605 59.8998 161.994 59.2885 161.295 58.9393C160.946 58.7646 160.335 58.9393 159.898 58.852C159.374 58.7646 158.938 58.59 158.501 58.4154C158.763 58.0661 159.025 57.6295 159.374 57.3676C159.724 57.0183 160.073 56.8437 160.422 56.4071C159.549 56.4071 158.676 56.5817 158.676 55.272C158.676 55.01 157.803 54.7481 157.453 54.3115C157.104 53.9622 156.929 53.4383 156.667 52.9144C157.017 52.8271 157.453 52.7398 157.803 52.5651C158.152 51.9539 158.501 51.6046 159.025 51.168ZM157.366 48.4612C157.541 48.4612 157.715 48.3739 157.89 48.3739C157.977 48.8978 158.065 49.4217 158.152 49.9456C157.977 49.9456 157.715 50.0329 157.541 50.0329C157.541 49.509 157.453 48.9851 157.366 48.4612ZM153.437 40.1661C155.008 40.428 156.405 40.69 157.715 40.9519C157.89 40.9519 158.152 41.1266 158.152 41.3012C158.152 41.5632 158.065 41.9997 157.89 41.9997C156.667 42.349 155.445 42.9602 154.223 42.8729C153.611 42.7856 153.262 41.3012 152.738 40.428C153.087 40.3407 153.349 40.2534 153.437 40.1661ZM151.69 45.5797C151.778 46.3656 151.341 47.2388 151.079 48.0246C150.992 48.1993 150.468 48.2866 150.119 48.2866C150.031 48.2866 149.769 47.85 149.769 47.588C149.682 46.7149 149.769 45.7544 149.769 44.4446C150.643 44.9685 151.603 45.3178 151.69 45.5797ZM149.595 41.7378C150.119 43.2222 150.119 43.2222 148.372 44.27C148.809 43.4841 149.158 42.611 149.595 41.7378ZM147.063 53.7002C147.237 53.7876 147.324 53.8749 147.412 53.9622C147.324 54.1368 147.237 54.2241 147.15 54.3988C147.15 54.3988 146.888 54.3115 146.888 54.2241C146.888 54.0495 146.975 53.8749 147.063 53.7002ZM144.006 50.8188C144.356 52.1285 144.618 53.5256 145.054 54.7481C145.142 55.01 145.753 55.1846 146.102 55.1846C147.674 55.0973 147.936 55.3593 147.412 57.1056C147.848 57.0183 148.11 56.931 148.46 56.8437C150.031 56.4071 150.643 55.272 149.857 53.7876C149.595 53.089 148.809 52.3905 150.031 52.1285C150.643 51.9539 151.516 52.6524 152.214 53.0017C152.302 53.089 152.302 53.351 152.389 53.6129C152.476 55.4466 153.262 55.0973 154.223 54.2241C154.397 54.0495 154.659 53.8749 154.921 53.7876C155.096 53.7876 155.358 53.8749 155.445 54.0495C155.532 54.1368 155.532 54.5734 155.532 54.5734C154.397 54.9227 154.397 56.931 152.738 56.4944C152.564 56.4944 152.127 56.8437 152.04 57.1929C151.516 59.0266 150.992 59.2885 149.42 58.5027C148.722 58.1534 148.285 57.9788 147.936 58.7646C147.848 58.9393 147.586 59.0266 147.412 59.1139C146.102 59.2885 144.705 59.3759 142.697 59.5505C143.657 58.7646 144.268 58.1534 144.967 57.6295C144.356 56.669 143.744 55.6212 143.046 54.5734C141.649 52.3032 141.649 52.1285 144.006 50.8188ZM141.3 59.2012C141.562 59.8998 141.911 60.6856 142.173 61.3842C141.911 61.5588 141.562 61.7334 141.3 61.8207C140.776 61.1222 140.164 60.511 139.641 59.8124C140.164 59.6378 140.776 59.4632 141.3 59.2012ZM137.458 53.7876C137.72 54.4861 138.767 55.01 139.553 55.3593C140.601 55.7085 140.95 56.3198 141.125 57.3676C138.244 57.5422 137.458 54.5734 135.1 53.7876C136.061 53.2637 136.672 51.9539 137.458 53.7876Z" fill="#009484"/>
<path d="M216.306 65.7506C215.171 64.9647 213.424 64.2662 213.948 61.9959C211.678 63.0437 211.329 66.3618 208.36 65.5759C208.36 66.2745 208.534 66.973 208.273 67.4096C208.011 67.7589 207.225 67.6716 206.614 67.7589C207.749 69.5052 209.582 69.4179 211.241 69.9418C212.551 70.3784 214.297 70.1164 214.734 72.212C215.258 74.5696 215.782 74.7442 217.79 73.2599C218.052 73.0852 218.489 72.8233 218.576 72.5613C218.751 72.0374 219.013 71.4262 218.838 70.9023C218.663 70.1164 218.052 70.1164 217.179 70.1164C215.433 70.1164 213.686 69.5925 211.94 69.2433C211.765 69.0686 211.591 68.8067 211.416 68.5447C210.892 68.0208 210.368 67.4096 209.757 66.7111C211.154 66.2745 212.551 65.8379 213.861 65.5759C214.734 65.4013 215.083 65.8379 215.171 66.7984C215.258 67.3223 215.433 68.1081 215.869 68.3701C217.528 69.4179 219.886 68.5447 220.497 66.6237C220.584 66.4491 220.06 65.8379 219.886 65.8379C218.489 66.0998 218.489 65.314 218.576 64.3535C219.449 64.4408 220.41 64.6154 221.283 64.5281C221.719 64.5281 222.156 64.0042 222.593 63.655C221.894 62.7818 221.283 61.2101 220.584 61.1228C218.925 61.0354 218.663 59.7257 217.79 58.9398C217.266 58.5032 217.354 57.4554 217.179 56.6696C217.179 56.4949 217.615 56.1457 217.703 56.1457C218.401 56.5823 219.275 57.0189 219.536 57.6301C219.973 58.6779 220.497 59.2018 221.545 59.0272C221.981 58.9398 222.505 58.8525 222.942 58.7652C222.767 58.0667 222.767 57.1935 222.418 56.5823C221.894 55.7091 221.021 55.0979 220.497 54.2247C219.798 53.0896 217.877 51.9545 217.179 52.5657C216.917 52.8276 216.655 53.0023 216.393 53.2642C216.306 52.8276 216.218 52.391 216.131 51.9545C216.044 51.6925 216.044 51.3432 216.044 50.8193C215.694 51.1686 215.607 51.3432 215.52 51.5179C215.433 51.8671 215.433 52.3037 215.171 52.391C212.638 54.2247 212.464 56.7569 212.726 59.6384C212.813 61.0354 213.424 60.7735 214.21 60.8608C214.385 60.5989 214.559 60.4242 214.647 60.1623C214.734 60.2496 214.821 60.3369 214.909 60.4242C214.647 60.5989 214.472 60.6862 214.21 60.8608C214.821 61.0354 215.345 61.1228 215.956 61.2974C216.393 61.472 217.092 61.8213 217.092 61.9959C216.917 62.9564 217.004 63.3057 218.052 63.1311C218.139 63.1311 218.314 63.9169 218.489 64.3535C217.79 64.7901 217.528 66.5364 216.306 65.7506ZM215.258 58.6779C215.083 58.3286 214.734 58.0667 214.734 57.7174C214.821 57.1935 215.083 56.6696 214.21 56.4076C214.123 56.4076 214.21 55.4471 214.297 54.9232C214.297 54.7486 214.821 54.574 214.909 54.6613C215.258 54.9232 215.694 55.2725 215.869 55.6218C216.044 56.233 216.044 56.8442 216.131 57.892C215.956 58.0667 215.607 58.4159 215.258 58.6779Z" fill="#009484"/>
<path d="M272.887 113.425C272.8 113.6 271.664 112.988 270.966 112.639C270.617 112.464 269.918 111.94 269.918 111.94C268.958 113.076 268.434 111.853 267.648 111.504C267.56 112.028 267.211 112.814 267.299 112.901C268.87 113.861 268.259 116.481 270.442 116.918C271.49 118.14 272.45 118.14 273.411 116.918C272.45 116.918 271.49 116.83 270.529 116.83C270.529 115.433 271.49 115.695 272.363 115.608C273.411 115.52 273.411 116.219 273.411 116.918C273.935 117.267 274.546 117.965 274.982 117.965C276.292 117.791 277.078 116.044 278.737 116.656C278.912 115.695 280.047 115.084 279.348 113.861C278.301 112.028 277.951 111.679 276.554 112.202C275.506 112.639 273.935 112.028 272.887 113.425Z" fill="#009484"/>
<path d="M191.943 47.151C191.855 47.3256 191.943 47.7622 192.03 47.8495C192.205 47.9368 192.554 47.9368 192.816 47.8495C193.078 47.6749 193.34 47.4129 193.602 47.151C194.737 45.5793 195.785 45.5793 197.095 46.9764C197.706 47.5876 198.492 48.1115 199.277 48.6354C199.103 47.3256 198.492 46.3651 200.413 46.2778C200.5 46.2778 200.5 45.7539 200.587 45.492C200.675 45.23 200.762 44.7934 200.936 44.7061C201.373 44.6188 201.81 44.7061 202.683 44.7061C201.897 44.1822 201.635 43.9203 201.286 43.7456C200.413 43.309 199.539 42.5232 199.103 44.2695C199.015 44.6188 198.23 44.7934 197.706 45.0554C197.531 44.5315 197.356 43.9203 197.182 43.3963C196.92 43.4837 196.745 43.571 196.483 43.571C196.483 43.3963 196.571 43.2217 196.571 43.0471C196.745 43.1344 197.007 43.2217 197.182 43.309C197.356 42.9598 197.531 42.6105 197.706 42.2612C197.182 42.0866 196.396 41.65 196.221 41.8246C194.562 43.571 192.816 42.8724 190.72 41.9993C191.07 43.1344 191.07 44.0949 191.594 44.6188C192.379 45.492 192.816 46.1032 191.943 47.151Z" fill="#009484"/>
<path d="M228.443 76.2281C228.88 75.8789 229.578 75.5296 229.666 75.0057C230.102 73.7832 230.277 72.4735 230.626 70.8145C227.396 72.3862 226.959 72.7354 227.57 74.7437C227.658 75.355 228.094 75.7915 228.443 76.2281Z" fill="#009484"/>
<path d="M159.461 35.8C159.811 34.8395 160.422 34.403 161.47 34.403C161.906 34.403 162.43 33.9664 162.867 33.6171C162.43 33.4425 161.382 33.9664 161.906 32.7439C161.994 32.482 162.081 32.3073 162.168 32.0454C161.819 32.0454 161.382 31.8708 161.208 32.0454C160.073 32.9186 159.025 33.879 158.152 34.9269C157.977 35.1888 158.326 35.8873 158.414 36.3239C158.763 36.1493 159.374 36.062 159.461 35.8Z" fill="#009484"/>
<path d="M231.497 91.9454C230.1 90.461 230.1 90.461 227.131 90.0244C228.79 93.5171 228.877 93.5171 231.497 91.9454Z" fill="#009484"/>
<path d="M278.736 119.101C280.308 119.538 281.618 119.887 283.015 120.324C282.404 119.101 281.88 117.879 281.181 116.395C280.221 117.355 279.609 118.054 278.736 119.101Z" fill="#009484"/>
<path d="M282.931 120.235L283.018 120.323V120.235H282.931Z" fill="#009484"/>
<path d="M275.683 119.013C275.333 119.362 274.984 119.886 274.984 120.41C274.984 120.672 275.595 121.108 275.945 121.108C277.167 121.108 278.389 120.934 279.612 120.846C278.564 120.235 277.691 119.711 276.818 119.275C276.468 119.013 275.857 118.838 275.683 119.013Z" fill="#009484"/>
<path d="M206.44 64.8773C206.091 64.4407 205.48 63.7422 205.305 63.7422C204.694 64.0915 204.17 64.7027 203.646 65.1393C203.996 65.4012 204.257 65.7505 204.607 66.0124C204.956 66.2744 205.393 66.6237 205.742 66.8856C205.742 66.9729 205.829 67.0602 205.829 67.0602C205.829 67.0602 205.916 67.0602 206.004 67.0602C205.916 66.9729 205.829 66.8856 205.742 66.8856C205.916 66.449 206.004 66.0124 206.178 65.5758C206.266 65.3139 206.528 64.9646 206.44 64.8773Z" fill="#009484"/>
<path d="M29.4504 63.2178C28.4026 64.8768 27.5294 66.0992 26.7436 67.3217C28.228 66.5358 29.6251 65.5753 29.4504 63.2178Z" fill="#009484"/>
<path d="M275.945 111.068C276.294 111.156 276.731 110.981 277.08 110.806C277.255 110.719 277.255 110.195 277.08 109.933C276.643 109.235 276.207 108.623 275.683 107.925C275.596 108.623 275.421 109.409 275.334 110.108C275.421 110.457 275.683 110.981 275.945 111.068Z" fill="#009484"/>
<path d="M225.215 63.5667C223.817 60.6853 223.817 60.6853 222.508 61.4711C223.468 62.1697 224.341 62.8682 225.215 63.5667Z" fill="#009484"/>
<path d="M170.904 40.9515C170.904 40.3403 171.166 39.7291 170.992 39.2052C170.817 38.8559 170.206 38.594 169.857 38.332C169.769 38.7686 169.42 39.2925 169.595 39.7291C169.769 40.253 170.206 40.6023 170.555 41.0389C170.642 41.0389 170.817 41.0389 170.904 40.9515Z" fill="#009484"/>
<path d="M197.619 50.2082C198.143 52.0419 199.278 50.6448 200.064 50.5575C201.548 50.4701 201.373 49.7716 200.5 48.8984C200.064 50.6448 198.754 50.1209 197.619 50.2082Z" fill="#009484"/>
<path d="M252.719 81.2048C252.806 80.6809 253.156 80.0697 252.981 79.5458C252.894 79.1965 252.108 79.1092 251.671 78.9346C251.846 79.6331 252.02 80.2443 252.195 80.9429C252.37 81.0302 252.544 81.1175 252.719 81.2048Z" fill="#009484"/>
<path d="M243.721 90.6359C243.634 89.7627 243.634 88.9769 243.547 88.2783C243.198 88.3656 242.674 88.3656 242.586 88.5403C242.15 89.5008 242.586 90.112 243.721 90.6359Z" fill="#009484"/>
<path d="M169.329 33.7046C169.416 33.4427 169.154 33.0934 169.067 32.7441C168.805 32.8315 168.63 32.8315 168.368 32.8315C168.194 33.0934 167.844 33.4427 167.932 33.7046C168.019 34.0539 168.456 34.3158 168.718 34.5778C168.98 34.3158 169.242 34.0539 169.329 33.7046Z" fill="#009484"/>
<path d="M268.872 107.4C268.697 107.4 268.61 107.4 268.435 107.4C268.523 107.75 268.61 108.099 268.697 108.448C268.697 108.448 268.959 108.448 269.046 108.448C269.046 108.099 268.959 107.75 268.872 107.4Z" fill="#009484"/>
<path d="M246.17 93.8662C245.909 94.1282 245.734 94.3901 245.472 94.6521C245.821 94.5647 246.17 94.3901 246.52 94.3028C246.345 94.1282 246.258 93.9535 246.17 93.8662Z" fill="#009484"/>
<path d="M196.22 50.1208C196.657 50.1208 197.094 50.1208 197.53 50.2081C197.094 50.0334 196.744 49.9461 196.308 49.7715C196.22 49.8588 196.22 50.0334 196.22 50.1208Z" fill="#009484"/>
<path d="M239.621 76.8389V76.9262H239.709L239.621 76.8389Z" fill="#009484"/>
<path d="M275.684 107.924C275.684 107.924 275.772 107.924 275.684 107.924C275.772 107.924 275.772 107.924 275.684 107.924C275.597 107.749 275.422 107.662 275.248 107.487C275.422 107.662 275.597 107.749 275.684 107.924Z" fill="#009484"/>
<path d="M171.338 33.792C171.425 33.8793 171.425 33.8793 171.512 33.8793V33.792C171.425 33.8793 171.338 33.8793 171.338 33.792Z" fill="#009484"/>
<path d="M232.374 67.4971V67.5844L232.462 67.4971H232.374Z" fill="#009484"/>
<path d="M163.128 33.3555C163.041 33.4428 163.041 33.4428 163.041 33.5301H163.128C163.128 33.4428 163.128 33.4428 163.128 33.3555Z" fill="#009484"/>
<path d="M163.042 33.5303H162.955V33.6176L163.042 33.5303Z" fill="#009484"/>
<path d="M200.329 48.7236C200.417 48.811 200.417 48.811 200.504 48.8983C200.504 48.811 200.504 48.811 200.417 48.811C200.417 48.7236 200.417 48.7236 200.329 48.7236Z" fill="#009484"/>
<path d="M200.5 48.8984V48.9858H200.587L200.5 48.8984Z" fill="#009484"/>
<path d="M168.285 68.3699C168.372 68.2826 168.372 68.2826 168.459 68.1953C168.459 68.1953 168.372 68.1953 168.372 68.2826C168.372 68.2826 168.372 68.3699 168.285 68.3699Z" fill="#009484"/>
<path d="M168.455 68.1944C168.455 68.1944 168.543 68.1944 168.455 68.1944C168.63 68.0198 168.717 67.9324 168.892 67.7578C168.804 67.9324 168.63 68.0198 168.455 68.1944Z" fill="#009484"/>
<path d="M20.1017 71.3377C20.1891 71.2504 20.1891 71.2504 20.2764 71.1631C20.1891 71.1631 20.1891 71.1631 20.1891 71.1631C20.1017 71.2504 20.1017 71.3377 20.1017 71.3377Z" fill="#009484"/>
<path d="M161.472 56.9307C161.559 57.018 161.559 57.018 161.647 57.1053C161.647 57.1053 161.647 57.018 161.559 57.018C161.559 56.9307 161.559 56.9307 161.472 56.9307Z" fill="#009484"/>
</svg>
