<svg width="690" height="816" viewBox="0 0 690 816" fill="none" xmlns="http://www.w3.org/2000/svg">
<path d="M287.573 0.000785872C55.0461 -2.13627 -121.439 182.541 -124.998 400.165C-128.734 636.31 60.7392 816.001 281.88 816.001C509.781 815.645 688.223 632.926 690.002 412.275C691.959 181.295 508.18 2.13784 287.573 0.000785872ZM543.05 673.352C470.997 744.409 382.932 778.424 281.702 780.561C178.693 778.602 89.2046 742.094 16.6178 668.009C-54.1899 595.528 -89.5937 507.374 -89.2379 406.22C-88.7042 303.285 -51.1654 214.419 22.133 142.471C96.4988 69.4552 187.232 34.1937 291.665 36.1527C486.297 39.5364 657.445 199.638 654.243 415.124C652.641 515.744 614.747 602.651 543.05 673.352Z" fill="#EFF0F3"/>
<path d="M545.005 179.87C543.759 178.267 542.692 176.486 541.447 174.884C541.091 175.062 540.913 175.24 540.557 175.596C540.913 177.911 541.447 180.048 545.005 179.87C544.293 181.117 542.87 182.541 543.226 183.076C545.361 186.459 542.158 185.391 540.735 185.747C543.581 189.131 545.894 192.158 551.587 191.268C548.385 193.939 546.606 194.295 543.759 192.693C541.091 191.09 537.711 190.377 534.508 189.665C532.729 189.309 530.772 189.131 531.484 186.637C531.84 185.213 532.017 182.363 535.042 183.966C535.398 184.144 536.287 183.61 536.999 183.432C534.33 181.295 537.355 180.939 538.244 179.87C539.667 178.089 539.134 176.486 537.533 175.418C536.643 174.884 535.042 175.062 533.797 174.884C533.974 176.13 534.33 177.377 534.508 178.624C534.508 178.98 534.508 179.158 534.508 178.802C533.085 180.048 531.484 180.939 530.772 182.363C530.06 183.61 529.705 184.857 528.103 184.144C527.214 183.788 526.324 182.363 526.324 181.651C526.502 180.761 527.748 179.87 528.637 179.158C529.527 178.445 530.416 177.911 531.484 177.377C531.662 177.021 531.839 176.665 532.195 176.486C532.195 176.486 532.017 176.308 531.839 176.308C531.662 176.665 531.662 177.021 531.484 177.555C527.57 177.377 527.57 177.377 529.171 174.171C530.06 172.39 529.527 171.5 527.57 171.5C526.146 171.5 524.545 171.322 524.901 169.185C525.079 168.651 524.901 167.938 524.723 167.226C524.012 167.404 522.944 167.582 522.41 167.938C521.699 168.651 520.631 169.719 520.631 170.788C520.453 173.459 518.852 174.171 515.828 173.993C517.963 176.13 519.208 178.089 516.717 180.226C516.361 180.583 516.006 182.007 516.361 182.363C516.717 182.898 517.785 182.898 518.496 182.898C519.92 182.898 521.343 182.72 522.766 182.541C522.944 184.857 522.055 187.706 525.969 187.884C526.324 187.884 527.214 188.953 527.036 189.309C526.858 190.021 526.324 190.734 525.613 191.09C524.367 191.624 522.944 191.98 521.521 192.158C519.564 192.336 518.141 192.693 519.208 195.364C519.92 197.145 518.496 197.679 517.073 197.323C514.76 196.967 513.871 195.364 514.227 193.049C513.337 193.049 512.447 193.049 511.558 193.049C510.668 190.555 509.779 188.418 506.221 189.309C504.264 189.843 501.951 188.418 500.172 188.062C501.239 185.747 503.196 183.432 502.84 181.829C501.951 178.089 505.153 177.021 506.043 174.528C506.221 174.171 508 173.815 508.356 174.171C511.558 177.021 513.159 175.24 514.404 172.212C514.76 171.5 516.006 170.61 516.006 170.075C515.472 166.692 516.184 164.911 519.386 162.952C519.742 162.774 519.92 162.061 520.098 161.527C516.717 161.171 516.184 159.39 517.251 156.541C517.251 156.541 516.361 156.006 515.828 155.65C512.803 154.047 511.202 151.376 512.803 148.705C514.049 146.568 512.981 146.033 511.914 145.143C510.846 144.253 509.957 143.362 508.711 142.828C508 142.472 506.576 142.294 506.043 142.828C505.153 143.718 504.442 144.965 506.576 145.677C507.288 145.855 507.644 146.924 508.178 147.458C507.288 147.814 506.576 148.17 505.687 148.705C505.153 149.061 504.442 149.773 504.619 150.129C505.153 152.266 505.865 154.225 506.221 156.184C506.399 156.719 506.043 157.609 505.687 158.143C504.62 159.568 501.061 159.746 499.46 158.5C497.681 156.897 499.282 155.65 500.172 154.404C500.35 154.225 500.705 154.047 500.705 153.691C500.883 152.979 500.883 152.445 500.883 151.732C500.35 151.91 499.638 152.088 499.104 152.088C498.037 152.088 497.147 152.088 496.08 152.088C495.546 148.349 499.104 149.595 500.883 148.17C500.35 147.102 499.994 145.855 498.926 143.54C497.325 145.855 496.258 147.28 495.19 148.883C494.835 148.705 494.301 148.349 493.945 148.17C494.479 146.924 494.657 145.321 495.546 144.431C498.037 142.115 493.945 142.115 494.479 140.691C494.834 139.444 498.393 138.198 499.816 138.554C500.35 138.732 501.239 138.376 501.773 138.376C500.528 137.129 499.638 135.526 498.215 134.636C496.969 133.745 495.368 133.567 495.012 135.882C494.834 136.417 494.301 136.951 493.945 137.485C493.411 136.951 492.878 136.595 492.522 136.06C490.031 132.499 487.718 128.759 485.405 125.375C484.694 126.266 484.16 127.156 483.448 128.047C482.737 126.444 482.381 125.553 482.381 124.663C482.381 123.06 478.467 118.964 476.866 119.32C476.688 119.32 476.332 119.498 476.154 119.676C475.265 121.101 473.841 122.882 474.019 124.129C474.197 125.197 476.51 126.088 477.933 126.8C478.645 127.156 479.356 127.156 480.602 127.334C479.534 128.581 478.645 129.471 478.289 130.362C477.933 131.252 477.933 132.499 478.289 133.211C479.89 136.06 479.89 135.882 476.866 136.417C475.62 136.595 474.553 137.129 473.308 137.485C472.596 137.663 471.706 137.485 471.173 137.307C469.927 136.595 468.682 134.458 467.437 136.773C466.547 138.554 462.989 140.691 466.903 143.006C467.437 143.362 467.97 144.253 468.504 144.431C470.283 144.965 472.062 145.677 473.841 145.321C474.375 145.143 477.044 143.718 475.976 141.403C475.798 140.869 476.866 139.266 477.577 138.91C479.712 138.019 481.847 137.307 482.915 134.992C483.092 134.458 485.049 134.636 486.295 134.814C487.184 134.992 488.252 135.526 488.608 136.06C489.675 137.841 490.031 140.156 490.565 142.472C489.497 142.472 488.43 142.65 487.54 142.294C487.007 142.115 487.006 140.691 486.473 140.156C485.583 139.444 484.338 138.732 483.27 138.554C482.737 138.376 482.025 139.444 481.491 140.156C482.203 140.691 482.737 141.403 483.448 141.937C485.761 143.362 487.184 145.143 485.583 147.992C485.227 148.705 485.227 149.417 485.049 150.486C487.007 149.595 488.608 148.705 490.209 147.992C491.276 150.129 486.473 149.951 489.141 152.088C485.583 151.732 486.829 154.938 485.939 156.541C485.405 157.253 484.16 157.787 483.448 157.609C481.491 157.075 480.424 157.609 480.068 159.568C479.89 160.28 479.179 161.171 478.645 161.705C478.111 162.061 477.399 162.239 476.866 162.239C476.688 162.239 476.332 161.349 476.332 160.815C476.332 160.102 476.51 159.39 476.688 158.321C475.087 159.034 473.841 159.568 472.774 160.102C472.596 160.459 472.596 160.815 472.418 161.171C472.24 160.993 471.884 160.815 472.062 160.815C472.24 160.459 472.418 160.28 472.596 159.924C472.952 159.034 473.307 157.965 473.485 157.075C473.663 155.828 473.841 154.404 473.663 153.157C473.663 152.623 472.952 152.088 472.596 151.554C472.062 152.088 471.173 152.801 471.173 153.335C471.173 154.76 471.528 156.363 471.706 157.787C470.105 155.472 464.946 157.787 466.013 153.335C464.412 153.691 462.633 154.76 461.921 154.404C459.075 152.088 457.829 154.225 456.406 156.006C458.363 158.321 460.142 160.459 461.921 162.774C462.989 161.171 464.234 159.39 465.657 157.431C467.792 159.034 468.326 160.28 467.259 162.596C466.369 164.733 465.657 167.76 466.369 170.075C467.259 172.569 469.571 174.706 471.351 177.021C472.062 175.774 472.774 174.528 473.485 173.459C475.976 175.24 478.467 177.021 481.135 178.98C484.694 177.555 484.338 173.637 483.804 169.719C483.626 168.116 483.804 166.514 483.804 164.911C487.007 167.76 486.829 167.76 486.651 171.678C486.651 172.747 487.184 173.815 487.54 174.884C489.141 179.336 491.988 183.61 487.184 187.884C486.829 188.24 486.651 189.131 486.651 189.843C486.473 191.802 486.117 193.761 486.117 195.898C486.117 196.61 487.54 198.035 487.896 197.857C489.675 197.145 491.454 197.145 491.632 199.104C491.81 200.706 494.657 203.2 490.743 204.268C490.209 204.446 489.675 205.337 489.675 206.049C489.319 209.789 486.473 211.036 483.982 212.995C482.915 213.885 481.313 214.597 480.958 215.666C480.78 216.378 482.381 217.625 483.093 218.337C482.381 219.05 481.491 219.94 480.602 221.009C481.669 221.721 482.737 222.433 483.804 222.789C485.761 223.502 487.896 224.036 489.853 224.748C489.675 225.283 489.497 225.817 489.319 226.351C486.117 225.639 482.915 224.926 479.712 224.214C479.179 225.461 478.823 226.707 478.111 227.776C477.577 228.488 476.688 229.022 475.976 229.557C475.442 228.666 474.375 227.776 474.197 226.885C474.019 225.817 474.731 224.748 475.087 223.68C475.976 221.365 476.866 218.871 477.577 216.556C477.221 216.2 476.866 216.022 476.688 215.666C474.375 217.269 472.24 218.871 469.927 220.296C469.216 220.118 467.97 219.762 466.903 219.94C464.59 220.474 462.455 221.365 460.32 222.077C446.443 225.817 432.566 227.954 419.223 219.762C417.622 218.871 416.733 219.228 416.555 221.009C416.021 227.42 416.555 233.475 420.291 238.995C422.248 241.845 424.561 244.338 427.051 246.653C429.008 248.434 429.898 249.681 427.407 251.64C424.738 253.777 422.248 256.27 419.579 258.407C406.77 268.202 393.071 270.161 378.838 261.969C372.967 258.585 367.452 254.489 361.759 250.927C355.176 246.653 348.594 242.557 342.011 238.461C340.054 237.215 338.453 237.393 336.496 238.995C332.76 242.023 328.846 244.694 324.754 247.187C316.57 252.352 307.852 256.092 297.712 254.845C291.663 254.133 285.792 252.886 279.743 251.818C274.05 250.927 268.535 251.284 264.087 254.845C261.596 256.982 260.529 255.914 259.639 253.955C257.326 248.79 255.191 243.448 252.879 238.105C251.633 238.817 249.854 239.53 248.253 240.42C240.425 244.516 232.063 247.009 223.168 246.119C217.831 245.585 212.315 244.516 207.156 242.735C201.107 240.776 195.414 240.598 189.365 242.201C183.85 243.448 178.335 244.338 172.642 244.338C166.415 244.338 160.366 243.27 154.139 242.379C147.023 241.489 140.618 243.091 134.925 247.366C130.833 250.571 127.275 254.489 123.539 258.051C121.404 260.188 119.091 262.147 116.601 263.928C115.533 264.818 113.754 264.818 112.331 265.174C111.975 263.572 110.73 261.613 111.263 260.366C112.509 256.626 114.11 252.708 116.245 249.503C119.803 244.16 122.116 238.461 122.827 232.228C123.539 227.064 122.294 222.077 118.024 218.337C114.11 214.954 109.84 215.844 105.57 217.803C103.435 218.871 100.767 219.05 98.4538 219.584C98.2759 219.228 98.098 218.871 97.9201 218.693C100.411 214.241 101.834 209.789 101.478 204.624C101.122 199.816 97.9201 196.61 93.1166 196.432C86.7119 196.254 82.0862 199.816 78.1722 204.09C68.5652 214.775 64.6512 227.42 65.7186 241.667C66.2523 248.968 68.7431 252.53 75.5036 254.667C76.3932 255.023 77.1048 255.201 77.9943 255.558C81.1967 257.339 81.9083 259.832 79.9513 263.037C77.2827 267.311 74.792 271.764 71.4117 275.504C67.8535 279.6 66.0744 283.339 69.4547 288.148C69.9884 288.86 70.1663 290.107 70.3442 290.997C71.7675 298.655 71.4117 305.778 65.007 311.299C61.8046 313.971 60.5593 317.71 59.4918 321.45C58.6023 325.012 57.8906 328.752 56.8232 332.314C56.1115 334.629 55.5778 337.3 52.5534 338.903C52.3755 324.834 51.6638 311.299 55.5778 297.943C56.4674 295.271 57.179 292.6 55.222 289.751C54.3325 288.504 54.1545 286.367 54.3325 284.764C54.6883 279.778 55.5778 274.791 55.9336 269.627C56.4674 261.791 54.8662 254.133 52.0196 246.653C48.9952 238.461 47.394 230.269 48.1056 221.543C48.4615 216.378 48.8173 211.214 50.0627 206.049C50.9522 201.953 50.5964 199.104 46.8603 197.145C46.8603 197.145 47.0382 196.61 47.0382 196.432C48.2836 196.61 49.1731 196.789 49.7068 196.789C51.8417 196.789 52.1976 195.898 53.0871 192.514C54.1546 188.775 55.5778 185.035 56.4674 181.295C56.6453 180.404 59.4918 177.733 55.3999 177.911C55.3999 177.911 55.0441 176.665 55.222 175.952C55.3999 174.884 55.7557 173.815 56.1115 172.569C56.4674 172.212 56.6453 172.034 57.0011 171.678C58.0685 171.144 60.0255 170.788 60.3814 169.897C62.8721 163.13 65.1849 156.363 67.1419 149.417C67.4977 147.992 68.7431 145.321 65.5407 144.609C65.5407 143.362 65.3628 142.294 65.3628 140.335C64.8291 141.937 64.4733 142.65 64.2953 143.362C63.9395 143.006 63.5837 142.828 63.4058 142.472C63.2279 141.047 63.05 139.444 62.8721 138.019C62.5163 137.841 62.3384 137.663 61.9825 137.485C60.9151 138.732 59.4918 139.8 58.9581 141.403C58.2465 143.184 57.7127 144.253 55.5778 143.362C55.3999 143.362 54.8662 144.253 54.5104 144.787C54.5104 144.787 54.5104 144.787 54.6883 144.787C55.0441 145.321 55.3999 146.033 55.9336 146.568C55.0441 146.746 54.1546 147.102 53.265 147.102C50.2406 147.28 46.8603 151.02 47.5719 154.047C47.9277 155.828 46.8603 156.541 45.437 156.363C41.8788 155.828 39.7439 157.965 37.609 160.28C35.2962 162.774 32.8055 165.089 30.4927 167.404C27.6461 170.431 24.7996 173.459 22.131 176.843C20.5298 178.802 19.6403 181.117 18.217 183.254C17.6833 184.144 17.1495 185.391 16.4379 185.569C13.0576 186.103 13.0576 188.418 13.0576 190.912C13.0576 192.871 12.7018 194.651 9.85527 193.049C9.49945 192.871 7.89828 193.583 7.72037 194.117C7.00874 196.789 5.58546 198.391 3.27265 200.172C0.426109 202.309 -1.70879 205.871 -3.48788 209.077C-5.08906 212.104 -9.35887 214.063 -7.75769 218.515C-7.75769 218.515 -8.29142 218.871 -8.64724 219.05C-12.7391 222.077 -15.7636 225.639 -15.7636 230.981C-15.7636 231.516 -16.2973 231.872 -16.6531 232.228C-17.5427 232.94 -18.788 233.475 -19.1439 234.365C-19.8555 236.68 -23.5916 237.927 -21.6346 241.311C-26.0823 243.448 -26.616 248.078 -28.7509 251.64C-31.0637 255.38 -32.6649 259.654 -34.6219 263.75C-36.401 267.846 -38.1801 271.942 -39.9592 276.038C-41.7383 280.134 -43.3394 284.408 -44.7627 288.504C-46.186 292.422 -47.0755 296.518 -48.6767 300.436C-51.5232 308.094 -53.6581 316.108 -55.6151 324.122C-60.0629 342.287 -63.4431 360.808 -64.5106 379.685C-65.2222 391.795 -66.6455 403.905 -65.4001 416.015C-64.3327 427.591 -63.9769 439.345 -62.5536 450.92C-61.4861 460.893 -59.885 470.866 -57.7501 480.839C-52.4128 505.237 -44.7627 528.745 -34.444 551.54C-24.3032 573.801 -12.2054 594.816 2.3831 614.405C9.32154 623.844 16.7937 632.748 24.6217 641.653C29.2473 646.995 34.5846 651.626 39.7439 656.612C39.7439 656.078 39.9219 655.544 39.7439 655.188C36.5416 642.721 35.4741 630.077 35.8299 617.433C35.8299 614.227 34.4067 609.241 39.9219 607.638C40.2777 607.46 40.6335 606.213 40.6335 605.323C40.4556 603.364 40.2777 601.227 39.9219 599.268C37.787 584.308 39.566 569.527 41.1672 554.746C42.5905 541.923 43.8358 529.279 45.2591 516.457C45.7928 511.648 46.1487 506.662 47.5719 502.032C49.8847 494.374 49.8847 486.894 47.0382 479.593C41.3451 464.277 40.0998 448.427 40.0998 432.221C40.0998 427.591 40.8114 422.96 40.8114 418.33C40.8114 409.96 40.2777 401.59 40.0998 393.22C40.0998 388.946 39.3881 384.137 40.9893 380.397C43.48 374.699 44.3696 369.178 44.3696 363.123C44.3696 356.712 47.0382 351.547 52.3755 347.451C55.222 345.136 57.8906 342.108 59.4918 338.903C62.6942 332.136 64.8291 324.834 67.8535 318.067C70.1663 312.902 73.1908 307.916 76.3931 303.107C78.1722 300.258 81.7304 299.723 84.5769 300.97C87.4235 302.217 89.3805 304.71 89.5584 308.094C89.5584 309.162 89.3805 310.231 89.7363 311.121C90.27 312.902 90.9817 314.505 91.5154 316.108C93.1166 315.217 94.7177 314.505 96.141 313.436C99.8771 310.231 102.012 309.875 106.104 312.724C113.932 317.888 118.913 325.19 122.472 333.738C125.496 341.04 129.232 347.273 134.925 352.794C138.839 356.534 142.041 361.164 144.71 365.972C148.09 371.671 150.759 377.904 153.25 383.959C157.697 394.288 161.434 404.617 161.078 416.193C160.9 423.673 158.587 430.084 153.072 435.249C151.115 437.029 149.336 438.988 148.09 441.125C143.821 447.893 145.6 453.948 152.894 456.975C155.563 458.222 157.342 460.003 158.231 462.852C159.121 465.702 159.654 468.729 160.722 471.579C164.458 482.442 172.464 490.1 180.826 497.223C189.187 504.525 198.261 511.292 206.267 518.772C214.806 526.786 219.254 537.115 218.542 549.225C217.831 560.979 211.96 567.924 200.218 567.746C192.034 567.746 186.341 570.952 182.249 577.719C177.801 585.021 173.531 592.5 169.084 599.624C166.059 604.432 162.323 608.528 157.164 611.556C147.201 617.255 137.594 615.83 127.987 610.131C125.14 608.35 122.116 606.926 119.091 605.857C113.576 604.076 110.73 606.035 109.662 611.734C109.128 614.227 108.773 616.72 105.926 617.789C99.5213 620.282 92.7607 621.351 86.0002 619.57C82.6199 618.679 79.5955 616.008 76.2152 614.227C74.9699 613.515 73.1908 612.446 72.4792 612.981C71.5896 613.515 70.878 615.474 70.878 616.72C70.878 619.036 71.4117 621.351 71.7675 623.488C72.1233 626.159 72.6571 628.83 72.835 631.68C72.835 632.748 72.1233 634.173 71.2338 634.885C70.7001 635.242 69.0989 634.529 68.2093 633.995C66.964 633.104 66.0744 631.68 64.8291 630.611C63.5837 629.543 61.9825 629.009 60.5593 628.118C60.2035 629.543 59.6697 630.967 59.3139 632.392C59.3139 632.57 58.9581 632.57 58.2465 633.104C56.8232 630.255 55.3999 627.584 53.7987 624.734C53.4429 624.022 52.5534 623.666 52.0196 623.132C51.6638 623.844 50.7743 624.556 50.7743 625.269C50.7743 626.693 51.1301 628.118 51.308 629.543C52.0196 633.995 51.1301 635.598 46.8603 636.31C47.0382 641.118 48.2836 645.393 47.5719 649.311C46.8603 652.872 46.6824 656.434 45.9707 659.818C45.2591 663.023 46.5045 664.448 48.4615 666.051C53.4429 670.325 58.4244 674.421 63.4058 678.517C80.8409 692.942 99.6992 705.23 119.803 715.916C146.667 730.163 175.133 740.848 204.843 747.615C220.321 751.177 235.977 754.026 251.811 754.917C257.148 755.273 262.486 755.807 267.823 755.807C281.522 755.807 295.221 755.985 308.92 755.451C317.993 755.095 326.889 753.492 335.962 752.246C341.655 751.355 347.348 750.465 352.863 748.684C358.734 746.725 364.249 743.519 369.943 741.026C376.881 737.999 380.973 733.012 382.396 725.532C384.887 711.998 387.733 698.285 390.58 684.75C391.47 680.476 390.758 676.914 388.267 673.709C384.353 668.722 382.04 663.023 380.617 656.968C377.593 644.324 370.654 634.885 358.201 630.077C349.483 626.693 340.41 623.844 331.514 620.816C314.257 614.761 300.38 604.432 290.773 588.761C282.589 575.226 279.921 560.445 282.767 544.595C285.258 531.238 291.485 520.197 301.092 510.936C305.006 507.196 307.674 502.922 309.454 497.936C310.343 495.442 311.589 492.949 312.834 490.456C315.503 485.648 320.128 482.62 324.754 479.771C347.882 465.167 371.01 450.564 394.316 436.317C404.457 430.084 414.953 423.851 425.628 418.508C437.726 412.275 450.713 410.494 463.878 414.59C471.173 416.906 478.289 419.933 485.227 423.317C499.282 430.084 513.337 437.208 527.214 444.153C534.33 447.715 541.447 451.277 548.563 454.838C550.698 455.907 551.587 456.975 550.52 459.469C545.539 470.688 543.937 482.442 545.894 494.552C547.673 506.128 551.943 516.279 560.483 524.293C568.133 531.594 573.648 532.485 583.077 527.676C590.905 523.758 599.089 521.978 607.629 525.361C609.586 526.074 610.653 525.539 611.187 523.58C615.279 508.977 619.371 494.374 623.285 479.771C624.352 476.031 623.996 475.853 619.904 476.565C619.726 476.565 619.371 476.387 619.015 476.031C625.242 455.194 623.285 435.605 609.052 417.974C607.807 422.782 607.273 427.591 606.561 432.399C604.604 443.797 602.647 455.194 600.69 466.592C600.334 468.551 599.623 469.441 598.022 469.976C591.439 472.469 582.721 469.442 578.985 463.387C577.562 461.071 577.562 459.112 579.875 457.332C582.721 455.016 585.212 452.523 588.059 450.208C590.194 448.427 590.727 446.468 590.016 443.975C585.746 427.235 581.298 410.494 577.206 393.576C576.495 390.727 575.249 389.836 572.047 389.836C564.041 389.836 556.035 390.014 548.207 388.768C538.778 387.343 529.705 384.315 520.453 382.178C517.429 381.466 514.227 381.11 511.202 381.288C505.153 381.644 501.417 385.74 497.859 390.014C495.19 393.22 492.522 396.425 489.675 399.453C486.473 402.837 482.025 404.083 477.755 403.549C467.792 402.302 460.854 396.782 457.652 386.809C454.093 376.123 453.738 365.082 454.627 354.218C455.517 344.067 460.498 340.328 470.995 340.15C475.442 340.15 479.89 339.971 484.338 340.15C491.276 340.328 496.791 343.355 500.705 349.232C502.485 352.081 504.442 354.753 506.576 357.246C510.313 361.698 515.116 362.411 520.098 359.561C524.545 357.068 526.858 352.972 528.281 348.342C530.238 341.752 528.993 335.341 527.214 329.108C525.969 324.656 527.036 324.834 530.594 323.409C538.244 320.56 545.894 319.669 554.078 320.204C565.108 320.916 575.961 321.094 586.991 322.341C594.819 323.231 602.469 325.546 610.119 327.327C612.254 327.861 614.389 328.752 615.635 325.012C616.346 329.642 616.702 329.82 621.505 329.286C621.15 328.04 617.769 327.327 620.616 325.368C620.972 325.19 620.794 323.943 620.438 323.231C617.414 315.751 617.769 307.025 612.432 300.258C612.076 299.902 612.432 299.189 612.254 298.655C612.076 297.23 612.254 295.806 611.721 294.559C609.941 289.394 607.984 284.408 606.027 279.243C605.494 277.819 604.426 276.75 603.715 275.325C603.181 274.257 603.003 273.01 602.469 271.764C601.58 269.449 601.224 265.887 599.623 264.996C597.132 263.572 597.488 262.147 597.666 259.832C594.641 261.256 591.795 262.503 589.66 264.64C588.237 266.243 587.881 266.599 586.635 264.818C586.28 264.284 585.568 264.106 584.856 263.75C584.678 264.462 584.323 264.996 584.145 265.709C583.789 266.777 583.967 268.024 583.255 268.914C582.544 269.805 581.298 270.339 580.231 270.873C580.053 269.627 579.519 268.558 579.519 267.311C579.697 262.859 584.323 261.969 586.102 258.585C586.28 258.229 587.703 258.229 588.059 258.585C590.727 260.9 592.862 258.941 595.175 258.229C595.531 258.051 595.887 257.517 596.065 256.982C595.531 256.982 594.997 257.16 594.641 256.982C592.151 256.27 590.727 253.777 591.439 251.105C592.151 248.79 591.795 246.831 590.016 245.229C590.016 245.941 590.194 246.653 590.016 247.366C589.304 249.503 587.347 251.284 588.77 253.777C588.77 253.955 588.059 254.845 587.703 254.845C586.991 254.845 585.924 254.489 585.924 254.133C585.39 250.749 584.323 250.749 582.366 253.242C582.188 253.599 581.476 253.599 580.942 253.599C580.942 253.064 580.586 252.352 580.764 251.996C581.298 251.284 582.01 250.571 582.544 249.859C579.875 248.968 575.961 250.927 575.249 253.421C575.071 254.133 574.36 254.845 573.826 255.558C573.648 254.845 573.648 253.955 573.292 253.242C572.936 252.352 572.581 250.571 572.225 250.571C569.022 250.571 565.82 250.215 562.974 251.284C559.949 252.352 557.814 252.53 556.035 250.037C555.146 251.105 554.434 252.53 553.367 252.886C551.409 253.599 551.054 251.462 549.986 250.393C547.14 247.544 548.385 243.804 547.495 240.42C546.784 238.461 549.63 236.502 551.943 237.393C553.366 237.749 554.612 238.283 555.857 239.174C556.391 239.53 557.103 240.598 556.925 241.132C556.747 241.667 555.679 242.379 555.146 242.379C554.078 242.201 553.011 241.489 551.943 241.311C551.409 241.311 550.876 241.845 550.164 242.201C551.409 244.16 551.409 247.187 554.612 247.366C556.925 247.544 559.415 247.9 561.906 247.722C563.507 247.544 565.998 246.653 566.176 245.763C566.354 244.16 565.642 242.023 564.397 240.954C562.44 239.174 559.771 238.105 557.458 236.68C555.857 235.612 554.434 234.365 552.833 233.119C554.79 232.406 556.925 232.05 557.103 231.338C557.636 227.598 554.256 230.981 553.011 229.201C554.434 228.31 555.679 227.598 557.814 226.351C555.679 226.529 554.612 226.529 552.655 226.707C553.9 225.639 554.612 224.57 555.146 224.57C557.103 224.748 557.28 223.68 557.28 222.255C557.28 220.474 557.814 218.515 557.103 217.091C555.146 213.529 559.593 211.392 558.526 208.364C558.526 208.364 559.237 207.83 559.593 207.83C560.483 207.83 561.906 207.83 561.906 208.186C562.44 209.433 562.974 211.392 562.44 212.104C560.127 214.419 564.931 215.31 563.329 217.269C564.753 218.159 566.176 219.228 567.599 220.118C568.311 220.652 568.667 221.187 569.378 221.721C568.667 222.077 567.777 222.255 567.243 222.789C566.532 223.502 565.286 224.926 565.464 225.105C566.71 226.351 568.133 227.42 569.556 228.488C569.556 228.488 570.09 228.31 570.268 227.954C570.624 225.639 571.691 223.146 571.157 221.187C570.09 217.803 572.047 218.337 574.004 218.337C574.36 218.515 574.538 218.871 574.893 219.05C574.716 218.693 574.36 218.515 574.182 218.159C573.826 217.091 573.648 215.844 572.936 214.954C572.047 213.707 570.268 211.748 569.912 212.104C566.71 213.885 567.243 211.392 567.065 209.789C566.888 208.72 567.243 207.652 566.888 206.761C566.354 205.515 565.464 204.268 564.397 203.2C564.219 203.022 562.796 203.912 561.906 204.268C560.839 204.624 559.771 204.624 558.704 204.981C558.526 204.624 558.348 204.268 557.992 204.09C561.017 203.378 562.44 201.775 560.839 199.282C558.526 195.542 555.857 192.158 553.189 188.596C553.011 188.418 551.943 188.596 551.409 188.775C548.919 190.199 547.495 188.775 545.894 186.459C547.673 186.103 548.919 185.925 551.232 185.569C548.563 183.254 546.784 181.651 545.005 179.87ZM522.588 182.541C522.588 182.541 522.41 182.541 522.232 182.72C522.41 182.541 522.41 182.541 522.588 182.363C522.588 182.363 522.588 182.363 522.588 182.541ZM506.576 168.294C508.889 165.979 510.313 162.774 510.135 160.28C510.135 159.568 509.957 158.856 510.313 158.143C510.668 157.609 511.202 156.897 511.736 156.897C512.27 156.897 512.981 157.609 513.159 158.143C513.871 159.39 511.024 169.719 509.779 170.61C509.067 170.966 508.178 171.322 507.466 171.322C506.932 171.322 506.043 170.788 505.865 170.253C505.865 169.719 506.221 168.829 506.576 168.294ZM479.89 170.788C479.001 169.541 478.111 168.473 477.399 167.048C477.399 167.048 478.289 165.979 478.467 166.157C479.712 166.87 480.78 167.76 482.381 168.829C480.958 170.075 480.424 170.431 479.89 170.788ZM485.049 162.952C483.804 163.842 482.381 164.198 480.78 164.555C480.602 164.733 479.89 164.02 479.89 163.486C479.89 162.952 480.246 162.418 480.78 162.061C482.203 161.349 483.804 160.815 485.761 160.102C485.405 161.349 485.583 162.596 485.049 162.952ZM61.4488 146.39C62.8721 145.677 64.4733 145.499 66.0744 145.321C65.007 146.746 64.1174 148.349 62.8721 149.595C62.5163 149.951 61.2709 149.417 60.3814 149.239C60.9151 148.17 60.9151 146.746 61.4488 146.39ZM51.308 167.048C53.4429 168.651 55.3999 170.431 57.3569 172.034C57.0011 172.39 56.8232 172.569 56.4674 172.925C55.222 173.637 54.1545 174.528 52.9092 175.24C52.3755 175.596 51.1301 175.952 50.5964 175.596C49.8847 175.24 49.1731 173.993 49.351 173.103C49.7068 171.144 50.5964 169.363 51.308 167.048ZM10.0332 229.379C8.60992 228.844 7.18665 228.488 5.94128 227.776C5.58546 227.598 5.40755 226.885 5.05173 226.351C5.58546 226.173 6.47501 225.461 6.83082 225.817C8.25409 226.529 9.49946 227.598 10.7448 228.488C10.389 228.666 10.2111 229.022 10.0332 229.379ZM13.4135 214.775C13.0576 210.858 12.7018 207.118 12.1681 203.556C12.1681 203.556 12.1681 203.556 12.1681 203.378C11.9902 203.2 11.6344 202.844 11.4565 202.665C11.6344 202.487 11.8123 202.487 11.9902 202.309C11.9902 202.665 12.1681 203.022 12.1681 203.378C12.1681 203.378 12.1681 203.378 12.1681 203.556C16.0821 205.693 16.7937 210.679 13.4135 214.775ZM36.3637 183.254C36.0079 183.076 35.652 182.363 35.4741 182.007C35.83 181.651 36.3637 181.117 36.8974 181.117C39.2102 180.583 40.4556 181.829 40.8114 185.569C39.2102 184.857 37.7869 184.144 36.3637 183.254ZM39.7439 172.034C38.1428 171.678 36.5416 170.788 35.1183 170.075C35.1183 170.075 35.1183 169.363 35.2962 169.363C36.8974 169.185 38.6765 169.007 40.4556 169.007C40.9893 169.007 41.3451 169.897 42.0568 170.61C40.9893 171.144 40.2777 172.034 39.7439 172.034ZM430.965 242.201C428.83 240.776 427.407 238.995 428.652 236.146C430.076 237.393 431.677 238.283 432.744 239.53C433.278 240.064 433.1 241.311 433.1 242.201C432.389 242.201 431.499 242.557 430.965 242.201ZM451.603 230.269C450.179 230.091 448.934 228.666 447.689 227.776C449.468 227.064 451.069 226.173 453.026 225.639C453.382 225.461 454.271 226.529 455.695 227.776C453.738 229.022 452.492 230.447 451.603 230.269ZM612.61 312.546C612.788 312.368 613.678 313.08 614.211 313.436C613.678 314.149 612.966 315.039 612.076 316.108C611.543 315.395 611.009 314.861 611.009 314.683C611.543 313.792 612.076 313.08 612.61 312.546ZM564.753 287.079C564.931 286.723 565.642 286.723 566.176 286.723C566.354 288.504 566.532 290.107 566.532 291.888C564.219 290.641 563.329 289.038 564.753 287.079ZM577.384 292.244C577.028 293.49 576.139 294.381 575.249 296.162C574.36 294.559 573.47 293.312 573.114 292.066C572.936 291.175 573.114 289.572 573.47 289.394C574.538 289.216 575.961 289.216 577.028 289.751C577.384 289.929 577.562 291.353 577.384 292.244ZM588.948 311.477C588.237 310.765 587.347 310.053 586.991 309.162C586.813 308.806 588.237 307.916 589.304 307.025C589.838 307.916 590.727 308.806 590.549 309.162C590.372 310.053 589.482 310.587 588.948 311.477ZM597.666 308.628C597.132 308.45 596.598 308.45 596.065 308.272C596.598 306.669 596.954 304.888 597.488 303.285L598.555 303.463C598.199 305.244 598.022 306.847 597.666 308.628ZM609.764 323.231C608.874 324.122 608.162 324.656 607.629 325.368C607.095 324.834 606.027 323.943 606.205 323.765C606.561 322.875 607.451 322.163 608.162 321.45C608.518 321.806 609.052 322.341 609.764 323.231ZM606.383 297.765C606.739 298.121 607.273 298.655 607.984 299.367C607.273 300.08 606.739 300.436 606.205 300.97C605.85 300.436 605.138 299.902 605.138 299.545C605.138 298.833 605.85 298.299 606.383 297.765ZM603.359 282.449C603.893 284.23 604.426 285.476 604.604 286.545C604.604 286.901 603.537 287.257 603.003 287.792C602.647 286.901 601.936 285.833 601.936 284.942C601.58 284.408 602.469 283.696 603.359 282.449ZM594.285 276.928C594.285 276.75 596.065 277.106 596.065 277.106C596.065 278.531 596.065 279.956 595.887 281.559C595.709 281.38 595.887 281.559 595.887 281.559C597.132 282.093 598.2 282.627 599.445 283.161C598.733 283.696 598.022 284.408 597.31 284.586C595.531 284.764 593.396 285.12 592.862 282.449C592.684 282.093 592.684 281.559 592.684 281.202C593.218 279.778 593.574 278.175 594.285 276.928ZM593.752 286.545C594.108 286.367 595.175 287.435 595.175 287.97C595.353 288.504 594.463 289.216 593.93 290.285C593.04 289.394 592.151 288.86 592.151 288.148C592.151 287.435 593.04 286.545 593.752 286.545ZM583.433 279.778C583.611 279.065 584.5 278.531 585.034 277.997C585.746 276.928 586.102 275.682 586.813 274.435C588.237 275.504 589.66 276.572 591.083 277.641C591.261 277.819 591.261 278.175 591.261 278.531C591.083 278.887 591.261 279.421 590.905 279.6C588.948 281.202 589.304 282.983 590.016 285.12C590.194 285.833 589.304 287.435 588.414 287.792C586.635 288.504 586.102 287.613 586.635 286.011C586.635 285.655 585.924 284.942 585.39 284.764C584.678 284.408 583.433 287.079 583.077 284.408C582.899 282.983 583.077 281.38 583.433 279.778ZM578.807 309.518C578.807 308.628 578.274 307.559 578.63 306.847C579.519 305.422 580.586 304.176 577.74 304.176C577.562 304.176 577.384 302.929 577.562 302.395C577.562 301.326 577.74 300.258 578.096 299.367C578.452 298.477 578.985 297.586 579.519 296.874C580.409 297.586 581.12 298.299 582.01 299.189C581.654 299.367 581.298 299.723 580.942 299.902C581.298 300.97 581.832 302.039 582.01 303.107C582.188 304.71 582.544 306.669 582.188 308.094C581.832 308.806 579.875 309.162 578.807 309.518ZM574.538 276.038C575.249 275.147 576.139 274.257 577.028 274.079C578.63 274.079 580.231 274.613 581.832 275.147C581.12 276.394 580.231 277.641 579.519 278.887C578.985 279.778 578.096 280.668 577.918 281.737C577.74 284.23 576.317 284.586 573.826 284.586C573.114 284.23 572.047 283.874 570.979 283.161C570.624 282.983 570.624 281.915 570.802 281.38C571.869 279.421 573.114 277.641 574.538 276.038ZM550.164 259.297C552.121 258.407 554.256 256.626 556.391 258.941C559.237 261.791 562.618 261.791 566.176 261.078C570.624 260.01 570.624 260.188 570.268 264.64C570.268 265.531 570.802 266.599 571.513 268.736C569.378 267.49 567.777 267.133 566.71 266.065C565.108 264.284 563.507 264.462 561.728 265.352C559.771 266.421 560.127 268.202 560.483 269.983C560.661 270.873 561.194 271.586 561.194 272.476C561.372 273.366 561.55 274.791 561.194 274.969C560.305 275.503 558.882 275.682 557.992 275.325C556.213 274.435 554.612 273.01 552.833 271.764C554.256 271.229 555.679 270.695 557.458 270.161C556.925 268.736 556.569 267.311 555.857 266.065C554.79 264.106 553.722 261.969 550.698 262.681C549.986 262.859 549.097 261.969 548.207 261.435C549.097 260.722 549.453 259.654 550.164 259.297ZM537.355 203.022C537.533 203.912 537.533 204.624 537.711 205.337C536.643 205.337 535.398 205.337 534.33 205.337C534.33 204.802 534.152 204.446 534.152 203.912C535.22 203.734 536.287 203.378 537.355 203.022ZM528.459 210.858C530.06 211.214 531.84 212.46 533.085 212.104C535.576 211.392 537.533 211.926 539.49 213.351C540.379 213.885 541.98 213.707 542.692 214.241C543.581 214.954 544.115 216.378 544.827 217.447C543.937 217.269 542.87 217.269 541.98 216.913C540.201 216.022 538.778 215.31 538.6 218.337C538.6 218.871 537.711 219.584 537.177 220.118C536.465 219.762 535.931 219.406 535.931 219.228C535.576 215.31 532.195 215.666 529.705 214.597C528.637 214.063 527.57 213.529 526.858 212.816C526.502 212.282 526.68 211.392 526.502 210.501C527.036 210.501 527.748 210.679 528.459 210.858ZM543.582 224.392C542.336 225.105 541.447 225.817 541.091 225.639C540.379 225.461 540.023 224.392 539.845 223.68C539.667 223.324 540.379 222.611 540.735 222.077C541.447 222.789 542.336 223.324 543.582 224.392ZM511.024 193.049C510.846 193.049 510.846 193.049 511.024 193.049C511.736 194.651 512.625 196.076 513.159 197.679C513.871 199.46 513.159 200.528 511.38 200.706C509.601 201.063 508.889 199.816 509.245 198.391C509.779 196.61 507.644 193.939 511.024 193.049ZM502.129 193.405C502.485 193.405 503.018 195.542 502.662 196.254C502.129 197.145 500.883 197.501 499.282 198.569C500.706 198.926 501.773 198.926 502.129 199.46C502.485 199.994 502.307 201.063 502.485 201.953C501.773 201.775 501.239 201.597 500.528 201.597C498.926 201.241 497.325 200.885 495.724 200.35C496.08 199.282 496.436 198.035 496.614 196.967C496.791 195.898 496.614 193.761 496.969 193.583C498.748 193.049 500.528 193.049 502.129 193.405ZM498.215 215.488C498.571 215.31 498.749 214.954 499.104 214.597C499.282 214.419 499.638 214.419 499.994 214.419C500.706 216.022 501.595 217.803 502.129 219.406C502.307 220.118 501.773 221.187 501.417 222.077C500.528 221.899 499.638 221.721 498.926 221.187C498.393 221.009 498.037 220.474 497.681 220.118C493.767 217.091 493.767 217.269 498.215 215.488ZM493.945 212.638C495.012 211.748 495.902 210.501 497.147 209.967C497.681 209.789 498.926 210.858 499.816 211.57C499.816 211.926 499.816 212.282 499.816 212.638C498.215 213.173 496.792 213.707 495.19 214.063C494.835 213.885 494.301 212.995 493.945 212.638ZM494.479 173.637C495.012 173.103 495.724 172.39 496.792 171.322C498.037 172.747 499.104 173.815 499.994 174.884C499.46 175.418 498.571 176.308 498.393 176.308C496.969 175.596 495.902 174.528 494.479 173.637ZM498.037 186.281C497.503 186.103 496.792 185.925 496.08 185.747C496.258 184.144 496.08 182.541 496.614 181.117C496.791 180.761 499.104 181.117 500.35 181.295C499.638 182.898 498.748 184.5 498.037 186.281ZM495.902 159.212C497.859 158.856 501.239 161.705 500.883 163.308C500.706 164.02 499.994 164.733 498.926 165.979C497.147 164.198 495.546 162.774 494.301 161.171C494.479 160.993 495.368 159.212 495.902 159.212ZM495.19 152.088C495.012 153.691 495.012 155.294 494.479 156.719C494.301 157.431 493.055 157.609 492.344 158.143C491.81 157.431 491.098 156.541 491.098 155.828C491.098 153.157 492.7 152.088 495.19 152.088ZM489.853 169.007C489.675 169.007 489.319 168.116 489.497 167.938C490.387 167.404 491.276 166.692 492.344 166.335C493.233 166.157 494.123 166.335 495.724 166.335C494.834 167.404 494.301 168.651 493.589 168.829C492.344 169.185 490.921 169.007 489.853 169.007ZM503.552 241.132C502.485 241.845 501.239 242.735 499.994 243.27C499.46 243.626 498.215 243.982 498.215 243.804C495.368 240.064 491.988 242.913 488.786 242.913C485.939 242.913 485.761 242.735 486.651 239.886C487.54 236.68 489.675 233.653 488.43 229.913C488.252 229.201 489.319 227.42 490.209 227.064C492.522 226.173 492.344 228.666 493.411 229.735C494.479 230.803 494.301 231.872 492.878 232.406C490.387 233.297 490.743 235.256 491.276 237.036C491.81 238.995 493.411 238.995 495.012 239.174C497.859 239.352 500.706 239.708 503.552 240.064C503.552 240.598 503.552 240.954 503.552 241.132ZM505.865 266.599C505.865 266.421 505.687 266.421 505.687 266.243C504.264 264.818 503.374 263.394 505.331 261.256C505.509 262.859 505.687 264.462 505.687 266.243C505.865 266.421 506.043 266.599 506.043 266.599H505.865ZM510.846 226.173C513.871 227.954 514.227 229.557 512.27 232.228C511.024 233.831 510.49 234.365 508.178 232.228C503.73 227.776 503.73 223.858 506.399 218.515C508 215.31 510.135 212.816 513.515 212.46C513.515 212.282 513.515 212.282 513.337 212.104C512.625 210.679 509.957 209.967 511.736 208.008C512.447 207.474 514.76 208.542 516.184 208.899C517.251 207.652 518.852 206.227 520.275 204.624C520.275 204.624 520.275 204.624 520.275 204.446C520.453 203.734 520.631 202.309 520.987 202.309C521.877 202.131 522.944 202.487 523.834 202.844C524.189 203.022 524.189 204.268 524.189 204.268C523.3 204.624 522.41 204.803 521.521 204.981C521.165 204.981 520.809 204.802 520.275 204.624C520.275 205.515 520.453 206.583 520.098 207.474C519.386 209.433 519.386 210.679 521.877 211.036C522.41 211.214 523.3 212.104 523.3 212.816C523.3 213.529 522.588 214.419 521.877 214.775C521.521 214.954 520.275 214.241 520.098 213.529C519.386 212.104 518.496 211.926 517.073 212.282C515.828 212.638 514.582 212.46 513.337 212.46C512.981 214.597 513.515 216.022 516.184 215.666C517.073 215.488 517.963 215.844 518.674 216.2C519.208 216.556 519.92 217.091 519.92 217.625C519.92 218.159 519.208 219.05 518.674 219.05C517.073 219.228 515.828 219.406 516.539 221.543C516.539 221.543 514.938 222.611 514.76 222.433C513.515 221.543 510.846 222.967 510.846 220.118C510.846 219.584 511.024 219.228 511.024 218.515C507.822 220.296 507.644 224.214 510.846 226.173ZM524.367 232.762C522.232 234.543 519.386 235.79 517.963 233.119C516.361 230.091 517.785 228.132 521.521 230.091C522.41 230.625 523.3 231.872 524.367 232.762ZM521.343 245.229C520.275 245.763 519.03 246.297 517.785 246.653C517.073 246.831 516.184 246.653 515.472 246.653C515.472 245.941 515.472 245.05 515.828 244.694C517.429 242.735 519.03 240.42 522.055 241.132C522.766 241.311 523.3 241.845 523.834 242.201C524.189 242.735 524.367 243.091 524.723 243.626C523.478 243.982 522.41 244.694 521.343 245.229ZM523.122 199.816C522.588 199.816 522.055 199.282 521.521 198.926C522.232 198.213 522.944 197.501 523.656 196.789C523.834 196.61 524.545 197.145 524.901 197.501C525.257 197.857 525.435 198.391 525.791 198.748C524.901 199.104 524.012 199.638 523.122 199.816ZM528.103 231.338C527.392 231.338 526.68 230.625 525.969 230.091C526.68 229.201 527.392 228.132 528.281 227.42C528.459 227.242 529.527 228.488 530.95 229.557C529.705 230.447 528.993 231.338 528.103 231.338ZM541.091 287.613C540.557 289.572 540.557 289.751 536.287 287.792C537.355 287.257 538.066 286.723 538.778 286.367C539.845 285.833 540.913 285.476 542.158 285.12C541.802 285.833 541.447 286.723 541.091 287.613ZM540.379 253.777C538.956 253.421 536.643 252.53 536.465 251.818C536.287 250.215 537.177 247.722 539.667 248.256C540.913 248.434 541.802 250.215 543.404 251.818C541.802 252.886 541.091 253.777 540.379 253.777ZM541.802 246.831C541.447 246.831 540.913 245.763 540.557 245.05C541.625 244.516 542.692 243.982 543.759 243.804C544.293 243.804 545.005 244.516 546.428 245.585C544.293 246.297 543.226 246.653 541.802 246.831ZM539.134 237.393C538.6 237.215 538.244 236.502 537.888 235.968C536.821 234.543 535.931 232.94 534.686 231.694C534.508 231.516 533.619 231.694 533.441 231.872C532.907 233.297 532.017 234.009 531.128 232.584C530.772 231.872 531.484 229.557 532.017 229.379C536.287 228.844 540.557 228.488 544.827 228.488C545.539 228.488 546.25 230.625 546.428 230.981C546.784 234.899 542.158 238.283 539.134 237.393ZM548.919 228.488C547.851 227.42 546.784 226.351 545.894 225.105C545.716 224.926 547.14 223.858 548.207 222.611C549.275 223.858 550.698 224.748 550.698 225.461C550.698 226.529 549.63 227.598 548.919 228.488ZM550.164 218.871C549.808 217.981 549.63 217.091 549.275 216.2C549.986 216.022 550.876 215.488 551.409 215.666C552.121 215.844 552.833 216.556 554.434 217.447C552.299 218.159 551.232 218.515 550.164 218.871ZM552.477 200.172C552.833 201.419 553.011 202.665 553.367 203.912C552.655 203.734 551.943 203.556 551.054 203.556C551.054 203.556 551.054 203.556 550.876 203.556C550.342 206.227 547.851 205.515 546.962 204.981C543.937 203.378 545.005 205.693 544.649 206.761C543.937 207.118 543.226 207.474 542.514 208.008C542.692 208.186 542.87 208.364 542.87 208.542C543.404 208.008 544.115 207.474 544.649 206.94C545.716 207.652 546.784 208.364 548.385 209.611C545.183 210.145 542.692 210.858 540.023 211.036C538.422 211.214 537.888 209.789 538.778 208.72C541.98 205.515 540.201 202.131 539.312 198.926C539.312 198.926 539.312 198.926 539.134 198.926C539.134 198.926 539.134 198.926 539.134 198.748C537.177 197.857 533.797 192.871 534.33 191.268C534.508 190.912 535.931 190.377 536.465 190.734C538.6 191.98 540.023 196.076 539.134 198.748C539.134 198.748 539.134 198.748 539.134 198.926C541.98 200.35 544.827 201.775 547.673 203.022C548.385 203.378 549.452 203.2 550.342 203.2C550.52 202.131 550.52 201.063 550.698 200.172C551.765 200.35 552.121 200.35 552.477 200.172Z" fill="#EFF0F3"/>
<path d="M286.503 106.497C284.546 107.566 284.902 108.278 285.258 109.881C286.503 115.936 290.24 120.566 293.976 125.197C294.509 125.909 295.577 126.978 296.466 126.799C300.202 126.443 301.448 128.402 302.693 131.43C303.049 132.498 305.006 133.389 306.251 133.389C308.386 133.389 310.521 132.676 312.834 132.498C313.546 132.498 314.435 132.854 315.325 133.211C314.613 133.923 314.079 134.992 313.368 135.526C312.834 135.882 311.767 135.704 310.877 135.882C314.613 136.772 317.815 140.69 322.263 137.663C323.331 136.951 324.576 137.307 325.11 139.088C325.465 140.156 326.711 141.403 327.6 141.581C331.87 142.115 336.14 142.293 340.588 142.649C342.545 142.827 343.612 141.937 343.434 139.8C343.078 137.485 344.68 136.594 346.459 136.594C350.195 136.594 353.575 135.704 356.6 133.389C358.201 132.32 359.09 133.033 358.912 134.813C358.734 135.882 358.379 136.951 358.201 138.197C358.201 138.197 358.201 138.197 358.023 138.375C358.023 138.375 358.201 138.375 358.201 138.197C360.158 138.375 361.581 138.019 361.047 135.348C360.869 134.457 362.293 133.033 363.36 132.32C364.072 131.786 365.495 132.32 366.207 131.964C366.918 131.608 367.63 130.539 367.63 129.827C367.63 128.937 367.096 127.868 366.562 127.334C366.207 126.978 364.961 127.334 364.428 127.868C363.182 128.758 361.937 130.005 360.691 131.074C360.336 130.896 360.158 130.717 359.98 130.539C360.514 128.402 361.047 126.443 361.759 124.306C362.115 123.416 362.293 121.813 362.826 121.813C363.716 121.635 364.961 122.169 365.851 122.703C367.808 123.95 369.765 125.375 371.722 126.621C372.967 127.334 374.035 128.58 373.679 130.183C375.458 129.471 377.237 128.758 379.016 127.868C378.66 127.334 378.482 127.156 378.304 126.799C378.127 125.909 378.126 125.019 377.949 124.128C378.482 124.662 379.016 125.197 379.728 125.375C380.795 125.909 382.218 126.799 382.752 126.443C386.488 124.128 390.936 124.841 394.494 124.662C398.764 124.484 398.764 122.169 398.586 120.21C398.408 116.648 400.187 116.827 402.5 117.005C402.5 116.648 402.5 116.292 402.678 116.114C405.88 114.511 407.304 112.374 404.813 108.991C404.635 108.634 404.991 108.1 404.991 107.566C405.702 107.744 406.77 107.922 407.126 108.278C408.193 109.347 409.083 110.593 410.684 112.374C410.328 113.621 406.414 114.511 409.794 117.183C406.77 117.005 404.635 117.005 402.5 116.827C402.144 118.786 401.61 120.744 401.255 122.703C401.255 123.238 401.788 124.306 402.322 124.484C405.169 125.731 408.905 123.06 411.573 126.265C411.751 126.443 413.175 125.909 413.53 125.197C414.064 124.306 414.064 123.06 414.42 121.991C414.242 121.813 414.064 121.813 414.064 121.635C414.242 121.635 414.242 121.635 414.242 121.635C414.242 121.635 414.42 121.813 414.42 121.991C414.954 122.882 415.487 123.772 415.665 124.662C416.021 125.731 415.843 126.799 416.021 127.69C417.089 127.334 418.156 127.156 419.223 126.799C419.935 126.443 420.647 125.909 420.825 125.909C420.113 123.95 419.401 122.525 418.868 121.101C422.426 121.279 426.518 119.676 428.297 124.662C428.475 125.197 429.72 125.553 430.61 125.909C434.168 126.978 437.726 128.046 441.284 128.937C444.131 129.649 444.842 129.115 444.842 126.265C444.842 125.731 444.664 125.197 444.664 124.484C444.486 118.251 439.861 112.196 443.597 105.785C443.775 105.429 443.241 104.717 443.063 104.182C441.996 102.045 442.352 100.442 445.198 99.1958C442.352 97.7711 439.861 96.7026 437.726 95.2779C435.769 94.0313 434.168 94.2094 433.278 96.3464C432.211 98.8396 430.787 98.3054 429.186 97.0588C427.407 95.6341 425.806 94.2094 424.205 92.7847C422.96 95.9902 422.959 95.9902 425.094 97.9492C425.806 98.6616 426.873 99.3739 427.051 100.086C428.83 104.895 433.634 103.114 437.014 104.895C437.726 105.251 438.615 105.073 439.505 105.073C438.971 105.963 438.438 106.854 437.904 107.566C437.014 108.634 436.125 109.347 435.235 110.415C436.125 111.306 437.192 112.018 438.615 113.265C436.836 113.621 435.235 113.265 434.346 113.977C433.456 114.689 433.1 116.292 432.567 117.539C432.567 117.717 433.456 118.429 433.99 118.607C436.481 119.142 439.149 119.32 441.818 119.676C441.818 120.032 441.818 120.388 441.818 120.744C440.039 121.991 436.658 121.635 436.658 125.019C436.658 125.197 434.168 125.909 432.922 125.553C432.211 125.375 431.143 123.238 431.321 123.06C434.524 119.854 431.143 120.032 429.542 118.964C428.297 118.073 427.585 116.648 426.696 115.58C427.763 115.046 428.83 114.155 430.076 113.799C432.211 112.909 432.922 111.306 431.499 109.525C430.254 108.1 429.008 106.497 427.585 105.607C426.518 104.895 424.916 104.895 423.493 104.538C423.315 105.785 422.782 107.21 422.782 108.456C422.782 109.703 424.027 111.84 423.671 112.018C420.291 114.333 424.027 115.046 424.561 115.936C422.426 117.895 420.647 119.676 418.69 121.457C417.8 121.279 416.911 121.457 416.199 121.101C413.53 119.854 413.708 119.32 415.843 117.183C417.622 115.402 418.868 113.087 420.113 110.772C420.291 110.415 419.757 109.525 419.579 108.813C419.046 108.991 418.334 108.991 417.8 109.347C416.911 110.059 416.021 110.772 415.132 111.662C415.132 110.415 415.132 109.169 415.132 108.1C415.132 107.922 414.954 107.566 414.776 107.388C411.395 110.415 409.438 110.237 407.837 106.319C406.77 103.826 404.457 104.895 402.678 104.182C401.61 103.826 400.543 107.744 401.61 109.347C401.966 110.059 402.5 111.484 402.5 111.484C400.899 112.374 399.298 113.265 397.519 113.621C396.985 113.799 396.095 112.018 395.384 111.306C395.028 112.552 394.85 114.155 394.316 115.758C394.138 116.292 393.427 116.827 392.893 117.005C392.715 117.005 392.003 116.47 391.825 115.936C389.868 112.731 387.556 112.731 385.599 115.758C384.531 117.183 383.82 118.786 382.93 120.21C382.574 120.744 381.863 120.923 381.151 121.279C380.973 120.744 380.617 120.21 380.439 119.854C379.906 119.142 379.55 118.251 378.838 117.717C378.126 117.361 377.237 117.361 376.347 117.361C376.881 116.648 377.237 115.758 377.949 115.224C380.083 113.265 382.574 111.306 381.151 108.456C380.083 106.319 379.016 104.538 378.838 102.223C378.838 101.155 378.304 99.9082 378.66 99.1958C379.016 98.6616 380.617 98.1273 381.329 98.4835C382.396 99.0177 383.997 100.442 383.82 100.977C382.752 103.826 383.464 106.141 385.599 108.278C385.954 108.634 385.777 109.703 385.777 110.415C388.089 109.347 390.046 110.593 392.181 111.128C392.359 111.128 393.605 109.525 393.427 108.634C393.249 107.388 392.537 106.141 391.648 104.004C393.605 104.895 394.672 105.429 395.739 105.963C395.206 100.977 395.206 100.977 390.936 102.401C389.868 102.758 388.801 102.758 387.734 102.936C388.623 100.799 390.046 99.3739 391.47 98.1273C393.96 95.8122 395.028 95.8122 396.273 99.1958C397.341 102.045 399.12 99.1958 400.187 100.086C400.721 99.552 401.255 98.8396 401.433 98.3054C402.5 95.2779 400.365 92.0723 400.899 89.7572C402.144 85.483 398.408 83.5241 398.408 80.1404C398.408 79.7842 397.874 79.428 397.519 79.428C394.494 79.6061 391.47 75.5101 388.267 80.3185C389.157 76.9348 387.556 75.8663 385.243 75.1539C382.218 74.2635 380.973 76.4005 379.372 78.3595C379.194 77.291 379.55 76.4005 379.55 75.5101C379.55 74.7977 379.016 73.5511 378.66 73.373C373.501 72.1264 368.342 70.8798 363.182 69.8113C364.428 73.5511 365.851 77.4691 367.096 81.2089C367.274 81.5651 366.918 82.4555 366.74 82.6336C364.25 83.5241 364.783 84.9488 365.495 86.9077C365.851 87.7982 366.207 90.2914 363.538 89.9352C361.937 89.7572 360.158 88.6886 358.734 88.8667C355.354 89.0448 356.6 85.6611 354.82 85.1269C351.618 84.2364 352.508 82.9898 354.465 81.5651C355.176 81.0308 355.354 79.7842 355.71 78.8938C354.82 78.7157 353.931 78.3595 353.041 78.1814C352.686 78.0033 352.152 78.1814 351.796 78.1814C351.974 77.291 352.152 76.5786 352.152 75.6882C352.152 74.9758 352.508 73.9073 352.33 73.9073C351.618 73.7292 350.373 73.373 350.017 73.7292C348.238 75.8663 346.459 75.5101 344.324 74.4416C343.612 74.0854 342.189 75.332 341.121 75.6882C341.477 76.4005 342.011 76.9348 342.367 77.6472C342.901 78.7157 343.434 79.6061 343.612 80.6747C343.79 81.387 344.146 82.6336 343.79 82.9898C343.256 83.5241 342.189 83.5241 341.299 83.5241C340.766 83.5241 340.41 83.1679 339.876 82.9898C339.876 83.7022 339.698 84.4145 339.876 84.9488C340.41 86.3735 341.833 87.7982 341.833 89.2229C342.011 91.8942 342.545 93.3189 345.569 92.9627C346.281 92.9627 346.992 94.2094 347.704 94.9217C346.815 95.2779 345.925 95.8121 344.858 95.9902C342.367 96.1683 339.698 96.1683 337.03 96.3464C335.606 96.3464 334.183 96.5245 332.76 96.5245C333.649 95.6341 334.717 94.7436 335.606 93.6751C335.784 93.497 335.962 93.3189 335.962 93.497C335.428 91.7161 334.895 90.1133 334.361 88.5105C335.962 87.9763 337.385 87.442 338.987 86.9077C338.631 85.8392 337.919 84.7707 337.919 83.7022C337.385 79.7842 337.563 79.7842 333.471 79.7842C332.404 79.7842 331.159 80.3185 330.091 80.1404C329.024 79.9623 327.245 79.2499 327.245 78.8938C327.245 76.2224 325.643 77.1129 324.398 77.4691C322.975 77.8252 322.085 78.3595 322.975 80.3185C323.331 81.0308 322.975 82.2775 322.975 83.1679C321.907 82.6336 320.484 82.4555 319.95 81.5651C319.239 80.3185 319.061 78.5376 317.104 79.2499C315.858 79.7842 313.012 79.0719 314.257 82.2774C314.257 82.4555 313.368 83.346 313.19 83.346C311.233 82.8117 309.098 84.2364 307.319 81.9213C306.785 81.2089 304.294 81.7432 302.693 81.9213C302.337 81.9213 302.337 83.7022 302.159 84.5926C301.982 86.3735 302.337 87.2639 304.472 87.9763C307.141 88.6886 307.141 90.4695 304.828 92.4285C303.761 93.3189 303.049 94.3874 301.448 96.3464C301.448 94.0313 301.27 92.7847 301.448 91.3599C301.626 88.6886 301.27 86.0173 298.601 85.1269C296.288 84.4145 293.62 84.5926 291.841 86.9077C292.552 87.0858 293.264 87.442 294.154 87.6201C293.976 87.9763 293.62 88.1544 293.442 88.5105C292.908 87.9763 292.374 87.442 291.841 86.9077H291.663C287.393 89.2229 287.037 94.2094 284.902 97.9492C284.369 99.0177 284.902 101.511 285.97 102.401C288.105 104.182 288.816 105.429 286.503 106.497ZM292.374 117.717C291.307 117.183 290.417 116.292 289.35 115.58C289.884 115.224 290.595 114.511 290.951 114.689C292.019 115.046 293.086 115.58 294.865 116.47C293.442 117.183 292.73 117.895 292.374 117.717ZM355.71 126.978C355.176 127.334 353.753 127.334 353.575 126.978C353.041 126.087 353.041 125.019 352.686 123.95C353.397 124.128 354.109 124.306 354.82 124.484C355.888 124.662 356.955 124.484 358.023 124.484C358.023 124.662 358.201 125.019 358.201 125.197C357.489 125.909 356.777 126.621 355.71 126.978ZM359.09 121.457C358.379 121.101 357.667 120.744 357.133 120.032C356.955 120.032 357.489 119.32 357.845 118.786C358.379 118.429 358.912 118.073 359.268 117.717C359.624 118.607 359.98 119.498 360.158 120.566C360.158 120.923 359.268 121.635 359.09 121.457ZM384.887 90.8257C384.353 90.8257 383.997 90.8257 383.464 90.8257C382.93 89.5791 382.218 88.3324 382.04 86.9077C381.863 86.1954 382.752 85.3049 383.286 84.4145C383.997 84.9488 385.243 85.305 385.421 85.8392C385.421 87.6201 385.065 89.2229 384.887 90.8257ZM386.132 105.429C386.132 105.073 385.954 104.895 385.954 104.538C385.954 104.36 386.488 104.36 386.666 104.36C386.666 104.538 386.844 104.717 386.844 105.073C386.666 105.251 386.488 105.251 386.132 105.429ZM388.801 83.346C389.157 81.0308 390.936 80.3185 393.249 80.8527C393.96 81.0308 395.028 82.4555 394.85 82.8117C393.96 85.1269 395.384 86.0173 396.985 86.5516C398.408 87.2639 399.298 88.3324 397.874 89.0448C394.672 90.6476 396.985 91.3599 398.052 92.6066C398.586 93.3189 398.942 94.0313 399.298 94.9217C398.23 94.9217 396.985 95.456 396.095 94.9217C395.028 94.2094 394.316 92.9627 393.782 91.8942C392.181 88.3324 392.359 88.3325 389.157 89.5791C386.844 86.7297 384.709 83.8802 382.04 80.4966C384.709 81.5651 386.666 82.4555 388.801 83.346ZM381.685 78.5376C381.863 78.7157 381.863 79.0719 381.863 79.2499C381.863 79.2499 381.685 79.428 381.507 79.428C381.507 79.25 381.329 78.8938 381.329 78.7157C381.507 78.7157 381.685 78.5376 381.685 78.5376ZM377.593 80.4966C378.838 80.1404 380.439 79.2499 380.261 81.9213C380.083 83.7022 377.059 86.3735 375.458 85.6611C374.39 85.3049 372.611 83.7022 372.789 82.8117C373.145 80.3185 374.924 79.25 377.593 80.4966ZM374.212 89.0448C374.568 89.0448 375.28 89.5791 375.28 89.5791C378.66 84.4145 378.482 91.0038 380.261 91.0038C380.617 91.0038 380.795 91.538 381.151 91.8942C382.574 95.2779 382.574 95.2779 378.838 95.9902C379.728 94.5655 380.439 93.3189 381.151 91.8942C378.66 91.7161 377.415 92.7847 377.593 95.456C377.593 95.9902 376.881 96.5245 376.525 97.0588C375.992 96.7026 375.458 96.1683 375.102 95.8122C374.213 94.7436 373.145 93.497 372.611 92.2504C372.255 91.538 372.078 90.4695 372.256 89.5791C372.256 89.401 373.501 89.2229 374.212 89.0448ZM372.256 113.265C372.789 113.087 373.501 113.799 374.568 114.155C373.145 115.402 372.611 115.758 372.078 116.292C371.722 115.758 371.01 115.224 371.01 114.868C371.01 114.155 371.722 113.443 372.256 113.265ZM364.428 91.1819C364.783 91.0038 365.317 91.1819 365.673 91.0038C366.918 90.6476 368.164 90.1133 369.409 89.7572C369.409 90.1133 369.587 90.6476 369.409 90.8257C368.164 92.0723 366.918 93.1408 365.317 94.3874C364.25 93.497 363.538 92.9627 363.004 92.6066C363.538 92.0723 363.894 91.538 364.428 91.1819ZM369.765 100.977C369.943 101.155 369.053 101.867 368.697 102.401C367.63 101.511 366.74 100.621 365.851 99.552C365.673 99.3739 366.385 98.4835 367.096 97.4149C368.164 98.8396 369.053 99.9082 369.765 100.977ZM358.023 94.2094C358.912 93.497 360.158 93.497 361.225 93.1408C361.403 94.0313 361.581 94.9217 361.581 95.6341C361.581 97.593 365.317 102.758 367.096 103.47C368.341 104.004 369.587 104.717 370.654 105.251C370.476 105.785 370.299 106.141 370.299 106.676C367.986 106.141 365.139 106.319 363.538 105.073C361.047 102.936 359.268 99.7301 357.489 96.8807C357.311 96.1683 357.489 94.7436 358.023 94.2094ZM354.998 97.7711C356.955 101.511 358.734 104.538 360.691 107.922C356.777 109.525 356.777 109.525 359.98 112.018C360.336 112.374 360.869 113.443 360.691 113.443C359.98 114.155 359.09 114.689 358.201 115.046C357.845 115.224 356.955 114.511 356.777 114.155C356.422 112.909 355.888 111.662 356.066 110.415C356.422 108.634 355.532 108.813 354.287 108.456C352.33 108.1 348.949 108.1 351.974 104.538C350.551 101.333 354.287 100.621 354.998 97.7711ZM351.618 78.0033C351.262 78.7157 350.906 79.428 350.551 79.9623C349.839 79.2499 349.127 78.5376 348.416 77.8252C349.483 78.0033 350.551 78.0033 351.618 78.0033ZM341.655 100.977C342.011 100.977 342.723 101.689 343.434 102.223C342.367 102.936 341.655 103.648 341.121 103.648C340.588 103.648 340.232 102.58 339.698 102.045C340.232 101.689 340.944 100.977 341.655 100.977ZM337.563 104.36C338.453 105.963 339.164 107.388 340.054 108.991C341.655 108.456 343.256 107.922 344.858 107.388C342.901 109.881 341.655 111.84 344.146 114.511C344.324 114.689 343.434 115.758 343.078 116.292C343.078 116.292 343.078 116.292 343.078 116.47C344.324 117.361 345.569 118.251 346.992 119.142C348.238 119.854 350.551 120.388 350.551 120.923C350.373 122.882 350.017 125.909 348.772 126.443C345.213 127.868 344.68 131.252 342.901 133.745C342.723 134.101 342.367 134.279 341.299 134.279C341.655 133.211 342.189 132.142 342.189 131.074C342.189 129.649 342.189 128.224 341.655 126.978C341.477 126.621 339.698 126.978 338.631 126.978C337.207 126.978 335.784 126.621 334.361 126.799C333.471 126.978 332.226 127.334 331.692 128.046C331.336 128.58 331.692 129.827 332.226 130.539C332.938 131.786 333.827 132.854 334.539 134.101C337.207 135.348 337.207 137.485 336.852 139.8C336.496 139.978 336.14 139.978 335.784 140.156C335.25 138.197 334.717 136.238 334.183 134.457C330.447 135.704 327.423 135.526 324.576 132.32C321.552 129.115 316.926 130.183 313.012 129.649C311.944 129.471 310.343 128.937 310.343 128.58C310.343 127.156 310.877 125.553 311.589 124.128C311.767 123.772 313.724 124.128 314.613 124.662C316.926 125.731 319.061 127.156 321.196 128.224C323.331 129.293 324.754 128.402 325.643 126.443C324.042 126.443 322.619 126.443 321.018 126.443C320.84 126.087 320.662 125.731 320.662 125.553C322.085 124.841 323.686 124.128 325.11 123.416C325.288 124.484 325.465 125.553 325.643 126.621C326.355 126.265 327.067 125.731 327.6 125.731C330.269 126.265 331.514 124.662 332.582 122.525C332.938 121.813 333.471 121.101 334.539 119.854C334.895 121.279 334.895 122.169 335.428 123.06C335.784 123.772 336.496 124.662 336.852 124.662C339.876 124.662 342.901 124.306 346.103 124.128C346.103 123.772 346.103 123.594 346.103 123.238C344.858 122.169 343.612 120.923 342.189 120.21C341.477 119.854 340.232 120.21 339.342 120.032C338.275 119.854 337.385 119.498 336.496 119.142C337.03 118.429 337.563 117.539 338.275 117.005C338.987 116.292 339.698 115.936 340.41 115.046C338.631 115.046 336.852 115.402 336.852 112.731C336.852 112.196 335.073 111.662 334.361 110.772C333.649 110.059 333.293 108.991 332.76 107.922C333.471 107.744 334.361 107.566 335.073 107.21C335.784 105.963 336.496 105.251 337.563 104.36ZM334.183 98.8397C334.539 98.8397 334.895 98.6616 335.25 98.6616C335.428 99.7301 335.606 100.799 335.784 101.867C335.428 101.867 334.895 102.045 334.539 102.045C334.539 100.977 334.361 99.9082 334.183 98.8397ZM326.177 81.9213C329.379 82.4555 332.226 82.9898 334.895 83.5241C335.25 83.5241 335.784 83.8802 335.784 84.2364C335.784 84.7707 335.606 85.6611 335.25 85.6611C332.76 86.3735 330.269 87.6201 327.778 87.442C326.533 87.2639 325.821 84.2364 324.754 82.4555C325.466 82.2775 325.999 82.0994 326.177 81.9213ZM322.619 92.9627C322.797 94.5655 321.907 96.3464 321.374 97.9492C321.196 98.3054 320.128 98.4835 319.417 98.4835C319.239 98.4835 318.705 97.593 318.705 97.0588C318.527 95.2779 318.705 93.3189 318.705 90.6476C320.484 91.7161 322.441 92.4285 322.619 92.9627ZM318.349 85.1269C319.417 88.1544 319.417 88.1544 315.858 90.2914C316.748 88.6886 317.46 86.9077 318.349 85.1269ZM313.19 109.525C313.546 109.703 313.724 109.881 313.901 110.059C313.724 110.415 313.546 110.593 313.368 110.95C313.368 110.95 312.834 110.772 312.834 110.593C312.834 110.237 313.012 109.881 313.19 109.525ZM306.963 103.648C307.675 106.319 308.208 109.169 309.098 111.662C309.276 112.196 310.521 112.552 311.233 112.552C314.435 112.374 314.969 112.909 313.901 116.47C314.791 116.292 315.325 116.114 316.036 115.936C319.239 115.046 320.484 112.731 318.883 109.703C318.349 108.278 316.748 106.854 319.239 106.319C320.484 105.963 322.263 107.388 323.686 108.1C323.864 108.278 323.864 108.813 324.042 109.347C324.22 113.087 325.821 112.374 327.778 110.593C328.134 110.237 328.668 109.881 329.202 109.703C329.557 109.703 330.091 109.881 330.269 110.237C330.447 110.415 330.447 111.306 330.447 111.306C328.134 112.018 328.134 116.114 324.754 115.224C324.398 115.224 323.509 115.936 323.331 116.648C322.263 120.388 321.196 120.923 317.993 119.32C316.57 118.607 315.681 118.251 314.969 119.854C314.791 120.21 314.257 120.388 313.901 120.566C311.233 120.923 308.386 121.101 304.294 121.457C306.251 119.854 307.497 118.607 308.92 117.539C307.675 115.58 306.429 113.443 305.006 111.306C302.159 106.676 302.159 106.319 306.963 103.648ZM301.448 120.744C301.982 122.169 302.693 123.772 303.227 125.197C302.693 125.553 301.982 125.909 301.448 126.087C300.38 124.662 299.135 123.416 298.068 121.991C299.135 121.635 300.38 121.279 301.448 120.744ZM293.62 109.703C294.154 111.128 296.288 112.196 297.89 112.909C300.025 113.621 300.736 114.868 301.092 117.005C295.221 117.361 293.62 111.306 288.816 109.703C290.773 108.634 292.019 105.963 293.62 109.703Z" fill="#EFF0F3"/>
<path d="M454.273 134.101C451.96 132.498 448.402 131.074 449.469 126.443C444.844 128.581 444.132 135.348 438.083 133.745C438.083 135.17 438.439 136.594 437.905 137.485C437.371 138.197 435.77 138.019 434.525 138.197C436.838 141.759 440.574 141.581 443.954 142.65C446.623 143.54 450.181 143.006 451.07 147.28C452.138 152.088 453.205 152.444 457.297 149.417C457.831 149.061 458.72 148.526 458.898 147.992C459.254 146.924 459.788 145.677 459.432 144.608C459.076 143.006 457.831 143.006 456.052 143.006C452.494 143.006 448.935 141.937 445.377 141.225C445.021 140.869 444.666 140.334 444.31 139.8C443.242 138.732 442.175 137.485 440.93 136.06C443.776 135.17 446.623 134.279 449.291 133.745C451.07 133.389 451.782 134.279 451.96 136.238C452.138 137.307 452.494 138.91 453.383 139.444C456.763 141.581 461.567 139.8 462.812 135.882C462.99 135.526 461.923 134.279 461.567 134.279C458.72 134.814 458.72 133.211 458.898 131.252C460.677 131.43 462.634 131.786 464.414 131.608C465.303 131.608 466.193 130.54 467.082 129.827C465.659 128.046 464.413 124.841 462.99 124.663C459.61 124.485 459.076 121.813 457.297 120.21C456.23 119.32 456.408 117.183 456.052 115.58C456.052 115.224 456.941 114.512 457.119 114.512C458.543 115.402 460.322 116.292 460.855 117.539C461.745 119.676 462.812 120.745 464.947 120.388C465.837 120.21 466.904 120.032 467.794 119.854C467.438 118.43 467.438 116.649 466.726 115.402C465.659 113.621 463.88 112.375 462.812 110.594C461.389 108.278 457.475 105.963 456.052 107.21C455.518 107.744 454.984 108.1 454.451 108.635C454.273 107.744 454.095 106.854 453.917 105.963C453.739 105.429 453.739 104.717 453.739 103.648C453.027 104.361 452.849 104.717 452.672 105.073C452.494 105.785 452.494 106.676 451.96 106.854C446.801 110.594 446.445 115.758 446.978 121.635C447.156 124.485 448.402 123.95 450.003 124.128C450.359 123.594 450.715 123.238 450.892 122.704C451.07 122.882 451.248 123.06 451.426 123.238C450.892 123.594 450.537 123.772 450.003 124.128C451.248 124.485 452.316 124.663 453.561 125.019C454.451 125.375 455.874 126.087 455.874 126.443C455.518 128.402 455.696 129.115 457.831 128.759C458.009 128.759 458.365 130.361 458.72 131.252C457.297 132.142 456.763 135.704 454.273 134.101ZM452.138 119.676C451.782 118.964 451.07 118.43 451.07 117.717C451.248 116.649 451.782 115.58 450.003 115.046C449.825 115.046 450.003 113.087 450.181 112.018C450.181 111.662 451.248 111.306 451.426 111.484C452.138 112.018 453.027 112.731 453.383 113.443C453.739 114.69 453.739 115.936 453.917 118.073C453.561 118.43 452.849 119.142 452.138 119.676Z" fill="#EFF0F3"/>
<path d="M569.557 231.337C569.38 231.693 567.067 230.446 565.643 229.734C564.932 229.378 563.509 228.309 563.509 228.309C561.552 230.624 560.484 228.131 558.883 227.419C558.705 228.487 557.993 230.09 558.171 230.268C561.374 232.227 560.128 237.57 564.576 238.46C566.711 240.953 568.668 240.953 570.625 238.46C568.668 238.46 566.711 238.282 564.754 238.282C564.754 235.433 566.711 235.967 568.49 235.789C570.625 235.611 570.625 237.035 570.625 238.46C571.692 239.173 572.938 240.597 573.827 240.597C576.496 240.241 578.097 236.679 581.477 237.926C581.833 235.967 584.146 234.72 582.723 232.227C580.588 228.487 579.876 227.775 577.03 228.843C574.895 229.734 571.692 228.487 569.557 231.337Z" fill="#EFF0F3"/>
<path d="M404.634 96.1681C404.456 96.5242 404.634 97.4147 404.812 97.5928C405.168 97.7709 405.879 97.7709 406.413 97.5928C406.947 97.2366 407.48 96.7023 408.014 96.1681C410.327 92.9625 412.462 92.9625 415.13 95.8119C416.376 97.0585 417.977 98.127 419.578 99.1956C419.222 96.5242 417.977 94.5653 421.891 94.3872C422.069 94.3872 422.069 93.3187 422.247 92.7844C422.425 92.2501 422.603 91.3597 422.958 91.1816C423.848 91.0035 424.738 91.1816 426.517 91.1816C424.915 90.1131 424.382 89.5788 423.67 89.2226C421.891 88.3322 420.112 86.7294 419.222 90.2912C419.044 91.0035 417.443 91.3597 416.376 91.894C416.02 90.8254 415.664 89.5788 415.308 88.5103C414.775 88.6884 414.419 88.8665 413.885 88.8665C413.885 88.5103 414.063 88.1541 414.063 87.7979C414.419 87.976 414.953 88.1541 415.308 88.3322C415.664 87.6198 416.02 86.9075 416.376 86.1951C415.308 85.839 413.707 84.9485 413.351 85.3047C409.971 88.8665 406.413 87.4418 402.143 85.6609C402.855 87.976 402.855 89.935 403.922 91.0035C405.523 92.7844 406.413 94.031 404.634 96.1681Z" fill="#EFF0F3"/>
<path d="M479.004 155.473C479.894 154.76 481.317 154.048 481.495 152.979C482.384 150.486 482.74 147.815 483.452 144.431C476.869 147.637 475.98 148.349 477.225 152.445C477.403 153.692 478.292 154.582 479.004 155.473Z" fill="#EFF0F3"/>
<path d="M338.453 73.0165C339.164 71.0576 340.41 70.1671 342.545 70.1671C343.434 70.1671 344.502 69.2767 345.391 68.5643C344.502 68.2081 342.367 69.2767 343.434 66.7834C343.612 66.2492 343.79 65.893 343.968 65.3587C343.256 65.3587 342.367 65.0026 342.011 65.3587C339.698 67.1396 337.563 69.0986 335.784 71.2357C335.428 71.7699 336.14 73.1946 336.318 74.0851C337.03 73.7289 338.275 73.5508 338.453 73.0165Z" fill="#EFF0F3"/>
<path d="M485.225 187.528C482.378 184.5 482.378 184.5 476.329 183.61C479.709 190.733 479.887 190.733 485.225 187.528Z" fill="#EFF0F3"/>
<path d="M581.475 242.913C584.678 243.804 587.346 244.516 590.193 245.407C588.947 242.913 587.88 240.42 586.457 237.393C584.5 239.352 583.254 240.776 581.475 242.913Z" fill="#EFF0F3"/>
<path d="M590.023 245.228L590.2 245.405V245.228H590.023Z" fill="#EFF0F3"/>
<path d="M575.254 242.734C574.542 243.447 573.83 244.515 573.83 245.584C573.83 246.118 575.076 247.008 575.787 247.008C578.278 247.008 580.769 246.652 583.26 246.474C581.125 245.227 579.346 244.159 577.566 243.268C576.855 242.734 575.609 242.378 575.254 242.734Z" fill="#EFF0F3"/>
<path d="M434.173 132.32C433.461 131.43 432.216 130.005 431.86 130.005C430.614 130.717 429.547 131.964 428.479 132.854C429.191 133.389 429.725 134.101 430.436 134.635C431.148 135.169 432.038 135.882 432.749 136.416C432.749 136.594 432.927 136.772 432.927 136.772C432.927 136.772 433.105 136.772 433.283 136.772C433.105 136.594 432.927 136.416 432.749 136.416C433.105 135.526 433.283 134.635 433.639 133.745C433.817 133.21 434.35 132.498 434.173 132.32Z" fill="#EFF0F3"/>
<path d="M73.5558 128.938C71.4209 132.321 69.6418 134.814 68.0406 137.308C71.0651 135.705 73.9116 133.746 73.5558 128.938Z" fill="#EFF0F3"/>
<path d="M575.788 226.53C576.5 226.708 577.389 226.352 578.101 225.996C578.457 225.817 578.457 224.749 578.101 224.215C577.211 222.79 576.322 221.543 575.254 220.119C575.076 221.543 574.721 223.146 574.543 224.571C574.721 225.283 575.254 226.352 575.788 226.53Z" fill="#EFF0F3"/>
<path d="M472.425 129.649C469.578 123.772 469.578 123.772 466.91 125.375C468.867 126.8 470.646 128.224 472.425 129.649Z" fill="#EFF0F3"/>
<path d="M361.768 83.5233C361.768 82.2767 362.302 81.0301 361.946 79.9615C361.59 79.2492 360.345 78.7149 359.633 78.1807C359.455 79.0711 358.744 80.1396 359.099 81.0301C359.455 82.0986 360.345 82.811 361.057 83.7014C361.234 83.7014 361.59 83.7014 361.768 83.5233Z" fill="#EFF0F3"/>
<path d="M416.199 102.402C417.266 106.142 419.579 103.292 421.18 103.114C424.204 102.936 423.849 101.511 422.07 99.7305C421.18 103.292 418.511 102.224 416.199 102.402Z" fill="#EFF0F3"/>
<path d="M528.466 165.623C528.643 164.554 529.355 163.308 528.999 162.239C528.821 161.527 527.22 161.349 526.331 160.992C526.687 162.417 527.042 163.664 527.398 165.088C527.754 165.267 528.11 165.445 528.466 165.623Z" fill="#EFF0F3"/>
<path d="M510.133 184.857C509.955 183.076 509.955 181.474 509.777 180.049C509.065 180.227 507.998 180.227 507.82 180.583C506.93 182.542 507.82 183.789 510.133 184.857Z" fill="#EFF0F3"/>
<path d="M358.558 68.7419C358.735 68.2077 358.202 67.4953 358.024 66.783C357.49 66.961 357.134 66.961 356.601 66.961C356.245 67.4953 355.533 68.2077 355.711 68.7419C355.889 69.4543 356.778 69.9885 357.312 70.5228C357.846 69.9885 358.38 69.4543 358.558 68.7419Z" fill="#EFF0F3"/>
<path d="M561.377 219.049C561.021 219.049 560.843 219.049 560.487 219.049C560.665 219.762 560.843 220.474 561.021 221.186C561.021 221.186 561.555 221.186 561.732 221.186C561.732 220.474 561.555 219.762 561.377 219.049Z" fill="#EFF0F3"/>
<path d="M515.123 191.445C514.589 191.979 514.234 192.513 513.7 193.047C514.411 192.869 515.123 192.513 515.835 192.335C515.479 191.979 515.301 191.623 515.123 191.445Z" fill="#EFF0F3"/>
<path d="M413.349 102.224C414.239 102.224 415.128 102.224 416.018 102.402C415.128 102.045 414.417 101.867 413.527 101.511C413.349 101.689 413.349 102.045 413.349 102.224Z" fill="#EFF0F3"/>
<path d="M501.778 156.718V156.896H501.956L501.778 156.718Z" fill="#EFF0F3"/>
<path d="M575.257 220.118C575.257 220.118 575.435 220.118 575.257 220.118C575.435 220.118 575.435 220.118 575.257 220.118C575.079 219.762 574.723 219.584 574.368 219.228C574.723 219.584 575.079 219.762 575.257 220.118Z" fill="#EFF0F3"/>
<path d="M362.651 68.9199C362.828 69.0976 362.828 69.0976 363.006 69.0976V68.9199C362.828 69.0976 362.651 69.0976 362.651 68.9199Z" fill="#EFF0F3"/>
<path d="M487.013 137.664V137.841L487.191 137.664H487.013Z" fill="#EFF0F3"/>
<path d="M345.924 68.0305C345.746 68.2082 345.746 68.2082 345.746 68.3858H345.924C345.924 68.2082 345.924 68.2082 345.924 68.0305Z" fill="#EFF0F3"/>
<path d="M345.749 68.3872H345.571V68.5649L345.749 68.3872Z" fill="#EFF0F3"/>
<path d="M421.722 99.374C421.9 99.5517 421.9 99.5517 422.077 99.7293C422.077 99.5517 422.077 99.5517 421.9 99.5517C421.9 99.374 421.9 99.374 421.722 99.374Z" fill="#EFF0F3"/>
<path d="M422.069 99.7305V99.9081H422.247L422.069 99.7305Z" fill="#EFF0F3"/>
<path d="M356.43 139.443C356.608 139.265 356.608 139.265 356.786 139.088C356.786 139.088 356.608 139.088 356.608 139.265C356.608 139.265 356.608 139.443 356.43 139.443Z" fill="#EFF0F3"/>
<path d="M356.777 139.087C356.777 139.087 356.955 139.087 356.777 139.087C357.133 138.731 357.311 138.552 357.667 138.196C357.489 138.552 357.133 138.731 356.777 139.087Z" fill="#EFF0F3"/>
<path d="M54.5071 145.498C54.6848 145.32 54.6848 145.32 54.8625 145.142C54.6848 145.142 54.6848 145.142 54.6848 145.142C54.5071 145.32 54.5071 145.498 54.5071 145.498Z" fill="#EFF0F3"/>
<path d="M342.55 116.114C342.728 116.291 342.728 116.291 342.905 116.469C342.905 116.469 342.905 116.291 342.728 116.291C342.728 116.114 342.728 116.114 342.55 116.114Z" fill="#EFF0F3"/>
</svg>
