<svg width="429" height="430" viewBox="0 0 429 430" fill="none" xmlns="http://www.w3.org/2000/svg">
<g clip-path="url(#clip0)">
<path d="M216.054 62.1382C128.885 61.3373 62.6734 130.552 61.3385 212.048C59.9368 300.553 131.021 367.966 213.985 367.899C299.486 367.832 366.432 299.351 367.099 216.654C367.833 130.085 298.885 62.8724 216.054 62.1382ZM311.901 314.503C284.869 341.134 251.83 353.882 213.852 354.683C175.206 353.949 141.633 340.266 114.401 312.5C87.8364 285.335 74.5541 252.296 74.6876 214.385C74.821 175.872 88.9043 142.566 116.403 115.601C144.303 88.2357 178.343 75.0201 217.523 75.7543C290.542 77.0225 354.751 137.027 353.55 217.789C353.083 255.433 338.866 287.938 311.901 314.503Z" fill="#EFF0F3"/>
<path d="M135.359 360.491C133.957 359.623 133.957 359.623 133.089 361.092C129.151 367.633 125.28 374.107 121.342 380.648C121.008 381.182 120.675 381.716 120.274 382.25C120.141 382.183 120.074 382.183 119.94 382.117C120.074 380.581 120.207 379.113 120.341 377.578C120.741 373.64 121.142 369.702 121.476 365.764C121.876 361.826 122.21 357.888 122.61 353.95C122.677 353.149 122.41 352.615 121.743 352.215C120.341 351.414 119.006 350.613 117.671 349.745C114.868 348.01 114.801 348.01 113.132 350.813C105.457 363.495 97.7809 376.243 90.1719 388.925C89.371 390.26 89.371 390.26 90.6391 391.06C92.8417 392.395 95.0443 393.664 97.1802 395.065C98.1146 395.666 98.5818 395.666 99.1826 394.598C102.72 388.591 106.324 382.651 109.929 376.71C110.596 375.642 111.263 374.574 111.931 373.44C112.064 373.506 112.198 373.506 112.331 373.573C112.198 375.175 112.064 376.71 111.864 378.312C111.464 382.183 111.063 386.055 110.663 389.993C110.262 393.73 109.929 397.468 109.528 401.206C109.395 402.207 109.728 402.741 110.663 403.275C112.532 404.276 114.267 405.478 116.136 406.545C117.538 407.413 117.538 407.413 118.472 405.945C122.21 399.737 125.947 393.597 129.685 387.389C133.89 380.381 138.095 373.306 142.367 366.298C142.901 365.43 142.901 364.963 141.9 364.429C139.697 363.161 137.494 361.759 135.359 360.491ZM112.331 373.106L112.265 373.039L112.331 372.972V373.106Z" fill="#EFF0F3"/>
<path d="M256.704 55.665C264.714 56.2657 271.121 52.9952 275.727 46.5209C280.265 40.1133 282.068 32.9048 281.333 25.0956C280.733 18.955 278.196 13.7489 273.324 9.81089C265.448 3.33658 253.367 3.8038 246.025 10.8788C239.751 16.8859 237.415 24.4949 236.881 33.4388C237.081 34.9739 237.215 37.043 237.682 39.0454C239.751 48.4565 247.093 54.9308 256.704 55.665ZM252.633 18.8215C256.437 14.2828 262.578 13.5486 266.85 17.2196C269.319 19.2887 270.454 22.2255 270.854 25.3626C270.988 26.1635 270.921 26.9645 270.988 27.8989C270.854 33.1718 269.453 38.0442 265.848 42.2492C262.311 46.3874 256.838 47.3218 252.499 44.5185C249.563 42.6496 248.161 39.7796 247.76 36.5091C246.959 29.968 248.294 23.8942 252.633 18.8215Z" fill="#EFF0F3"/>
<path d="M37.1768 251.028C41.849 250.561 46.4544 250.094 51.1266 249.627C52.1945 249.493 52.4615 249.026 52.328 248.025C51.9943 245.422 51.6605 242.885 51.4603 240.282C51.3935 239.214 51.1266 238.881 49.9919 239.014C44.3185 239.681 38.6452 240.215 32.9718 240.816C32.0374 240.95 31.7036 240.683 31.6369 239.815C31.3032 236.211 30.9027 232.606 30.5022 228.935C30.3687 228.068 30.7692 227.868 31.5702 227.801C37.0433 227.267 42.4497 226.733 47.9228 226.199C49.8584 225.999 49.8584 225.999 49.7249 224.197C49.4579 221.794 49.2577 219.324 49.0575 216.921C48.924 215.453 48.8572 215.386 47.3221 215.52C45.3865 215.72 43.4508 215.92 41.5152 216.12C36.7763 216.588 31.9706 217.055 27.2317 217.522C22.2925 217.989 17.4201 218.523 12.481 219.057C8.74323 219.458 4.87199 219.925 1.0675 220.259C0.199814 220.325 -0.0671681 220.526 0.0663227 221.527C0.40005 224.063 0.600286 226.599 0.867268 229.136C1.00076 230.871 1.00076 230.938 2.80288 230.738C8.54299 230.137 14.2831 229.603 19.9565 228.935C20.8241 228.869 21.0911 229.002 21.1579 229.87C21.4916 233.541 21.8921 237.212 22.2925 240.883C22.3593 241.617 22.2258 241.817 21.4916 241.884C19.556 242.084 17.6204 242.285 15.6848 242.485C11.6133 242.885 7.60855 243.352 3.53708 243.753C2.66939 243.82 2.40241 244.087 2.46916 244.954C2.73614 247.691 3.00312 250.494 3.2701 253.231C3.33685 254.098 3.80407 254.432 4.67176 254.299C5.93992 254.098 7.14134 254.032 8.4095 253.965C13.0817 253.498 17.8206 253.031 22.4928 252.563C27.3652 252.029 32.2376 251.562 37.1768 251.028Z" fill="#EFF0F3"/>
<path d="M4.20526 184.551C10.8798 188.022 17.5543 191.626 24.2289 195.097C31.9046 199.169 39.6471 203.173 47.3228 207.245C48.591 207.912 48.591 207.845 48.8579 206.577C49.3919 203.774 49.8591 201.037 50.3931 198.234C50.5266 197.433 50.3263 196.966 49.5254 196.565C46.6553 195.164 43.7853 193.695 40.9152 192.294C40.2478 191.96 39.7138 191.626 39.9141 190.692C40.5815 186.954 41.1822 183.216 41.9164 179.479C41.9832 179.145 42.4504 178.678 42.7841 178.611C45.4539 178.211 48.1905 177.877 50.8603 177.61C53.9306 177.276 53.9306 177.343 54.3978 174.406C54.3978 174.273 54.4646 174.072 54.5313 173.939C54.865 171.87 55.2655 169.801 55.5992 167.665C55.666 167.064 55.8662 166.397 54.5981 166.597C51.3275 167.064 47.8568 167.531 44.386 167.998C37.845 168.933 31.3039 169.867 24.6961 170.735C18.2885 171.603 11.881 172.537 5.47342 173.338C4.73922 173.405 4.47224 173.739 4.33875 174.473C3.93828 177.076 3.5378 179.746 3.00384 182.349C2.8036 183.55 3.20408 184.017 4.20526 184.551ZM17.0871 180.814C19.223 180.68 21.3588 180.48 23.5614 180.346C26.0978 180.213 28.6341 180.079 31.1704 179.879C31.9714 179.812 32.2383 180.079 32.1048 180.88C31.7711 182.616 31.5041 184.418 31.1704 186.153C31.0369 186.62 31.0369 187.221 30.236 186.887C25.8308 184.952 21.4256 183.016 17.0204 181.081C17.0871 180.947 17.0871 180.88 17.0871 180.814Z" fill="#EFF0F3"/>
<path d="M179.077 378.111C177.475 380.781 175.74 383.451 174.071 386.121C173.537 386.989 173.003 387.189 172.002 386.922C168.665 385.921 165.328 385.053 161.99 384.185C161.056 383.918 160.722 383.518 160.722 382.517C160.722 379.313 160.522 376.109 160.522 372.905C160.522 372.104 160.255 371.637 159.387 371.437C156.584 370.703 153.847 369.969 151.044 369.101C150.043 368.767 149.776 369.101 149.843 370.035C150.043 373.039 150.243 375.976 150.377 378.979C150.71 386.655 151.044 394.264 151.378 401.94C151.645 407.746 151.912 413.553 152.045 419.36C152.112 420.361 152.446 420.762 153.38 421.029C155.783 421.629 158.119 422.297 160.455 422.964C162.191 423.432 162.191 423.432 163.192 421.896C170.467 410.683 177.742 399.47 185.017 388.257C186.753 385.587 188.488 382.85 190.357 379.98C187.087 379.113 184.083 378.312 181.079 377.377C180.012 376.977 179.544 377.244 179.077 378.111ZM167.53 396.6C165.261 400.671 162.991 404.743 160.722 408.814C160.589 408.814 160.455 408.814 160.388 408.748C160.522 405.41 160.655 402.073 160.722 398.736C160.789 397.401 160.789 396.133 160.789 394.798C160.789 393.997 160.856 393.53 161.857 393.863C163.525 394.397 165.261 394.865 166.996 395.265C167.931 395.532 167.931 395.866 167.53 396.6Z" fill="#EFF0F3"/>
<path d="M421.562 258.638C410.683 251.963 399.736 245.355 388.857 238.681C385.586 236.679 382.382 234.743 378.978 232.674C378.178 236.011 377.377 239.282 376.642 242.485C376.442 243.286 376.843 243.62 377.51 244.021C380.247 245.622 382.916 247.224 385.653 248.826C386.521 249.36 386.854 249.761 386.521 250.895C385.653 253.899 385.052 257.036 384.318 260.039C383.784 262.376 383.717 262.376 381.381 262.509C381.181 262.509 380.981 262.509 380.714 262.509C378.111 262.643 375.508 262.776 372.905 262.909C372.304 262.909 371.703 262.976 371.503 263.71C370.836 266.647 370.101 269.651 369.434 272.588C369.234 273.322 369.434 273.722 370.302 273.656C372.17 273.522 373.973 273.389 375.841 273.255C383.717 272.654 391.66 271.987 399.536 271.386C406.144 270.919 412.752 270.452 419.359 269.985C420.427 269.918 420.895 269.517 421.095 268.449C421.562 266.113 422.163 263.777 422.697 261.508C423.164 259.572 423.164 259.639 421.562 258.638ZM393.596 261.708C394.196 259.305 394.73 257.036 395.331 254.5C400.003 256.902 404.475 259.238 409.281 261.708C403.808 261.708 398.802 261.708 393.596 261.708Z" fill="#EFF0F3"/>
<path d="M344.072 112.464C348.944 119.739 353.817 127.015 358.689 134.29C359.223 135.091 359.557 135.157 360.358 134.623C362.227 133.289 364.162 131.887 366.165 130.686C367.233 130.018 367.099 129.618 366.498 128.683C363.628 124.545 360.892 120.273 358.022 116.135C357.354 115.201 357.354 114.733 358.355 114.133C360.424 112.864 362.427 111.463 364.429 109.994C365.364 109.327 365.831 109.394 366.432 110.395C368.701 113.932 371.037 117.336 373.373 120.807C373.573 121.141 373.907 121.475 374.174 121.808C374.575 121.608 374.841 121.408 375.108 121.208C377.044 119.873 378.98 118.538 380.915 117.336C381.85 116.802 381.917 116.335 381.316 115.468C378.913 111.997 376.71 108.526 374.308 105.055C373.707 104.188 373.774 103.72 374.641 103.12C376.911 101.651 379.18 100.116 381.383 98.581C382.05 98.1137 382.45 98.2472 382.784 98.9147C382.984 99.2484 383.185 99.5821 383.385 99.8491C385.854 103.52 388.191 107.191 390.727 110.795C392.129 112.798 391.661 112.864 393.73 111.463C395.399 110.328 397.001 109.127 398.736 108.126C399.738 107.525 399.738 106.991 399.07 106.123C394.331 99.1149 389.592 92.1067 384.92 85.0316C384.253 84.0305 383.785 84.1639 382.918 84.6979C378.179 87.9017 373.44 91.1055 368.768 94.3093C360.625 99.7824 352.548 105.256 344.406 110.729C343.671 111.129 343.404 111.53 344.072 112.464Z" fill="#EFF0F3"/>
<path d="M194.094 10.5448C194.428 19.5555 194.762 28.5661 195.095 37.5767C195.229 41.448 195.362 45.2525 195.429 49.1237C195.429 50.1916 195.83 50.5253 196.897 50.5253C200.568 50.3251 204.239 50.1249 207.977 49.9914C212.916 49.7911 217.856 49.6577 222.795 49.5242C223.929 49.5242 224.196 49.0569 224.13 48.0558C223.996 45.9199 223.929 43.8508 223.863 41.715C223.796 39.7793 223.796 39.7793 221.927 39.9128C217.121 40.0463 212.449 40.2466 207.71 40.4468C205.641 40.5135 205.641 40.4468 205.574 38.4444C205.508 35.9748 205.508 33.572 205.374 31.1024C205.307 30.3682 205.641 30.3015 206.175 30.3015C208.578 30.2347 210.914 30.1013 213.317 30.0345C215.386 29.9678 217.455 29.7675 219.524 29.7675C220.459 29.7675 220.592 29.3671 220.592 28.5661C220.459 26.0965 220.325 23.6937 220.258 21.2241C220.258 20.2897 219.791 20.2229 219.057 20.2229C214.719 20.4232 210.38 20.4899 206.042 20.7569C205.241 20.8236 204.974 20.6234 204.974 19.8892C204.907 17.0191 204.773 14.1491 204.64 11.279C204.573 10.4114 204.974 10.2111 205.775 10.2111C209.846 10.1444 213.918 9.94414 217.989 9.81065C218.923 9.81065 219.858 9.7439 220.792 9.7439C221.86 9.7439 222.394 9.47692 222.261 8.20875C222.061 6.20639 222.06 4.20403 221.994 2.20167C221.794 -0.0676767 221.794 -0.0676767 219.591 -0.000931323C211.782 0.332796 203.972 0.599777 196.163 0.933505C193.427 1.067 193.76 0.399541 193.76 3.53658C193.76 4.27078 193.76 4.93823 193.76 5.67243C193.76 5.67243 193.76 5.67243 193.694 5.67243C193.827 7.27432 194.027 8.87621 194.094 10.5448Z" fill="#EFF0F3"/>
<path d="M104.32 340.601C104.521 340.401 104.721 340.134 104.988 339.8C104.788 339.533 104.654 339.333 104.454 339.133C103.72 338.332 102.985 337.531 102.251 336.73C99.5146 333.86 96.7781 330.99 93.9747 328.12C91.3049 325.316 88.5684 322.58 85.8986 319.843C85.3646 319.309 85.0309 319.243 84.4969 319.843C82.8283 321.512 81.0929 323.181 79.2908 324.783C78.5566 325.45 78.4231 325.917 79.224 326.718C82.8283 330.322 86.299 334.06 89.9033 337.731C90.6375 338.465 90.771 338.933 89.9033 339.667C88.1012 341.335 86.3658 343.004 84.6304 344.806C83.8294 345.674 83.3622 345.741 82.4945 344.806C79.758 341.869 76.8879 338.999 74.1514 336.129C72.8832 334.794 72.8165 335.061 71.882 335.996C70.3469 337.598 68.6782 339.133 67.0763 340.601C66.2087 341.402 66.3421 341.869 67.1431 342.67C70.1466 345.674 73.0167 348.744 76.0202 351.814C76.5542 352.348 76.6209 352.749 76.0202 353.283C74.1514 355.085 72.2825 356.954 70.3469 358.689C69.1455 359.824 69.0787 359.757 67.944 358.556C64.6068 355.085 61.2028 351.614 57.8655 348.077C57.198 347.342 56.7975 347.276 56.0633 348.01C54.3947 349.745 52.6593 351.414 50.924 353.016C50.3232 353.55 50.2565 353.95 50.8572 354.618C56.8643 360.758 62.8046 366.966 68.745 373.173C69.4792 373.907 69.9464 373.974 70.6806 373.173C74.0179 369.836 77.4219 366.565 80.8259 363.228C84.0964 360.024 87.367 356.82 90.6375 353.617C95.2429 349.345 99.7816 344.94 104.32 340.601Z" fill="#EFF0F3"/>
<path d="M291.745 69.0137C292.679 69.6144 293.147 69.5476 293.747 68.5465C295.883 64.6085 298.152 60.7372 300.355 56.866C301.356 55.1306 301.356 55.1306 303.025 56.0651C304.493 56.9328 305.895 57.8004 307.363 58.6014C309.633 59.8695 311.969 60.804 314.639 60.6705C317.041 60.6705 318.51 60.4035 320.579 59.2688C325.118 56.866 327.787 52.928 329.59 48.3226C330.524 45.853 331.058 43.3167 330.724 40.6469C330.123 35.8412 327.52 32.4372 323.382 30.1011C318.71 27.4313 314.038 24.7615 309.432 22.0249C308.498 21.4909 308.164 21.5577 307.63 22.4921C304.293 28.4325 300.956 34.3061 297.552 40.1797C293.147 47.8554 288.808 55.5978 284.336 63.2736C283.869 64.0745 284.002 64.475 284.803 64.8755C287.206 66.2771 289.476 67.612 291.745 69.0137ZM306.429 46.1867C308.431 42.7827 310.367 39.312 312.302 35.9079C312.636 35.3072 313.037 35.2405 313.571 35.5742C314.906 36.3752 316.307 37.1094 317.642 37.9771C319.244 39.045 320.245 40.4466 320.112 43.1832C319.778 45.4525 318.51 47.9221 315.973 49.6575C314.639 50.5252 313.103 50.6587 311.635 49.9912C309.9 49.1903 308.298 48.1891 306.629 47.3214C306.162 46.9209 306.162 46.654 306.429 46.1867Z" fill="#EFF0F3"/>
<path d="M267.181 391.929C265.913 386.189 264.578 380.382 263.377 374.642C263.11 373.44 262.709 373.24 261.575 373.507C259.105 374.108 256.636 374.642 254.099 375.176C252.965 375.376 252.764 375.91 253.031 376.978C254.099 381.45 255.034 385.989 256.035 390.46C256.302 391.528 256.102 391.996 254.9 392.196C252.631 392.596 250.428 393.13 248.226 393.731C243.353 395.133 240.016 398.136 238.814 403.142C237.279 409.883 238.748 416.024 243.086 421.297C245.556 424.3 248.96 425.702 253.165 425.702C253.632 425.635 254.366 425.635 255.1 425.502C260.574 424.3 266.047 423.099 271.453 421.898C273.522 421.43 273.522 421.43 273.055 419.294C271.186 410.15 269.184 401.073 267.181 391.929ZM260.44 414.622C258.571 414.956 256.702 415.423 254.833 415.623C252.564 415.89 250.895 414.622 250.028 412.687C249.36 411.152 249.093 409.483 248.626 407.881C248.893 404.944 250.161 403.209 252.898 402.408C254.433 402.007 255.968 401.674 257.503 401.34C258.104 401.206 258.371 401.407 258.504 402.007C259.305 405.812 260.173 409.616 261.041 413.421C261.174 413.955 261.241 414.489 260.44 414.622Z" fill="#EFF0F3"/>
<path d="M148.109 33.2385C150.578 41.7819 152.981 50.3253 155.384 58.8687C155.651 59.9366 156.118 60.0701 157.12 59.7364C159.522 59.0022 161.925 58.3347 164.328 57.6673C165.997 57.2001 165.997 57.2001 165.529 55.5982C164.261 51.193 163.06 46.721 161.725 42.3158C161.391 41.2479 161.725 40.9809 162.593 40.7139C164.862 40.1132 167.131 39.5125 169.334 38.7783C174.073 37.1764 177.143 33.9059 178.144 28.9668C179.279 23.1599 177.877 17.8203 174.54 13.0146C171.937 9.27686 168.4 7.07426 163.661 6.87402C162.059 7.20775 160.457 7.34124 158.922 7.80846C153.982 9.14337 149.043 10.6118 144.037 12.0802C142.235 12.6141 142.235 12.6141 142.769 14.483C144.505 20.7571 146.307 27.0311 148.109 33.2385ZM156.252 18.4877C157.587 18.2207 158.855 17.7535 160.19 17.4198C162.86 16.7523 164.862 17.5533 166.33 19.9561C167.265 21.4913 167.799 23.2267 167.732 25.229C167.732 27.9656 166.664 29.5007 163.928 30.4352C162.459 30.9024 160.991 31.2361 159.589 31.7033C158.855 31.9703 158.721 31.7701 158.521 31.0359C157.52 27.4316 156.452 23.8274 155.384 20.2231C155.05 19.3554 155.117 18.7547 156.252 18.4877Z" fill="#EFF0F3"/>
<path d="M54.2651 103.521C61.7406 109.595 69.2161 115.602 76.6248 121.743C77.5593 122.477 77.893 122.21 78.4937 121.476C80.0956 119.407 81.6975 117.338 83.4329 115.402C84.2338 114.534 84.1003 114.067 83.1659 113.333C79.5616 110.463 76.0241 107.526 72.3531 104.656C71.4187 103.922 71.4187 103.455 72.1529 102.587C73.3543 101.185 74.489 99.717 75.6237 98.2486C77.6928 95.7123 79.0277 92.8422 79.2947 89.4382C78.8942 87.8363 78.694 86.2344 78.16 84.766C76.2911 79.8269 72.6869 76.4228 68.0814 74.0868C61.2734 70.616 54.7323 72.0844 50.1269 77.8245C46.7896 82.0295 43.4524 86.2344 39.9816 90.3726C39.2474 91.2403 39.3809 91.5741 40.1818 92.2415C44.9875 95.9792 49.593 99.7837 54.2651 103.521ZM54.0649 88.2368C54.9993 87.1689 55.8003 86.0342 56.7347 84.9663C58.6036 82.7637 61.0064 82.2297 63.6095 83.6313C65.8788 84.8995 67.8144 86.5014 68.4152 89.238C68.4819 89.5049 68.5487 89.7719 68.5487 90.0389C68.6154 90.1057 68.6821 90.1057 68.7489 90.1724C68.2149 91.3071 67.8145 92.5085 67.147 93.5097C66.3461 94.7778 65.2114 95.8458 64.3437 97.1139C63.9432 97.6479 63.6095 97.5811 63.1423 97.1807C60.1387 94.7111 57.2019 92.3083 54.1984 89.9054C53.5977 89.3715 53.5309 88.9042 54.0649 88.2368Z" fill="#EFF0F3"/>
<path d="M366.563 336.13C359.621 329.722 352.613 323.315 345.738 316.907C344.937 316.173 344.47 316.24 343.803 317.041C342.134 318.91 340.399 320.712 338.73 322.581C337.595 323.849 337.595 323.849 338.797 324.984C342.134 328.054 345.471 331.057 348.742 334.128C349.877 335.196 349.877 335.196 348.875 336.264C347.674 337.532 346.539 338.8 345.338 340.135C342.802 342.871 341.2 345.942 341.066 350.08C341.133 350.414 341.133 351.081 341.266 351.682C342.468 357.822 346.272 362.094 351.478 365.098C357.285 368.435 362.825 367.968 367.631 363.896C368.766 362.962 369.7 361.827 370.701 360.692C373.905 357.222 377.042 353.684 380.246 350.213C380.913 349.546 380.846 349.212 380.112 348.545C375.574 344.473 371.035 340.268 366.563 336.13ZM366.229 351.415C365.094 352.616 364.027 353.818 362.892 355.019C361.891 356.02 360.689 356.621 359.221 356.554C356.151 356.487 352.079 352.816 351.745 349.746C351.612 348.344 351.946 347.143 352.813 346.075C353.948 344.74 355.083 343.472 356.217 342.137C356.618 341.67 356.952 341.67 357.419 342.07C360.289 344.74 363.159 347.41 366.029 350.013C366.63 350.547 366.696 350.948 366.229 351.415Z" fill="#EFF0F3"/>
<path d="M34.9093 147.906C42.5183 151.444 50.194 154.981 57.8029 158.586C58.8041 159.053 59.2046 158.919 59.6051 157.918C60.6063 155.582 61.7409 153.246 62.8089 150.977C63.4763 149.508 63.4763 149.508 62.0079 148.841C57.803 146.905 53.6647 144.903 49.4598 143.034C48.5253 142.633 48.3919 142.233 48.8591 141.365C49.7268 139.63 50.5277 137.828 51.3286 136.026C52.1963 134.023 52.8638 131.954 52.797 129.752C52.9305 127.415 52.2631 125.213 51.0617 123.211C48.4586 118.872 44.4539 116.336 39.7149 115.001C37.6458 114.4 35.4432 114 33.3074 114.133C27.8343 114.467 24.0298 117.47 21.7604 122.41C19.4911 127.282 17.2217 132.154 15.0191 137.027C14.4184 138.362 14.4184 138.362 15.7533 139.029C22.0942 141.966 28.5017 144.97 34.9093 147.906ZM27.7675 131.954C28.5685 130.352 29.2359 128.684 30.1036 127.148C31.038 125.48 32.5064 124.746 34.6423 124.679C37.0451 124.946 39.3145 125.88 41.1166 127.816C42.4515 129.218 42.852 130.953 42.1178 132.822C41.4503 134.49 40.6494 136.092 39.9819 137.694C39.7149 138.295 39.448 138.362 38.8473 138.095C35.3098 136.426 31.7722 134.757 28.2347 133.156C27.7008 132.889 27.4338 132.622 27.7675 131.954Z" fill="#EFF0F3"/>
<path d="M407.213 302.956C402.074 300.219 397.001 297.416 391.862 294.679C383.518 290.141 375.175 285.669 366.832 281.063C365.697 280.463 365.297 280.73 364.83 281.731C363.695 284 362.494 286.136 361.292 288.339C360.424 290.007 360.424 289.673 361.96 290.474C365.964 292.677 369.969 294.813 373.974 297.015C375.242 297.75 375.309 297.75 374.574 299.085C373.573 300.953 372.572 302.822 371.638 304.691C370.637 306.627 370.036 308.696 370.103 310.965C370.103 313.368 370.503 314.97 371.571 317.039C373.507 320.71 376.644 323.113 380.248 324.915C383.785 326.65 387.523 327.585 391.461 326.717C395.8 325.783 398.736 323.046 400.805 319.242C403.275 314.703 405.678 310.164 408.147 305.626C408.948 303.89 408.948 303.89 407.213 302.956ZM395.266 309.363C394.331 310.965 393.53 312.634 392.529 314.169C391.595 315.637 390.126 316.305 388.057 316.372C385.521 315.971 383.051 314.903 381.316 312.5C380.248 311.032 380.114 309.363 380.849 307.695C381.583 306.093 382.517 304.491 383.318 302.889C383.652 302.288 383.986 302.355 384.453 302.622C387.924 304.558 391.394 306.427 394.932 308.295C395.332 308.629 395.533 308.829 395.266 309.363Z" fill="#EFF0F3"/>
<path d="M97.7824 67.7457C98.7836 68.2129 99.718 69.0139 100.385 69.8816C104.123 74.8207 107.861 79.7599 111.465 84.7658C112.066 85.5667 112.466 85.6335 113.267 85.0328C115.403 83.3641 117.606 81.6955 119.808 80.1603C120.609 79.6264 120.543 79.2927 120.009 78.5585C116.805 74.3535 113.735 70.0818 110.531 65.8768C108.729 63.5407 107.26 61.2714 106.993 58.0676C106.593 52.5277 105.658 47.1214 104.924 41.5815C104.457 37.9772 103.99 34.4397 103.456 30.6353C100.119 33.1048 96.9815 35.4409 93.9112 37.777C93.6442 37.9772 93.5775 38.5112 93.6442 38.9117C93.8444 40.1798 94.1114 41.448 94.3784 42.7162C95.1126 47.0546 95.8468 51.3931 96.581 55.7315C96.581 55.865 96.581 55.9985 96.6477 56.0653C96.581 55.9985 96.5143 55.9318 96.4475 55.865C95.9803 55.6648 95.4463 55.4645 94.9791 55.1976C90.5072 52.995 86.0352 50.7256 81.5633 48.4563C80.6288 48.0558 80.0281 48.0558 79.2272 48.7233C76.8911 50.5254 74.555 52.2608 72.1522 53.9961C71.6182 54.3966 71.0843 54.8638 70.4168 55.3978C70.9508 55.6648 71.2177 55.7983 71.4847 55.9318C80.2951 59.803 89.0388 63.741 97.7824 67.7457Z" fill="#EFF0F3"/>
<path d="M321.314 369.367C320.312 368.833 319.578 368.232 318.977 367.231C315.64 362.025 312.236 356.819 308.832 351.613C308.031 350.411 308.031 350.411 306.696 351.279C304.761 352.547 302.825 353.882 300.823 355.15C299.221 356.218 299.221 356.218 300.222 357.82C303.626 363.026 307.03 368.299 310.434 373.505C310.768 374.106 311.102 374.774 311.168 375.441C311.369 377.043 311.435 378.711 311.502 380.313C311.969 387.789 312.436 395.264 312.904 402.74C312.97 403.741 313.104 404.742 313.237 405.944C316.641 403.741 319.845 401.672 323.049 399.469C323.383 399.269 323.449 398.401 323.383 397.934C322.915 393.863 322.382 389.724 321.914 385.653C321.714 384.185 321.647 382.716 321.447 380.981C322.048 381.315 322.381 381.515 322.715 381.648C327.254 384.318 331.859 386.921 336.398 389.591C337.132 389.991 337.599 389.991 338.267 389.524C340.603 387.922 343.006 386.387 345.342 384.852C346.076 384.385 346.744 383.918 347.678 383.317C347.144 382.983 346.877 382.85 346.677 382.716C338.334 378.244 329.857 373.772 321.314 369.367Z" fill="#EFF0F3"/>
<path d="M40.9801 324.381C40.1124 322.846 40.1124 322.913 41.6475 321.978C52.1933 315.837 62.7391 309.697 73.3516 303.556C74.286 303.022 74.4195 302.555 73.8188 301.687C72.4172 299.351 71.0155 297.015 69.7473 294.612C69.2801 293.745 68.8796 293.811 68.1454 294.212C63.9405 296.682 59.6688 299.151 55.4638 301.621C48.9895 305.358 42.5152 309.163 36.0409 312.901C35.1065 313.435 34.5725 313.368 34.0385 312.367C32.7036 309.897 31.2352 307.428 29.8336 305.025C29.0326 303.623 28.9659 303.623 27.631 304.424C25.8288 305.492 23.96 306.56 22.1579 307.628C20.7562 308.429 20.7562 308.429 21.5571 309.83C24.0935 314.236 26.6298 318.708 29.1661 323.113C31.7692 327.651 34.3723 332.123 36.9753 336.662C37.1756 336.996 37.4426 337.33 37.7095 337.663C38.0433 337.463 38.3102 337.33 38.5105 337.196C40.5796 335.995 42.6487 334.726 44.7178 333.592C45.5855 333.125 45.7857 332.791 45.185 331.856C43.8501 329.387 42.4485 326.85 40.9801 324.381Z" fill="#EFF0F3"/>
<path d="M221.329 380.314C218.992 380.247 216.656 380.181 214.32 380.114C208.714 380.047 203.107 380.047 197.5 379.98C196.633 379.98 196.366 380.181 196.366 381.048C196.433 383.451 196.433 385.854 196.299 388.19C196.232 389.191 196.433 389.458 197.434 389.458C201.639 389.458 205.91 389.592 210.115 389.659C211.717 389.725 211.784 389.725 211.717 391.26C211.65 397.735 211.517 404.209 211.45 410.617C211.45 412.752 211.45 414.888 211.45 416.957C211.383 416.957 211.383 416.957 211.317 416.957C211.317 420.695 211.317 424.433 211.317 428.237C211.317 429.239 211.584 429.572 212.585 429.572C215.255 429.506 217.925 429.506 220.594 429.639C221.662 429.706 221.863 429.305 221.863 428.304C221.863 424.7 221.996 421.162 222.063 417.558C222.196 405.477 222.33 393.463 222.463 381.382C222.53 380.448 222.13 380.314 221.329 380.314Z" fill="#EFF0F3"/>
<path d="M319.646 87.5012C325.32 92.8409 331.06 98.1805 336.733 103.587C337.401 104.188 337.801 104.321 338.469 103.587C340.071 101.785 341.739 100.049 343.341 98.314C344.009 97.6465 344.009 97.2461 343.208 96.5119C340.004 93.5751 336.867 90.5715 333.663 87.568C332.996 86.9673 332.795 86.5668 333.53 85.7659C337.468 81.5609 341.405 77.3559 345.343 73.151C349.882 68.2785 354.421 63.3394 359.026 58.467C359.76 57.7328 359.694 57.2656 358.96 56.6648C356.957 54.8627 355.088 52.9938 353.153 51.1917C352.886 50.9247 352.552 50.7245 352.151 50.4575C351.818 50.7912 351.417 51.0582 351.084 51.4587C347.146 55.7304 343.208 60.0021 339.203 64.2738C332.662 71.2821 326.054 78.3571 319.513 85.3654C318.579 86.4333 318.579 86.4333 319.646 87.5012Z" fill="#EFF0F3"/>
<path d="M312.636 129.551C312.169 128.95 311.768 128.283 311.301 127.682C311.168 127.749 311.101 127.815 310.967 127.949C311.168 128.817 311.368 129.618 312.636 129.551C312.369 130.018 311.835 130.552 311.969 130.752C312.77 132.02 311.568 131.62 311.034 131.753C312.102 133.022 312.97 134.156 315.106 133.823C313.904 134.824 313.237 134.957 312.169 134.357C311.168 133.756 309.9 133.489 308.698 133.222C308.031 133.088 307.296 133.022 307.563 132.087C307.697 131.553 307.764 130.485 308.898 131.086C309.032 131.153 309.366 130.953 309.633 130.886C308.631 130.085 309.766 129.951 310.1 129.551C310.634 128.883 310.433 128.283 309.833 127.882C309.499 127.682 308.898 127.749 308.431 127.682C308.498 128.149 308.631 128.616 308.698 129.084C308.698 129.217 308.698 129.284 308.698 129.15C308.164 129.618 307.563 129.951 307.296 130.485C307.029 130.953 306.896 131.42 306.295 131.153C305.962 131.019 305.628 130.485 305.628 130.218C305.695 129.885 306.162 129.551 306.496 129.284C306.829 129.017 307.163 128.817 307.563 128.616C307.63 128.483 307.697 128.349 307.83 128.283C307.83 128.283 307.764 128.216 307.697 128.216C307.63 128.349 307.63 128.483 307.563 128.683C306.095 128.616 306.095 128.616 306.696 127.415C307.029 126.748 306.829 126.414 306.095 126.414C305.561 126.414 304.96 126.347 305.094 125.546C305.161 125.346 305.094 125.079 305.027 124.812C304.76 124.879 304.36 124.945 304.159 125.079C303.892 125.346 303.492 125.746 303.492 126.147C303.425 127.148 302.825 127.415 301.69 127.348C302.491 128.149 302.958 128.883 302.024 129.684C301.89 129.818 301.757 130.352 301.89 130.485C302.024 130.686 302.424 130.686 302.691 130.686C303.225 130.686 303.759 130.619 304.293 130.552C304.36 131.42 304.026 132.488 305.494 132.554C305.628 132.554 305.962 132.955 305.895 133.088C305.828 133.355 305.628 133.622 305.361 133.756C304.894 133.956 304.36 134.09 303.826 134.156C303.091 134.223 302.558 134.357 302.958 135.358C303.225 136.025 302.691 136.225 302.157 136.092C301.289 135.958 300.956 135.358 301.089 134.49C300.755 134.49 300.422 134.49 300.088 134.49C299.754 133.556 299.42 132.755 298.086 133.088C297.351 133.289 296.484 132.755 295.816 132.621C296.217 131.753 296.951 130.886 296.817 130.285C296.484 128.883 297.685 128.483 298.019 127.549C298.086 127.415 298.753 127.282 298.887 127.415C300.088 128.483 300.689 127.815 301.156 126.681C301.289 126.414 301.757 126.08 301.757 125.88C301.556 124.612 301.823 123.944 303.025 123.21C303.158 123.143 303.225 122.876 303.292 122.676C302.024 122.543 301.823 121.875 302.224 120.807C302.224 120.807 301.89 120.607 301.69 120.473C300.355 119.873 299.754 118.805 300.355 117.87C300.822 117.069 300.422 116.869 300.021 116.535C299.621 116.202 299.287 115.868 298.82 115.668C298.553 115.534 298.019 115.468 297.819 115.668C297.485 116.002 297.218 116.469 298.019 116.736C298.286 116.802 298.419 117.203 298.62 117.403C298.286 117.537 298.019 117.67 297.685 117.87C297.485 118.004 297.218 118.271 297.285 118.404C297.485 119.205 297.752 119.94 297.885 120.674C297.952 120.874 297.819 121.208 297.685 121.408C297.285 121.942 295.95 122.009 295.349 121.541C294.682 120.941 295.282 120.473 295.616 120.006C295.683 119.94 295.816 119.873 295.816 119.739C295.883 119.472 295.883 119.272 295.883 119.005C295.683 119.072 295.416 119.139 295.216 119.139C294.815 119.139 294.481 119.139 294.081 119.139C293.881 117.737 295.216 118.204 295.883 117.67C295.683 117.27 295.549 116.802 295.149 115.935C294.548 116.802 294.148 117.336 293.747 117.937C293.614 117.87 293.413 117.737 293.28 117.67C293.48 117.203 293.547 116.602 293.881 116.269C294.815 115.401 293.28 115.401 293.48 114.867C293.614 114.4 294.949 113.932 295.483 114.066C295.683 114.133 296.016 113.999 296.217 113.999C295.75 113.532 295.416 112.931 294.882 112.598C294.415 112.264 293.814 112.197 293.68 113.065C293.614 113.265 293.413 113.465 293.28 113.665C293.08 113.465 292.879 113.332 292.746 113.131C291.812 111.797 290.944 110.395 290.076 109.127C289.809 109.46 289.609 109.794 289.342 110.128C289.275 109.794 289.208 109.46 289.208 109.127C289.208 108.526 287.74 106.991 287.139 107.124C287.073 107.124 286.939 107.191 286.872 107.258C286.539 107.792 286.005 108.459 286.071 108.927C286.138 109.327 287.006 109.661 287.54 109.928C287.807 110.061 288.074 110.061 288.541 110.128C288.141 110.595 287.807 110.929 287.673 111.263C287.54 111.596 287.54 112.064 287.673 112.331C288.274 113.398 288.274 113.332 287.139 113.532C286.672 113.599 286.272 113.799 285.804 113.932C285.537 113.999 285.204 113.932 285.003 113.866C284.536 113.599 284.069 112.798 283.602 113.665C283.268 114.333 281.933 115.134 283.402 116.002C283.602 116.135 283.802 116.469 284.002 116.535C284.67 116.736 285.337 117.003 286.005 116.869C286.205 116.802 287.206 116.269 286.806 115.401C286.739 115.201 287.139 114.6 287.406 114.466C288.207 114.133 289.008 113.866 289.409 112.998C289.475 112.798 290.21 112.865 290.677 112.931C291.011 112.998 291.411 113.198 291.545 113.398C291.812 114.199 291.945 115.067 292.145 115.935C291.745 115.935 291.344 116.002 291.011 115.868C290.81 115.801 290.81 115.267 290.61 115.067C290.276 114.8 289.809 114.533 289.409 114.466C289.208 114.4 288.941 114.8 288.741 115.067C289.008 115.267 289.208 115.534 289.475 115.735C290.343 116.269 290.877 116.936 290.276 118.004C290.143 118.271 290.143 118.538 290.076 118.938C290.81 118.605 291.411 118.271 292.012 118.004C292.412 118.805 290.61 118.738 291.611 119.539C290.276 119.406 290.744 120.607 290.41 121.208C290.21 121.475 289.742 121.675 289.475 121.608C288.741 121.408 288.341 121.608 288.207 122.342C288.141 122.609 287.874 122.943 287.673 123.143C287.473 123.277 287.206 123.344 287.006 123.344C286.939 123.344 286.806 123.01 286.806 122.81C286.806 122.543 286.872 122.276 286.939 121.875C286.338 122.142 285.871 122.342 285.471 122.543C285.404 122.676 285.404 122.81 285.337 122.943C285.27 122.876 285.137 122.81 285.204 122.81C285.27 122.676 285.337 122.609 285.404 122.476C285.537 122.142 285.671 121.742 285.738 121.408C285.804 120.941 285.871 120.407 285.804 119.94C285.804 119.739 285.537 119.539 285.404 119.339C285.204 119.539 284.87 119.806 284.87 120.006C284.87 120.54 285.003 121.141 285.07 121.675C284.47 120.807 282.534 121.675 282.934 120.006C282.334 120.14 281.666 120.54 281.399 120.407C280.331 119.539 279.864 120.34 279.33 121.007C280.064 121.875 280.732 122.676 281.399 123.544C281.8 122.943 282.267 122.276 282.801 121.541C283.602 122.142 283.802 122.609 283.402 123.477C283.068 124.278 282.801 125.413 283.068 126.28C283.402 127.215 284.269 128.016 284.937 128.883C285.204 128.416 285.471 127.949 285.738 127.549C286.672 128.216 287.607 128.883 288.608 129.618C289.943 129.084 289.809 127.615 289.609 126.147C289.542 125.546 289.609 124.945 289.609 124.345C290.81 125.413 290.744 125.413 290.677 126.881C290.677 127.282 290.877 127.682 291.011 128.082C291.611 129.751 292.679 131.353 290.877 132.955C290.744 133.088 290.677 133.422 290.677 133.689C290.61 134.423 290.477 135.157 290.477 135.958C290.477 136.225 291.011 136.759 291.144 136.693C291.812 136.426 292.479 136.426 292.546 137.16C292.612 137.761 293.68 138.695 292.212 139.095C292.012 139.162 291.812 139.496 291.812 139.763C291.678 141.165 290.61 141.632 289.676 142.366C289.275 142.7 288.674 142.967 288.541 143.367C288.474 143.634 289.075 144.101 289.342 144.368C289.075 144.635 288.741 144.969 288.407 145.37C288.808 145.637 289.208 145.903 289.609 146.037C290.343 146.304 291.144 146.504 291.878 146.771C291.812 146.971 291.745 147.172 291.678 147.372C290.477 147.105 289.275 146.838 288.074 146.571C287.874 147.038 287.74 147.505 287.473 147.906C287.273 148.173 286.939 148.373 286.672 148.573C286.472 148.24 286.071 147.906 286.005 147.572C285.938 147.172 286.205 146.771 286.338 146.371C286.672 145.503 287.006 144.569 287.273 143.701C287.139 143.567 287.006 143.501 286.939 143.367C286.071 143.968 285.27 144.569 284.403 145.103C284.136 145.036 283.669 144.902 283.268 144.969C282.4 145.169 281.599 145.503 280.799 145.77C275.592 147.172 270.386 147.973 265.38 144.902C264.78 144.569 264.446 144.702 264.379 145.37C264.179 147.772 264.379 150.042 265.781 152.111C266.515 153.179 267.383 154.113 268.317 154.981C269.051 155.648 269.385 156.116 268.451 156.85C267.449 157.651 266.515 158.585 265.514 159.386C260.708 163.057 255.569 163.791 250.229 160.721C248.027 159.453 245.957 157.918 243.822 156.583C241.352 154.981 238.882 153.446 236.413 151.911C235.679 151.443 235.078 151.51 234.344 152.111C232.942 153.245 231.474 154.247 229.938 155.181C226.868 157.117 223.598 158.518 219.793 158.051C217.524 157.784 215.321 157.317 213.052 156.916C210.916 156.583 208.847 156.716 207.178 158.051C206.244 158.852 205.843 158.452 205.51 157.717C204.642 155.782 203.841 153.779 202.973 151.777C202.506 152.044 201.839 152.311 201.238 152.645C198.301 154.18 195.164 155.114 191.827 154.781C189.824 154.58 187.755 154.18 185.82 153.512C183.55 152.778 181.415 152.712 179.145 153.312C177.076 153.779 175.007 154.113 172.871 154.113C170.535 154.113 168.266 153.713 165.93 153.379C163.26 153.045 160.857 153.646 158.721 155.248C157.186 156.449 155.851 157.918 154.449 159.253C153.648 160.054 152.781 160.788 151.846 161.455C151.446 161.789 150.778 161.789 150.244 161.922C150.111 161.322 149.644 160.587 149.844 160.12C150.311 158.719 150.912 157.25 151.713 156.049C153.048 154.046 153.915 151.911 154.182 149.574C154.449 147.639 153.982 145.77 152.38 144.368C150.912 143.1 149.31 143.434 147.708 144.168C146.907 144.569 145.906 144.635 145.038 144.836C144.972 144.702 144.905 144.569 144.838 144.502C145.773 142.833 146.306 141.165 146.173 139.229C146.039 137.427 144.838 136.225 143.036 136.159C140.633 136.092 138.898 137.427 137.429 139.029C133.825 143.033 132.357 147.772 132.757 153.112C132.957 155.849 133.892 157.183 136.428 157.984C136.762 158.118 137.029 158.185 137.363 158.318C138.564 158.986 138.831 159.92 138.097 161.121C137.096 162.723 136.161 164.392 134.893 165.794C133.558 167.329 132.891 168.73 134.159 170.533C134.359 170.8 134.426 171.267 134.493 171.6C135.026 174.471 134.893 177.14 132.49 179.209C131.289 180.211 130.822 181.612 130.421 183.014C130.087 184.349 129.82 185.751 129.42 187.085C129.153 187.953 128.953 188.954 127.818 189.555C127.751 184.282 127.484 179.209 128.953 174.204C129.286 173.202 129.553 172.201 128.819 171.133C128.485 170.666 128.419 169.865 128.485 169.264C128.619 167.396 128.953 165.527 129.086 163.591C129.286 160.654 128.686 157.784 127.618 154.981C126.483 151.911 125.882 148.84 126.149 145.57C126.283 143.634 126.416 141.699 126.884 139.763C127.217 138.228 127.084 137.16 125.682 136.426C125.682 136.426 125.749 136.225 125.749 136.159C126.216 136.225 126.55 136.292 126.75 136.292C127.551 136.292 127.685 135.958 128.018 134.69C128.419 133.289 128.953 131.887 129.286 130.485C129.353 130.152 130.421 129.15 128.886 129.217C128.886 129.217 128.752 128.75 128.819 128.483C128.886 128.082 129.019 127.682 129.153 127.215C129.286 127.081 129.353 127.015 129.487 126.881C129.887 126.681 130.621 126.547 130.755 126.214C131.689 123.677 132.557 121.141 133.291 118.538C133.425 118.004 133.892 117.003 132.69 116.736C132.69 116.269 132.624 115.868 132.624 115.134C132.423 115.735 132.29 116.002 132.223 116.269C132.09 116.135 131.956 116.068 131.889 115.935C131.823 115.401 131.756 114.8 131.689 114.266C131.556 114.199 131.489 114.133 131.356 114.066C130.955 114.533 130.421 114.934 130.221 115.534C129.954 116.202 129.754 116.602 128.953 116.269C128.886 116.269 128.686 116.602 128.552 116.802C128.552 116.802 128.552 116.802 128.619 116.802C128.752 117.003 128.886 117.27 129.086 117.47C128.752 117.537 128.419 117.67 128.085 117.67C126.884 117.603 125.615 119.005 125.882 120.14C126.016 120.807 125.615 121.074 125.081 121.007C123.747 120.74 123.012 121.608 122.211 122.409C121.344 123.344 120.409 124.211 119.542 125.079C118.474 126.214 117.339 127.348 116.405 128.616C115.804 129.351 115.47 130.218 114.936 131.019C114.736 131.353 114.536 131.82 114.269 131.887C113.001 132.087 113.001 132.955 113.001 133.889C113.001 134.624 112.867 135.291 111.799 134.69C111.666 134.624 111.065 134.89 110.998 135.091C110.731 136.092 110.197 136.693 109.33 137.36C108.262 138.161 107.461 139.496 106.793 140.697C106.192 141.832 104.591 142.566 105.191 144.235C105.191 144.235 104.991 144.368 104.858 144.435C103.322 145.57 102.188 146.905 102.188 148.907C102.188 149.107 101.988 149.241 101.854 149.374C101.52 149.641 101.053 149.841 100.92 150.175C100.653 151.043 99.2509 151.51 99.9851 152.778C98.3165 153.579 98.1163 155.315 97.3153 156.649C96.4476 158.051 95.8469 159.653 95.1127 161.188C94.4453 162.723 93.7778 164.258 93.1104 165.794C92.4429 167.329 91.8422 168.931 91.3082 170.466C90.7743 171.934 90.4406 173.469 89.8398 174.938C88.7719 177.808 87.971 180.811 87.2368 183.815C85.5681 190.623 84.3 197.564 83.8995 204.639C83.6325 209.178 83.0986 213.717 83.5658 218.256C83.9663 222.594 84.0997 226.999 84.6337 231.338C85.0342 235.075 85.6349 238.813 86.4358 242.551C88.4382 251.695 91.3082 260.505 95.1795 269.049C98.984 277.392 103.523 285.268 108.996 292.61C111.599 296.147 114.402 299.485 117.339 302.822C119.074 304.824 121.077 306.56 123.012 308.429C123.012 308.228 123.079 308.028 123.012 307.895C121.811 303.222 121.41 298.483 121.544 293.745C121.544 292.543 121.01 290.674 123.079 290.074C123.213 290.007 123.346 289.54 123.346 289.206C123.279 288.472 123.213 287.671 123.079 286.937C122.278 281.33 122.946 275.79 123.546 270.25C124.08 265.445 124.547 260.706 125.081 255.9C125.282 254.098 125.415 252.229 125.949 250.494C126.817 247.623 126.817 244.82 125.749 242.084C123.613 236.344 123.146 230.403 123.146 224.329C123.146 222.594 123.413 220.859 123.413 219.123C123.413 215.986 123.213 212.849 123.146 209.712C123.146 208.11 122.879 206.308 123.48 204.906C124.414 202.771 124.748 200.701 124.748 198.432C124.748 196.029 125.749 194.094 127.751 192.559C128.819 191.691 129.82 190.556 130.421 189.355C131.622 186.818 132.423 184.082 133.558 181.546C134.426 179.61 135.56 177.741 136.762 175.939C137.429 174.871 138.764 174.671 139.832 175.138C140.9 175.605 141.634 176.54 141.701 177.808C141.701 178.208 141.634 178.609 141.768 178.942C141.968 179.61 142.235 180.211 142.435 180.811C143.036 180.478 143.637 180.211 144.171 179.81C145.572 178.609 146.373 178.475 147.908 179.543C150.845 181.479 152.714 184.215 154.049 187.419C155.184 190.156 156.585 192.492 158.721 194.561C160.19 195.963 161.391 197.698 162.392 199.5C163.66 201.636 164.661 203.972 165.596 206.241C167.265 210.113 168.666 213.984 168.533 218.322C168.466 221.126 167.598 223.528 165.529 225.464C164.795 226.131 164.128 226.866 163.66 227.667C162.058 230.203 162.726 232.472 165.462 233.607C166.464 234.074 167.131 234.742 167.465 235.81C167.799 236.878 167.999 238.012 168.399 239.08C169.801 243.152 172.804 246.022 175.941 248.691C179.078 251.428 182.483 253.964 185.486 256.768C188.69 259.771 190.358 263.642 190.091 268.181C189.825 272.586 187.622 275.189 183.217 275.123C180.146 275.123 178.011 276.324 176.475 278.86C174.807 281.597 173.205 284.4 171.536 287.07C170.402 288.872 169 290.407 167.064 291.542C163.327 293.678 159.722 293.144 156.118 291.008C155.05 290.341 153.915 289.807 152.781 289.406C150.712 288.739 149.644 289.473 149.243 291.609C149.043 292.543 148.91 293.478 147.842 293.878C145.439 294.812 142.902 295.213 140.366 294.546C139.098 294.212 137.963 293.211 136.695 292.543C136.228 292.276 135.56 291.876 135.293 292.076C134.96 292.276 134.693 293.01 134.693 293.478C134.693 294.345 134.893 295.213 135.026 296.014C135.16 297.015 135.36 298.016 135.427 299.084C135.427 299.485 135.16 300.019 134.826 300.286C134.626 300.419 134.025 300.152 133.692 299.952C133.224 299.618 132.891 299.084 132.423 298.684C131.956 298.283 131.356 298.083 130.822 297.749C130.688 298.283 130.488 298.817 130.354 299.351C130.354 299.418 130.221 299.418 129.954 299.618C129.42 298.55 128.886 297.549 128.285 296.481C128.152 296.214 127.818 296.081 127.618 295.88C127.484 296.147 127.151 296.414 127.151 296.681C127.151 297.215 127.284 297.749 127.351 298.283C127.618 299.952 127.284 300.553 125.682 300.82C125.816 302.355 126.283 303.957 125.949 305.425C125.682 306.76 125.615 308.095 125.348 309.363C125.081 310.564 125.549 311.098 126.283 311.699C128.152 313.301 130.021 314.836 131.889 316.371C138.431 321.778 145.506 326.383 153.048 330.388C163.126 335.727 173.806 339.732 184.952 342.268C190.759 343.603 196.633 344.671 202.573 345.005C204.575 345.139 206.578 345.339 208.58 345.339C213.719 345.339 218.859 345.406 223.998 345.205C227.402 345.072 230.739 344.471 234.143 344.004C236.279 343.67 238.415 343.336 240.484 342.669C242.687 341.935 244.756 340.733 246.892 339.799C249.495 338.664 251.03 336.795 251.564 333.992C252.498 328.919 253.566 323.78 254.634 318.707C254.968 317.105 254.701 315.771 253.767 314.569C252.298 312.7 251.431 310.564 250.897 308.295C249.762 303.556 247.159 300.019 242.487 298.217C239.216 296.948 235.812 295.88 232.475 294.746C226.001 292.476 220.794 288.605 217.19 282.732C214.12 277.659 213.119 272.119 214.187 266.179C215.121 261.173 217.457 257.035 221.061 253.564C222.53 252.162 223.531 250.56 224.198 248.691C224.532 247.757 224.999 246.823 225.467 245.888C226.468 244.086 228.203 242.951 229.938 241.883C238.615 236.41 247.292 230.937 256.036 225.598C259.84 223.261 263.778 220.925 267.783 218.923C272.322 216.587 277.194 215.919 282.133 217.455C284.87 218.322 287.54 219.457 290.143 220.725C295.416 223.261 300.689 225.931 305.895 228.534C308.565 229.869 311.234 231.204 313.904 232.539C314.705 232.94 315.039 233.34 314.638 234.274C312.77 238.479 312.169 242.885 312.903 247.423C313.571 251.762 315.172 255.566 318.376 258.57C321.246 261.306 323.315 261.64 326.853 259.838C329.79 258.37 332.86 257.702 336.064 258.97C336.798 259.237 337.198 259.037 337.399 258.303C338.934 252.83 340.469 247.357 341.937 241.883C342.338 240.482 342.204 240.415 340.669 240.682C340.602 240.682 340.469 240.615 340.335 240.482C342.672 232.673 341.937 225.331 336.598 218.723C336.13 220.525 335.93 222.327 335.663 224.129C334.929 228.401 334.195 232.673 333.461 236.944C333.327 237.678 333.06 238.012 332.459 238.212C329.99 239.147 326.719 238.012 325.318 235.743C324.784 234.875 324.784 234.141 325.651 233.473C326.719 232.606 327.654 231.671 328.722 230.804C329.523 230.136 329.723 229.402 329.456 228.468C327.854 222.193 326.185 215.919 324.65 209.579C324.383 208.511 323.916 208.177 322.715 208.177C319.711 208.177 316.708 208.244 313.771 207.776C310.233 207.243 306.829 206.108 303.358 205.307C302.224 205.04 301.022 204.906 299.888 204.973C297.618 205.107 296.217 206.642 294.882 208.244C293.881 209.445 292.879 210.647 291.812 211.781C290.61 213.049 288.941 213.517 287.34 213.316C283.602 212.849 280.999 210.78 279.797 207.042C278.462 203.038 278.329 198.899 278.663 194.828C278.996 191.023 280.865 189.622 284.803 189.555C286.472 189.555 288.14 189.488 289.809 189.555C292.412 189.622 294.481 190.756 295.95 192.959C296.617 194.027 297.351 195.028 298.152 195.963C299.554 197.631 301.356 197.898 303.225 196.83C304.894 195.896 305.761 194.361 306.295 192.625C307.029 190.156 306.562 187.753 305.895 185.417C305.428 183.748 305.828 183.815 307.163 183.281C310.033 182.213 312.903 181.879 315.973 182.08C320.112 182.346 324.183 182.413 328.321 182.88C331.258 183.214 334.128 184.082 336.998 184.749C337.799 184.95 338.6 185.283 339.067 183.882C339.334 185.617 339.468 185.684 341.27 185.484C341.136 185.016 339.868 184.749 340.936 184.015C341.07 183.948 341.003 183.481 340.869 183.214C339.735 180.411 339.868 177.14 337.866 174.604C337.732 174.471 337.866 174.204 337.799 174.003C337.732 173.469 337.799 172.935 337.599 172.468C336.931 170.533 336.197 168.664 335.463 166.728C335.263 166.194 334.862 165.794 334.595 165.26C334.395 164.859 334.328 164.392 334.128 163.925C333.794 163.057 333.661 161.722 333.06 161.388C332.126 160.854 332.259 160.32 332.326 159.453C331.191 159.987 330.123 160.454 329.322 161.255C328.788 161.856 328.655 161.989 328.188 161.322C328.054 161.121 327.787 161.055 327.52 160.921C327.454 161.188 327.32 161.388 327.253 161.655C327.12 162.056 327.187 162.523 326.92 162.857C326.653 163.191 326.185 163.391 325.785 163.591C325.718 163.124 325.518 162.723 325.518 162.256C325.585 160.587 327.32 160.254 327.988 158.986C328.054 158.852 328.588 158.852 328.722 158.986C329.723 159.853 330.524 159.119 331.392 158.852C331.525 158.785 331.659 158.585 331.725 158.385C331.525 158.385 331.325 158.452 331.191 158.385C330.257 158.118 329.723 157.183 329.99 156.182C330.257 155.315 330.123 154.58 329.456 153.98C329.456 154.247 329.523 154.514 329.456 154.781C329.189 155.582 328.455 156.249 328.989 157.183C328.989 157.25 328.722 157.584 328.588 157.584C328.321 157.584 327.921 157.45 327.921 157.317C327.721 156.049 327.32 156.049 326.586 156.983C326.519 157.117 326.252 157.117 326.052 157.117C326.052 156.916 325.918 156.65 325.985 156.516C326.185 156.249 326.452 155.982 326.653 155.715C325.651 155.381 324.183 156.116 323.916 157.05C323.849 157.317 323.582 157.584 323.382 157.851C323.315 157.584 323.315 157.25 323.182 156.983C323.048 156.65 322.915 155.982 322.781 155.982C321.58 155.982 320.379 155.849 319.311 156.249C318.176 156.649 317.375 156.716 316.708 155.782C316.374 156.182 316.107 156.716 315.706 156.85C314.972 157.117 314.839 156.316 314.438 155.915C313.37 154.847 313.838 153.446 313.504 152.178C313.237 151.443 314.305 150.709 315.172 151.043C315.706 151.176 316.174 151.377 316.641 151.71C316.841 151.844 317.108 152.244 317.041 152.445C316.975 152.645 316.574 152.912 316.374 152.912C315.973 152.845 315.573 152.578 315.172 152.511C314.972 152.511 314.772 152.712 314.505 152.845C314.972 153.579 314.972 154.714 316.174 154.781C317.041 154.847 317.976 154.981 318.91 154.914C319.511 154.847 320.445 154.514 320.512 154.18C320.579 153.579 320.312 152.778 319.845 152.378C319.11 151.71 318.109 151.31 317.242 150.776C316.641 150.375 316.107 149.908 315.506 149.441C316.24 149.174 317.041 149.041 317.108 148.774C317.308 147.372 316.04 148.64 315.573 147.973C316.107 147.639 316.574 147.372 317.375 146.905C316.574 146.971 316.174 146.971 315.439 147.038C315.907 146.638 316.174 146.237 316.374 146.237C317.108 146.304 317.175 145.903 317.175 145.37C317.175 144.702 317.375 143.968 317.108 143.434C316.374 142.099 318.042 141.298 317.642 140.163C317.642 140.163 317.909 139.963 318.042 139.963C318.376 139.963 318.91 139.963 318.91 140.097C319.11 140.564 319.311 141.298 319.11 141.565C318.243 142.433 320.045 142.766 319.444 143.501C319.978 143.834 320.512 144.235 321.046 144.569C321.313 144.769 321.446 144.969 321.713 145.169C321.446 145.303 321.113 145.37 320.913 145.57C320.646 145.837 320.178 146.371 320.245 146.437C320.712 146.905 321.246 147.305 321.78 147.706C321.78 147.706 321.98 147.639 322.047 147.505C322.181 146.638 322.581 145.703 322.381 144.969C321.98 143.701 322.715 143.901 323.449 143.901C323.582 143.968 323.649 144.101 323.783 144.168C323.716 144.035 323.582 143.968 323.516 143.834C323.382 143.434 323.315 142.967 323.048 142.633C322.715 142.166 322.047 141.432 321.914 141.565C320.712 142.232 320.913 141.298 320.846 140.697C320.779 140.297 320.913 139.896 320.779 139.563C320.579 139.095 320.245 138.628 319.845 138.228C319.778 138.161 319.244 138.495 318.91 138.628C318.51 138.762 318.109 138.762 317.709 138.895C317.642 138.762 317.575 138.628 317.442 138.561C318.576 138.295 319.11 137.694 318.51 136.759C317.642 135.358 316.641 134.09 315.64 132.755C315.573 132.688 315.172 132.755 314.972 132.821C314.038 133.355 313.504 132.821 312.903 131.954C313.571 131.82 314.038 131.753 314.905 131.62C313.971 130.819 313.304 130.218 312.636 129.551ZM304.293 130.485C304.293 130.485 304.226 130.485 304.159 130.552C304.226 130.485 304.226 130.485 304.293 130.419V130.485ZM298.286 125.212C299.154 124.345 299.687 123.143 299.621 122.209C299.621 121.942 299.554 121.675 299.687 121.408C299.821 121.208 300.021 120.941 300.221 120.941C300.422 120.941 300.689 121.208 300.755 121.408C301.022 121.875 299.954 125.746 299.487 126.08C299.22 126.214 298.887 126.347 298.62 126.347C298.419 126.347 298.086 126.147 298.019 125.947C297.952 125.746 298.086 125.413 298.286 125.212ZM288.274 126.147C287.94 125.68 287.607 125.279 287.34 124.745C287.34 124.745 287.673 124.345 287.74 124.411C288.207 124.678 288.608 125.012 289.208 125.413C288.674 125.813 288.474 126.013 288.274 126.147ZM290.21 123.21C289.742 123.544 289.208 123.677 288.608 123.811C288.541 123.811 288.274 123.544 288.274 123.41C288.274 123.21 288.408 123.01 288.608 122.876C289.142 122.609 289.742 122.409 290.477 122.142C290.343 122.609 290.41 123.077 290.21 123.21ZM131.289 116.936C131.823 116.669 132.423 116.602 133.024 116.535C132.624 117.069 132.29 117.67 131.823 118.137C131.689 118.271 131.222 118.071 130.888 118.004C131.022 117.67 131.089 117.069 131.289 116.936ZM127.484 124.745C128.285 125.346 129.019 126.013 129.754 126.614C129.62 126.748 129.553 126.814 129.42 126.948C128.953 127.215 128.552 127.548 128.085 127.815C127.818 127.949 127.351 128.082 127.151 128.016C126.884 127.815 126.617 127.348 126.683 127.081C126.884 126.28 127.217 125.546 127.484 124.745ZM111.933 148.106C111.399 147.906 110.865 147.772 110.397 147.505C110.264 147.439 110.197 147.172 110.064 146.971C110.264 146.905 110.598 146.638 110.731 146.771C111.265 147.038 111.732 147.439 112.2 147.772C112.133 147.839 112.066 147.973 111.933 148.106ZM113.267 142.633C113.134 141.165 113.001 139.763 112.8 138.428C112.8 138.428 112.8 138.428 112.8 138.361C112.734 138.295 112.6 138.161 112.533 138.094C112.6 138.028 112.667 138.028 112.734 137.961C112.734 138.094 112.8 138.228 112.8 138.361C112.8 138.361 112.8 138.361 112.8 138.428C114.269 139.229 114.536 141.098 113.267 142.633ZM121.811 130.819C121.677 130.752 121.544 130.485 121.477 130.352C121.611 130.218 121.811 130.018 122.011 130.018C122.879 129.818 123.346 130.285 123.48 131.687C122.946 131.353 122.345 131.086 121.811 130.819ZM123.079 126.614C122.478 126.481 121.878 126.147 121.344 125.947C121.344 125.947 121.344 125.68 121.41 125.68C122.078 125.613 122.679 125.546 123.346 125.546C123.546 125.546 123.68 125.88 123.947 126.147C123.613 126.28 123.279 126.614 123.079 126.614ZM269.919 152.845C269.118 152.311 268.584 151.644 269.051 150.576C269.585 151.043 270.186 151.377 270.586 151.844C270.787 152.044 270.72 152.511 270.72 152.845C270.453 152.912 270.052 152.979 269.919 152.845ZM277.661 148.44C277.128 148.373 276.66 147.839 276.193 147.505C276.861 147.238 277.461 146.905 278.195 146.704C278.329 146.638 278.663 147.038 279.197 147.505C278.462 147.973 277.995 148.507 277.661 148.44ZM338.066 179.276C338.133 179.209 338.467 179.476 338.667 179.61C338.467 179.877 338.2 180.211 337.866 180.611C337.666 180.344 337.465 180.144 337.465 180.077C337.599 179.743 337.799 179.476 338.066 179.276ZM320.045 169.732C320.112 169.598 320.379 169.598 320.579 169.598C320.646 170.266 320.712 170.866 320.712 171.534C319.911 171 319.578 170.466 320.045 169.732ZM324.851 171.667C324.717 172.134 324.383 172.468 324.05 173.136C323.716 172.535 323.382 172.068 323.249 171.6C323.182 171.267 323.249 170.666 323.382 170.599C323.783 170.533 324.317 170.533 324.717 170.733C324.851 170.733 324.917 171.333 324.851 171.667ZM329.189 178.876C328.922 178.609 328.588 178.342 328.455 178.008C328.388 177.875 328.922 177.541 329.322 177.207C329.523 177.541 329.856 177.875 329.79 178.008C329.723 178.275 329.389 178.542 329.189 178.876ZM332.459 177.808C332.259 177.741 332.059 177.741 331.859 177.674C332.059 177.074 332.192 176.406 332.393 175.805L332.793 175.872C332.66 176.54 332.526 177.14 332.459 177.808ZM336.998 183.281C336.664 183.615 336.397 183.815 336.197 184.082C335.997 183.882 335.597 183.548 335.663 183.481C335.797 183.147 336.131 182.88 336.397 182.613C336.531 182.747 336.731 182.947 336.998 183.281ZM335.73 173.736C335.864 173.87 336.064 174.07 336.331 174.337C336.064 174.604 335.864 174.738 335.663 174.938C335.53 174.738 335.263 174.537 335.263 174.404C335.263 174.137 335.53 173.937 335.73 173.736ZM334.529 167.996C334.729 168.664 334.929 169.131 334.996 169.531C334.996 169.665 334.595 169.798 334.395 169.999C334.262 169.665 333.995 169.264 333.995 168.931C333.928 168.73 334.262 168.463 334.529 167.996ZM331.125 165.927C331.125 165.86 331.792 165.994 331.792 165.994C331.792 166.528 331.792 167.062 331.725 167.662C331.659 167.596 331.725 167.662 331.725 167.662C332.193 167.863 332.593 168.063 333.06 168.263C332.793 168.463 332.526 168.73 332.259 168.797C331.592 168.864 330.791 168.997 330.591 167.996C330.524 167.863 330.524 167.662 330.524 167.529C330.724 166.928 330.924 166.394 331.125 165.927ZM330.991 169.465C331.125 169.398 331.525 169.798 331.525 169.999C331.592 170.199 331.258 170.466 331.058 170.866C330.724 170.533 330.39 170.332 330.39 170.065C330.39 169.865 330.724 169.531 330.991 169.465ZM327.053 166.995C327.12 166.728 327.454 166.528 327.654 166.328C327.921 165.927 328.054 165.46 328.321 164.993C328.855 165.393 329.389 165.794 329.923 166.194C329.99 166.261 329.99 166.394 329.99 166.528C329.923 166.661 329.99 166.862 329.856 166.928C329.122 167.529 329.256 168.196 329.523 168.997C329.589 169.264 329.256 169.865 328.922 169.999C328.388 170.266 328.188 169.932 328.388 169.331C328.388 169.198 328.121 168.931 327.921 168.864C327.654 168.73 327.187 169.732 327.053 168.73C326.92 168.196 326.986 167.529 327.053 166.995ZM325.384 178.142C325.384 177.808 325.184 177.407 325.318 177.14C325.651 176.606 326.052 176.139 324.984 176.139C324.917 176.139 324.851 175.672 324.917 175.472C324.917 175.071 324.984 174.671 325.117 174.337C325.251 174.003 325.451 173.67 325.651 173.403C325.985 173.67 326.252 173.937 326.586 174.27C326.452 174.337 326.319 174.471 326.185 174.537C326.319 174.938 326.519 175.338 326.586 175.739C326.653 176.339 326.786 177.074 326.653 177.608C326.452 177.875 325.785 178.008 325.384 178.142ZM323.716 165.593C323.983 165.26 324.317 164.926 324.65 164.859C325.251 164.859 325.852 165.059 326.452 165.26C326.185 165.727 325.852 166.194 325.585 166.661C325.384 166.995 325.051 167.329 324.984 167.729C324.917 168.664 324.383 168.797 323.449 168.797C323.182 168.664 322.781 168.53 322.381 168.263C322.247 168.196 322.247 167.796 322.314 167.596C322.781 166.862 323.249 166.194 323.716 165.593ZM314.638 159.319C315.373 158.986 316.174 158.318 316.975 159.186C318.042 160.254 319.311 160.254 320.646 159.987C322.314 159.586 322.314 159.653 322.181 161.322C322.181 161.655 322.381 162.056 322.648 162.857C321.847 162.39 321.246 162.256 320.846 161.856C320.245 161.188 319.644 161.255 318.977 161.589C318.243 161.989 318.376 162.657 318.51 163.324C318.576 163.658 318.777 163.925 318.777 164.258C318.843 164.592 318.91 165.126 318.777 165.193C318.443 165.393 317.909 165.46 317.575 165.326C316.908 164.993 316.307 164.459 315.64 163.991C316.174 163.791 316.708 163.591 317.375 163.391C317.175 162.857 317.041 162.323 316.774 161.856C316.374 161.121 315.973 160.32 314.839 160.587C314.572 160.654 314.238 160.32 313.904 160.12C314.171 159.853 314.371 159.453 314.638 159.319ZM309.833 138.228C309.9 138.561 309.9 138.828 309.966 139.095C309.566 139.095 309.099 139.095 308.698 139.095C308.698 138.895 308.631 138.762 308.631 138.561C308.965 138.428 309.366 138.361 309.833 138.228ZM306.496 141.098C307.096 141.231 307.764 141.699 308.231 141.565C309.165 141.298 309.9 141.498 310.634 142.032C310.967 142.232 311.568 142.166 311.835 142.366C312.169 142.633 312.369 143.167 312.636 143.567C312.302 143.501 311.902 143.501 311.568 143.367C310.901 143.033 310.367 142.766 310.3 143.901C310.3 144.101 309.966 144.368 309.766 144.569C309.499 144.435 309.299 144.302 309.299 144.235C309.165 142.766 307.897 142.9 306.963 142.499C306.562 142.299 306.162 142.099 305.895 141.832C305.761 141.632 305.828 141.298 305.761 140.964C305.962 141.031 306.229 141.031 306.496 141.098ZM312.169 146.237C311.702 146.504 311.368 146.771 311.234 146.704C310.967 146.638 310.834 146.237 310.767 145.97C310.7 145.837 310.967 145.57 311.101 145.37C311.368 145.637 311.702 145.837 312.169 146.237ZM299.888 134.49C300.155 135.091 300.488 135.625 300.689 136.225C300.956 136.893 300.689 137.293 300.021 137.36C299.354 137.494 299.087 137.026 299.22 136.492C299.487 135.825 298.686 134.824 299.888 134.49ZM296.617 134.624C296.751 134.624 296.951 135.424 296.817 135.691C296.617 136.025 296.15 136.159 295.549 136.559C296.083 136.693 296.484 136.693 296.617 136.893C296.751 137.093 296.684 137.494 296.751 137.827C296.484 137.761 296.283 137.694 296.016 137.694C295.416 137.56 294.815 137.427 294.214 137.227C294.348 136.826 294.481 136.359 294.548 135.958C294.615 135.558 294.548 134.757 294.682 134.69C295.282 134.49 295.95 134.49 296.617 134.624ZM295.149 142.833C295.282 142.766 295.349 142.633 295.483 142.499C295.549 142.433 295.683 142.433 295.816 142.433C296.083 143.033 296.417 143.701 296.617 144.302C296.684 144.569 296.484 144.969 296.35 145.303C296.016 145.236 295.683 145.169 295.416 144.969C295.216 144.902 295.082 144.702 294.949 144.569C293.48 143.501 293.48 143.501 295.149 142.833ZM293.48 141.832C293.881 141.498 294.214 141.031 294.682 140.831C294.882 140.764 295.349 141.165 295.683 141.432C295.683 141.565 295.683 141.699 295.683 141.832C295.082 142.032 294.548 142.232 293.947 142.366C293.881 142.299 293.68 141.966 293.48 141.832ZM293.747 127.215C293.947 127.015 294.214 126.748 294.615 126.347C295.082 126.881 295.483 127.282 295.816 127.682C295.616 127.882 295.282 128.216 295.216 128.216C294.682 127.882 294.214 127.548 293.747 127.215ZM295.015 131.887C294.815 131.82 294.548 131.753 294.281 131.687C294.348 131.086 294.281 130.485 294.481 129.951C294.548 129.818 295.416 129.951 295.883 130.018C295.616 130.686 295.349 131.286 295.015 131.887ZM294.281 121.742C295.015 121.608 296.283 122.676 296.15 123.277C296.083 123.544 295.816 123.811 295.416 124.278C294.748 123.611 294.148 123.077 293.68 122.476C293.68 122.476 294.081 121.808 294.281 121.742ZM294.014 119.139C293.947 119.739 293.947 120.34 293.747 120.874C293.68 121.141 293.213 121.208 292.946 121.408C292.746 121.141 292.479 120.807 292.479 120.54C292.479 119.539 293.08 119.139 294.014 119.139ZM291.945 125.479C291.878 125.479 291.745 125.146 291.812 125.079C292.145 124.879 292.479 124.612 292.879 124.478C293.213 124.411 293.547 124.478 294.148 124.478C293.814 124.879 293.614 125.346 293.347 125.413C292.879 125.546 292.412 125.479 291.945 125.479ZM297.151 152.511C296.751 152.778 296.283 153.112 295.816 153.312C295.616 153.446 295.149 153.579 295.149 153.512C294.081 152.111 292.813 153.179 291.611 153.179C290.543 153.179 290.477 153.112 290.81 152.044C291.144 150.843 291.945 149.708 291.478 148.306C291.411 148.039 291.812 147.372 292.145 147.238C293.013 146.905 292.946 147.839 293.347 148.24C293.747 148.64 293.68 149.041 293.146 149.241C292.212 149.574 292.345 150.309 292.546 150.976C292.746 151.71 293.347 151.71 293.947 151.777C295.015 151.844 296.083 151.977 297.151 152.111C297.151 152.311 297.151 152.378 297.151 152.511ZM298.019 162.056C298.019 161.989 297.952 161.989 297.952 161.922C297.418 161.388 297.084 160.854 297.819 160.054C297.885 160.654 297.952 161.255 297.952 161.922C298.019 161.989 298.086 162.056 298.086 162.056H298.019ZM299.888 146.838C301.022 147.505 301.156 148.106 300.422 149.107C299.954 149.708 299.754 149.908 298.887 149.107C297.218 147.439 297.218 145.97 298.219 143.968C298.82 142.766 299.621 141.832 300.889 141.699C300.889 141.632 300.889 141.632 300.822 141.565C300.555 141.031 299.554 140.764 300.221 140.03C300.488 139.83 301.356 140.23 301.89 140.364C302.291 139.896 302.891 139.362 303.425 138.762C303.425 138.762 303.425 138.762 303.425 138.695C303.492 138.428 303.559 137.894 303.692 137.894C304.026 137.827 304.426 137.961 304.76 138.094C304.894 138.161 304.894 138.628 304.894 138.628C304.56 138.762 304.226 138.828 303.892 138.895C303.759 138.895 303.625 138.828 303.425 138.762C303.425 139.095 303.492 139.496 303.358 139.83C303.091 140.564 303.091 141.031 304.026 141.165C304.226 141.231 304.56 141.565 304.56 141.832C304.56 142.099 304.293 142.433 304.026 142.566C303.892 142.633 303.425 142.366 303.358 142.099C303.091 141.565 302.758 141.498 302.224 141.632C301.757 141.765 301.289 141.699 300.822 141.699C300.689 142.499 300.889 143.033 301.89 142.9C302.224 142.833 302.558 142.967 302.825 143.1C303.025 143.234 303.292 143.434 303.292 143.634C303.292 143.834 303.025 144.168 302.825 144.168C302.224 144.235 301.757 144.302 302.024 145.103C302.024 145.103 301.423 145.503 301.356 145.436C300.889 145.103 299.888 145.637 299.888 144.569C299.888 144.368 299.954 144.235 299.954 143.968C298.686 144.702 298.686 146.17 299.888 146.838ZM304.894 149.374C304.093 150.042 303.025 150.509 302.491 149.508C301.89 148.373 302.424 147.639 303.826 148.373C304.226 148.573 304.56 148.974 304.894 149.374ZM303.759 154.046C303.358 154.247 302.891 154.447 302.424 154.58C302.157 154.647 301.823 154.58 301.556 154.58C301.556 154.313 301.556 153.98 301.69 153.846C302.291 153.112 302.891 152.244 304.026 152.511C304.293 152.578 304.493 152.778 304.693 152.912C304.827 153.112 304.894 153.245 305.027 153.446C304.627 153.579 304.226 153.846 303.759 154.046ZM304.493 137.026C304.293 137.026 304.093 136.826 303.892 136.693C304.159 136.426 304.426 136.159 304.693 135.892C304.76 135.825 305.027 136.025 305.161 136.159C305.294 136.292 305.361 136.492 305.494 136.626C305.161 136.759 304.827 136.96 304.493 137.026ZM306.362 148.84C306.095 148.84 305.828 148.573 305.561 148.373C305.828 148.039 306.095 147.639 306.429 147.372C306.496 147.305 306.896 147.772 307.43 148.173C306.896 148.507 306.629 148.774 306.362 148.84ZM311.234 169.865C311.034 170.599 311.034 170.666 309.432 169.932C309.833 169.732 310.1 169.531 310.367 169.398C310.767 169.198 311.168 169.064 311.635 168.931C311.501 169.264 311.301 169.598 311.234 169.865ZM310.967 157.183C310.433 157.05 309.566 156.716 309.499 156.449C309.432 155.849 309.766 154.914 310.7 155.114C311.168 155.181 311.501 155.849 312.102 156.449C311.501 156.85 311.168 157.25 310.967 157.183ZM311.501 154.647C311.368 154.647 311.168 154.247 311.034 153.98C311.435 153.779 311.835 153.579 312.236 153.512C312.436 153.512 312.703 153.779 313.237 154.18C312.436 154.38 311.969 154.58 311.501 154.647ZM310.5 151.11C310.3 151.043 310.167 150.776 310.033 150.576C309.633 150.042 309.299 149.441 308.832 148.974C308.765 148.907 308.431 148.974 308.364 149.041C308.164 149.574 307.83 149.841 307.497 149.308C307.363 149.041 307.63 148.173 307.83 148.106C309.432 147.906 311.034 147.772 312.636 147.772C312.903 147.772 313.17 148.573 313.237 148.707C313.304 150.108 311.635 151.443 310.5 151.11ZM314.171 147.772C313.771 147.372 313.37 146.971 313.037 146.504C312.97 146.437 313.504 146.037 313.904 145.57C314.305 146.037 314.839 146.371 314.839 146.638C314.839 147.038 314.438 147.372 314.171 147.772ZM314.572 144.168C314.438 143.834 314.371 143.501 314.238 143.167C314.505 143.1 314.839 142.9 315.039 142.967C315.306 143.033 315.573 143.3 316.174 143.634C315.439 143.901 315.039 144.035 314.572 144.168ZM315.439 137.16C315.573 137.627 315.64 138.094 315.773 138.561C315.506 138.495 315.239 138.428 314.905 138.428C314.905 138.428 314.905 138.428 314.839 138.428C314.638 139.429 313.704 139.162 313.37 138.962C312.236 138.361 312.636 139.229 312.503 139.629C312.236 139.763 311.969 139.896 311.702 140.097C311.768 140.163 311.835 140.23 311.835 140.297C312.035 140.097 312.302 139.896 312.503 139.696C312.903 139.963 313.304 140.23 313.904 140.697C312.703 140.898 311.768 141.165 310.767 141.231C310.167 141.298 309.966 140.764 310.3 140.364C311.501 139.162 310.834 137.894 310.5 136.693C310.5 136.693 310.5 136.693 310.433 136.693C310.433 136.693 310.433 136.693 310.433 136.626C309.699 136.292 308.431 134.423 308.631 133.823C308.698 133.689 309.232 133.489 309.432 133.622C310.233 134.09 310.767 135.625 310.433 136.626C310.433 136.626 310.433 136.626 310.433 136.693C311.501 137.227 312.569 137.761 313.637 138.228C313.904 138.361 314.305 138.295 314.638 138.295C314.705 137.894 314.705 137.494 314.772 137.16C315.172 137.227 315.306 137.227 315.439 137.16Z" fill="#EFF0F3"/>
<path d="M215.654 102.053C214.919 102.453 215.053 102.72 215.186 103.321C215.654 105.59 217.055 107.325 218.457 109.061C218.657 109.328 219.058 109.728 219.391 109.662C220.793 109.528 221.26 110.262 221.727 111.397C221.861 111.797 222.595 112.131 223.062 112.131C223.863 112.131 224.664 111.864 225.532 111.797C225.799 111.797 226.133 111.931 226.466 112.064C226.199 112.331 225.999 112.732 225.732 112.932C225.532 113.066 225.131 112.999 224.798 113.066C226.199 113.399 227.401 114.868 229.069 113.733C229.47 113.466 229.937 113.599 230.137 114.267C230.271 114.667 230.738 115.135 231.072 115.201C232.674 115.402 234.275 115.468 235.944 115.602C236.678 115.669 237.079 115.335 237.012 114.534C236.879 113.666 237.479 113.332 238.147 113.332C239.548 113.332 240.817 112.999 241.951 112.131C242.552 111.731 242.886 111.998 242.819 112.665C242.752 113.066 242.619 113.466 242.552 113.933C242.552 113.933 242.552 113.933 242.485 114C242.485 114 242.552 114 242.552 113.933C243.286 114 243.82 113.866 243.62 112.865C243.553 112.532 244.087 111.998 244.488 111.731C244.755 111.53 245.289 111.731 245.555 111.597C245.822 111.464 246.089 111.063 246.089 110.796C246.089 110.462 245.889 110.062 245.689 109.862C245.556 109.728 245.088 109.862 244.888 110.062C244.421 110.396 243.954 110.863 243.486 111.263C243.353 111.197 243.286 111.13 243.219 111.063C243.42 110.262 243.62 109.528 243.887 108.727C244.02 108.393 244.087 107.793 244.287 107.793C244.621 107.726 245.088 107.926 245.422 108.126C246.156 108.594 246.89 109.128 247.625 109.595C248.092 109.862 248.492 110.329 248.359 110.93C249.026 110.663 249.694 110.396 250.361 110.062C250.228 109.862 250.161 109.795 250.094 109.662C250.027 109.328 250.027 108.994 249.961 108.66C250.161 108.861 250.361 109.061 250.628 109.128C251.029 109.328 251.563 109.661 251.763 109.528C253.164 108.66 254.833 108.927 256.168 108.861C257.77 108.794 257.77 107.926 257.703 107.192C257.636 105.857 258.304 105.924 259.172 105.991C259.172 105.857 259.172 105.724 259.238 105.657C260.44 105.056 260.974 104.255 260.039 102.987C259.972 102.853 260.106 102.653 260.106 102.453C260.373 102.52 260.773 102.586 260.907 102.72C261.307 103.12 261.641 103.588 262.242 104.255C262.108 104.722 260.64 105.056 261.908 106.057C260.773 105.991 259.973 105.991 259.172 105.924C259.038 106.658 258.838 107.392 258.704 108.126C258.704 108.327 258.905 108.727 259.105 108.794C260.173 109.261 261.574 108.26 262.576 109.461C262.642 109.528 263.176 109.328 263.31 109.061C263.51 108.727 263.51 108.26 263.644 107.859C263.577 107.793 263.51 107.793 263.51 107.726C263.577 107.726 263.577 107.726 263.577 107.726C263.577 107.726 263.644 107.793 263.644 107.859C263.844 108.193 264.044 108.527 264.111 108.861C264.244 109.261 264.177 109.661 264.244 109.995C264.645 109.862 265.045 109.795 265.446 109.662C265.713 109.528 265.98 109.328 266.046 109.328C265.779 108.594 265.512 108.06 265.312 107.526C266.647 107.592 268.182 106.992 268.85 108.861C268.916 109.061 269.384 109.194 269.717 109.328C271.052 109.728 272.387 110.129 273.722 110.462C274.79 110.729 275.057 110.529 275.057 109.461C275.057 109.261 274.99 109.061 274.99 108.794C274.923 106.458 273.188 104.188 274.59 101.786C274.656 101.652 274.456 101.385 274.39 101.185C273.989 100.384 274.123 99.7832 275.19 99.316C274.123 98.782 273.188 98.3815 272.387 97.8476C271.653 97.3803 271.052 97.4471 270.719 98.248C270.318 99.1825 269.784 98.9822 269.183 98.515C268.516 97.9811 267.915 97.4471 267.314 96.9131C266.781 97.8476 266.781 97.8476 267.581 98.5818C267.848 98.8487 268.249 99.1157 268.316 99.3827C268.983 101.185 270.785 100.517 272.053 101.185C272.32 101.318 272.654 101.252 272.988 101.252C272.788 101.519 272.654 101.852 272.387 102.119C272.053 102.52 271.72 102.787 271.386 103.187C271.72 103.521 272.12 103.788 272.654 104.255C271.987 104.389 271.386 104.255 271.052 104.522C270.719 104.789 270.585 105.39 270.385 105.857C270.385 105.924 270.719 106.191 270.919 106.257C271.853 106.458 272.854 106.524 273.856 106.658C273.856 106.791 273.856 106.925 273.856 107.058C273.188 107.526 271.92 107.392 271.92 108.66C271.92 108.727 270.985 108.994 270.518 108.861C270.251 108.794 269.851 107.993 269.918 107.926C271.119 106.725 269.851 106.791 269.25 106.391C268.783 106.057 268.516 105.523 268.182 105.123C268.583 104.923 268.983 104.589 269.45 104.455C270.251 104.122 270.518 103.521 269.984 102.853C269.517 102.32 269.05 101.719 268.516 101.385C268.115 101.118 267.515 101.118 266.981 100.985C266.914 101.452 266.714 101.986 266.714 102.453C266.714 102.92 267.181 103.721 267.048 103.788C265.779 104.656 267.181 104.923 267.381 105.256C266.58 105.991 265.913 106.658 265.179 107.325C264.845 107.259 264.511 107.325 264.244 107.192C263.243 106.725 263.31 106.524 264.111 105.724C264.778 105.056 265.245 104.188 265.713 103.321C265.779 103.187 265.579 102.853 265.512 102.586C265.312 102.653 265.045 102.653 264.845 102.787C264.511 103.054 264.177 103.321 263.844 103.654C263.844 103.187 263.844 102.72 263.844 102.32C263.844 102.253 263.777 102.119 263.71 102.053C262.442 103.187 261.708 103.12 261.107 101.652C260.707 100.718 259.839 101.118 259.172 100.851C258.771 100.718 258.371 102.186 258.771 102.787C258.905 103.054 259.105 103.588 259.105 103.588C258.504 103.921 257.903 104.255 257.236 104.389C257.036 104.455 256.702 103.788 256.435 103.521C256.301 103.988 256.235 104.589 256.035 105.19C255.968 105.39 255.701 105.59 255.501 105.657C255.434 105.657 255.167 105.457 255.1 105.256C254.366 104.055 253.498 104.055 252.764 105.19C252.364 105.724 252.097 106.324 251.763 106.858C251.629 107.058 251.362 107.125 251.095 107.259C251.029 107.058 250.895 106.858 250.828 106.725C250.628 106.458 250.495 106.124 250.228 105.924C249.961 105.79 249.627 105.79 249.293 105.79C249.493 105.523 249.627 105.19 249.894 104.989C250.695 104.255 251.629 103.521 251.095 102.453C250.695 101.652 250.294 100.985 250.228 100.117C250.228 99.7164 250.027 99.2492 250.161 98.9822C250.294 98.782 250.895 98.5818 251.162 98.7153C251.563 98.9155 252.163 99.4495 252.097 99.6497C251.696 100.718 251.963 101.585 252.764 102.386C252.897 102.52 252.831 102.92 252.831 103.187C253.698 102.787 254.433 103.254 255.234 103.454C255.3 103.454 255.768 102.853 255.701 102.52C255.634 102.053 255.367 101.585 255.033 100.784C255.768 101.118 256.168 101.318 256.568 101.519C256.368 99.6497 256.368 99.6497 254.766 100.184C254.366 100.317 253.965 100.317 253.565 100.384C253.899 99.5829 254.433 99.049 254.967 98.5818C255.901 97.7141 256.302 97.7141 256.769 98.9822C257.169 100.05 257.837 98.9822 258.237 99.316C258.437 99.1157 258.638 98.8487 258.704 98.6485C259.105 97.5138 258.304 96.3124 258.504 95.4447C258.971 93.8428 257.57 93.1086 257.57 91.8405C257.57 91.707 257.369 91.5735 257.236 91.5735C256.101 91.6402 254.967 90.1051 253.765 91.9072C254.099 90.6391 253.498 90.2386 252.63 89.9716C251.496 89.6379 251.029 90.4388 250.428 91.173C250.361 90.7725 250.495 90.4388 250.495 90.1051C250.495 89.8381 250.294 89.3709 250.161 89.3041C248.225 88.8369 246.29 88.3697 244.354 87.9692C244.821 89.3709 245.355 90.8393 245.822 92.2409C245.889 92.3744 245.756 92.7082 245.689 92.7749C244.755 93.1086 244.955 93.6426 245.222 94.3768C245.355 94.7105 245.489 95.645 244.488 95.5115C243.887 95.4447 243.219 95.0443 242.685 95.111C241.551 95.2445 242.018 93.9763 241.351 93.7761C240.149 93.4424 240.483 92.9751 241.217 92.4412C241.484 92.2409 241.551 91.7737 241.684 91.44C241.351 91.3733 241.017 91.2398 240.683 91.173C240.55 91.1063 240.349 91.173 240.216 91.173C240.216 91.0395 240.283 90.7725 240.283 90.4388C240.283 90.1718 240.416 89.7714 240.349 89.7714C240.082 89.7046 239.615 89.5711 239.482 89.7046C238.814 90.5056 238.147 90.3721 237.346 89.9716C237.079 89.8381 236.545 90.3053 236.144 90.4388C236.278 90.7058 236.478 90.906 236.612 91.173C236.812 91.5735 237.012 91.9072 237.079 92.3077C237.146 92.5747 237.279 93.0419 237.146 93.1754C236.945 93.3756 236.545 93.3756 236.211 93.3756C236.011 93.3756 235.877 93.2421 235.677 93.1754C235.677 93.4424 235.61 93.7093 235.677 93.9096C235.877 94.4435 236.411 94.9775 236.411 95.5115C236.478 96.5127 236.678 97.0466 237.813 96.9131C238.08 96.9131 238.347 97.3803 238.614 97.6473C238.28 97.7808 237.947 97.981 237.546 98.0478C236.612 98.1145 235.61 98.1145 234.609 98.1813C234.075 98.1813 233.541 98.248 233.007 98.248C233.341 97.9143 233.742 97.5806 234.075 97.1801C234.142 97.1134 234.209 97.0466 234.209 97.1134C234.009 96.4459 233.808 95.8452 233.608 95.2445C234.209 95.0443 234.743 94.844 235.343 94.6438C235.21 94.2433 234.943 93.8428 234.943 93.4424C234.743 91.9072 234.809 91.9072 233.274 91.9072C232.874 91.9072 232.407 92.1075 232.006 92.0407C231.606 91.974 230.938 91.707 230.938 91.5735C230.938 90.5723 230.338 90.906 229.87 91.0395C229.336 91.173 229.003 91.3733 229.336 92.1075C229.47 92.3744 229.336 92.8417 229.336 93.1754C228.936 92.9751 228.402 92.9084 228.202 92.5747C227.935 92.1075 227.868 91.44 227.134 91.707C226.667 91.9072 225.599 91.6402 226.066 92.8417C226.066 92.9084 225.732 93.2421 225.665 93.2421C224.931 93.0419 224.13 93.5759 223.463 92.7082C223.263 92.4412 222.328 92.6414 221.727 92.7082C221.594 92.7082 221.594 93.3756 221.527 93.7093C221.46 94.3768 221.594 94.7105 222.395 94.9775C223.396 95.2445 223.396 95.9119 222.528 96.6461C222.128 96.9799 221.861 97.3803 221.26 98.1145C221.26 97.2469 221.193 96.7796 221.26 96.2457C221.327 95.2445 221.193 94.2433 220.192 93.9096C219.325 93.6426 218.323 93.7093 217.656 94.577C217.923 94.6438 218.19 94.7773 218.524 94.844C218.457 94.9775 218.323 95.0443 218.257 95.1777C218.056 94.9775 217.856 94.7773 217.656 94.577H217.589C215.987 95.4447 215.854 97.3136 215.053 98.7153C214.853 99.1157 215.053 100.05 215.453 100.384C216.321 101.118 216.521 101.585 215.654 102.053ZM217.923 106.257C217.522 106.057 217.189 105.724 216.788 105.457C216.988 105.323 217.255 105.056 217.389 105.123C217.789 105.256 218.19 105.457 218.857 105.79C218.323 106.057 218.056 106.324 217.923 106.257ZM241.684 109.728C241.484 109.862 240.95 109.862 240.883 109.728C240.683 109.395 240.683 108.994 240.55 108.594C240.817 108.66 241.084 108.727 241.351 108.794C241.751 108.861 242.151 108.794 242.552 108.794C242.552 108.861 242.619 108.994 242.619 109.061C242.352 109.261 242.018 109.595 241.684 109.728ZM242.952 107.659C242.685 107.526 242.418 107.392 242.218 107.125C242.151 107.125 242.352 106.858 242.485 106.658C242.685 106.524 242.886 106.391 243.019 106.257C243.153 106.591 243.286 106.925 243.353 107.325C243.353 107.459 243.019 107.659 242.952 107.659ZM252.63 96.1789C252.43 96.1789 252.297 96.1789 252.097 96.1789C251.896 95.7117 251.629 95.2445 251.563 94.7105C251.496 94.4435 251.83 94.1098 252.03 93.7761C252.297 93.9763 252.764 94.1098 252.831 94.3101C252.764 94.9775 252.63 95.5782 252.63 96.1789ZM253.098 101.652C253.098 101.519 253.031 101.452 253.031 101.318C253.031 101.252 253.231 101.252 253.298 101.252C253.298 101.318 253.365 101.385 253.365 101.519C253.231 101.519 253.164 101.585 253.098 101.652ZM254.099 93.3756C254.232 92.5079 254.9 92.1742 255.768 92.4412C256.035 92.5079 256.435 93.0419 256.368 93.1754C256.035 94.0431 256.568 94.3768 257.169 94.577C257.703 94.7773 258.037 95.1777 257.503 95.4447C256.302 96.0454 257.169 96.3124 257.57 96.7796C257.77 97.0466 257.903 97.3136 258.037 97.6473C257.636 97.6473 257.169 97.8476 256.835 97.6473C256.435 97.3803 256.168 96.9131 255.968 96.5127C255.367 95.1777 255.434 95.1777 254.232 95.645C253.365 94.577 252.564 93.5091 251.563 92.2409C252.497 92.7082 253.298 93.0419 254.099 93.3756ZM251.429 91.5735C251.496 91.6402 251.496 91.7737 251.496 91.8405C251.496 91.8405 251.429 91.9072 251.362 91.9072C251.362 91.8405 251.296 91.707 251.296 91.6402C251.296 91.6402 251.362 91.5735 251.429 91.5735ZM249.894 92.3077C250.361 92.1742 250.962 91.8405 250.895 92.8417C250.828 93.5091 249.694 94.5103 249.093 94.2433C248.693 94.1098 248.025 93.5091 248.092 93.1754C248.225 92.2409 248.893 91.8405 249.894 92.3077ZM248.626 95.5115C248.759 95.5115 249.026 95.7117 249.026 95.7117C250.294 93.7761 250.228 96.2457 250.895 96.2457C251.029 96.2457 251.095 96.4459 251.229 96.5794C251.763 97.8476 251.763 97.8476 250.361 98.1145C250.695 97.5806 250.962 97.1134 251.229 96.5794C250.294 96.5127 249.827 96.9131 249.894 97.9143C249.894 98.1145 249.627 98.3148 249.493 98.515C249.293 98.3815 249.093 98.1813 248.96 98.0478C248.626 97.6473 248.225 97.1801 248.025 96.7129C247.892 96.4459 247.825 96.0454 247.892 95.7117C247.892 95.5782 248.359 95.5115 248.626 95.5115ZM247.892 104.522C248.092 104.455 248.359 104.722 248.759 104.856C248.225 105.323 248.025 105.523 247.825 105.657C247.691 105.457 247.424 105.256 247.424 105.123C247.424 104.923 247.691 104.589 247.892 104.522ZM244.955 96.3124C245.088 96.2457 245.289 96.3124 245.422 96.2457C245.889 96.1122 246.356 95.9119 246.824 95.7785C246.824 95.9119 246.89 96.1122 246.824 96.1789C246.356 96.6461 245.889 97.0466 245.289 97.5138C244.888 97.1801 244.621 96.9799 244.421 96.8464C244.621 96.6461 244.755 96.4459 244.955 96.3124ZM246.957 99.9834C247.024 100.05 246.69 100.317 246.557 100.517C246.156 100.184 245.822 99.8499 245.489 99.4494C245.422 99.3827 245.689 99.049 245.956 98.6485C246.356 99.1825 246.69 99.5829 246.957 99.9834ZM242.552 97.4471C242.886 97.1801 243.353 97.1801 243.753 97.0466C243.82 97.3803 243.887 97.7141 243.887 97.9811C243.887 98.7153 245.288 100.651 245.956 100.918C246.423 101.118 246.89 101.385 247.291 101.585C247.224 101.786 247.157 101.919 247.157 102.119C246.29 101.919 245.222 101.986 244.621 101.519C243.687 100.718 243.019 99.5162 242.352 98.4483C242.218 98.1813 242.352 97.5806 242.552 97.4471ZM241.417 98.782C242.151 100.184 242.819 101.318 243.553 102.586C242.085 103.187 242.085 103.187 243.286 104.122C243.42 104.255 243.62 104.656 243.553 104.656C243.286 104.923 242.952 105.123 242.619 105.256C242.485 105.323 242.151 105.056 242.085 104.923C241.951 104.455 241.751 103.988 241.818 103.521C241.951 102.853 241.618 102.92 241.15 102.787C240.416 102.653 239.148 102.653 240.283 101.318C239.749 100.05 241.15 99.7832 241.417 98.782ZM240.149 91.3733C240.016 91.6402 239.882 91.9072 239.749 92.1075C239.482 91.8405 239.215 91.5735 238.948 91.3065C239.348 91.3733 239.749 91.3733 240.149 91.3733ZM236.345 99.9167C236.478 99.9167 236.745 100.184 237.012 100.384C236.612 100.651 236.345 100.918 236.144 100.918C235.944 100.918 235.811 100.517 235.61 100.317C235.877 100.184 236.078 99.9834 236.345 99.9167ZM234.876 101.252C235.21 101.852 235.477 102.386 235.811 102.987C236.411 102.787 237.012 102.586 237.613 102.386C236.879 103.321 236.411 104.055 237.346 105.056C237.413 105.123 237.079 105.523 236.945 105.724C236.945 105.724 236.945 105.724 236.945 105.79C237.413 106.124 237.88 106.458 238.414 106.791C238.881 107.058 239.749 107.259 239.749 107.459C239.682 108.193 239.548 109.328 239.081 109.528C237.746 110.062 237.546 111.33 236.879 112.265C236.812 112.398 236.678 112.465 236.278 112.465C236.411 112.064 236.612 111.664 236.612 111.263C236.612 110.729 236.612 110.195 236.411 109.728C236.345 109.595 235.677 109.728 235.277 109.728C234.743 109.728 234.209 109.595 233.675 109.662C233.341 109.728 232.874 109.862 232.674 110.129C232.54 110.329 232.674 110.796 232.874 111.063C233.141 111.53 233.475 111.931 233.742 112.398C234.743 112.865 234.743 113.666 234.609 114.534C234.476 114.601 234.342 114.601 234.209 114.667C234.009 113.933 233.808 113.199 233.608 112.532C232.206 112.999 231.072 112.932 230.004 111.731C228.869 110.529 227.134 110.93 225.665 110.729C225.265 110.663 224.664 110.462 224.664 110.329C224.664 109.795 224.864 109.194 225.131 108.66C225.198 108.527 225.932 108.66 226.266 108.861C227.134 109.261 227.935 109.795 228.736 110.195C229.537 110.596 230.071 110.262 230.404 109.528C229.804 109.528 229.27 109.528 228.669 109.528C228.602 109.395 228.535 109.261 228.535 109.194C229.069 108.927 229.67 108.66 230.204 108.393C230.271 108.794 230.338 109.194 230.404 109.595C230.671 109.461 230.938 109.261 231.138 109.261C232.14 109.461 232.607 108.861 233.007 108.06C233.141 107.793 233.341 107.526 233.742 107.058C233.875 107.592 233.875 107.926 234.075 108.26C234.209 108.527 234.476 108.861 234.609 108.861C235.744 108.861 236.879 108.727 238.08 108.66C238.08 108.527 238.08 108.46 238.08 108.327C237.613 107.926 237.146 107.459 236.612 107.192C236.345 107.058 235.877 107.192 235.544 107.125C235.143 107.058 234.809 106.925 234.476 106.791C234.676 106.524 234.876 106.191 235.143 105.991C235.41 105.724 235.677 105.59 235.944 105.256C235.277 105.256 234.609 105.39 234.609 104.389C234.609 104.188 233.942 103.988 233.675 103.654C233.408 103.387 233.274 102.987 233.074 102.586C233.341 102.52 233.675 102.453 233.942 102.32C234.142 101.852 234.476 101.585 234.876 101.252ZM233.608 99.1825C233.742 99.1825 233.875 99.1157 234.009 99.1157C234.075 99.5162 234.142 99.9167 234.209 100.317C234.075 100.317 233.875 100.384 233.742 100.384C233.675 99.9834 233.675 99.5829 233.608 99.1825ZM230.605 92.8417C231.806 93.0419 232.874 93.2421 233.875 93.4424C234.009 93.4424 234.209 93.5759 234.209 93.7093C234.209 93.9096 234.142 94.2433 234.009 94.2433C233.074 94.5103 232.14 94.9775 231.205 94.9108C230.738 94.844 230.471 93.7093 230.071 93.0419C230.338 92.9751 230.538 92.8417 230.605 92.8417ZM229.203 96.9799C229.27 97.5806 228.936 98.248 228.736 98.8487C228.669 98.9822 228.268 99.049 228.001 99.049C227.935 99.049 227.734 98.7153 227.734 98.515C227.668 97.8476 227.734 97.1134 227.734 96.1122C228.402 96.5126 229.203 96.7129 229.203 96.9799ZM227.668 93.9763C228.068 95.111 228.068 95.111 226.733 95.9119C227 95.3112 227.334 94.7105 227.668 93.9763ZM225.732 103.187C225.866 103.254 225.932 103.321 225.999 103.387C225.932 103.521 225.866 103.588 225.799 103.721C225.799 103.721 225.599 103.654 225.599 103.588C225.599 103.387 225.665 103.321 225.732 103.187ZM223.396 100.985C223.663 101.986 223.863 103.054 224.197 103.988C224.264 104.188 224.731 104.322 224.998 104.322C226.199 104.255 226.4 104.455 225.999 105.79C226.333 105.724 226.533 105.657 226.8 105.59C228.001 105.256 228.469 104.389 227.868 103.254C227.601 102.787 227 102.253 227.935 102.053C228.402 101.919 229.069 102.453 229.603 102.72C229.67 102.787 229.67 102.987 229.737 103.187C229.804 104.589 230.404 104.322 231.138 103.654C231.272 103.521 231.472 103.387 231.672 103.321C231.806 103.321 232.006 103.387 232.073 103.521C232.14 103.588 232.14 103.921 232.14 103.921C231.272 104.188 231.272 105.724 230.004 105.39C229.87 105.39 229.537 105.657 229.47 105.924C229.069 107.325 228.669 107.526 227.467 106.925C226.934 106.658 226.6 106.524 226.333 107.125C226.266 107.259 226.066 107.325 225.932 107.392C224.931 107.526 223.863 107.592 222.328 107.726C223.062 107.125 223.529 106.658 224.063 106.257C223.596 105.523 223.129 104.722 222.595 103.921C221.527 102.119 221.594 101.986 223.396 100.985ZM221.327 107.392C221.527 107.926 221.794 108.527 221.994 109.061C221.794 109.194 221.527 109.328 221.327 109.395C220.926 108.861 220.459 108.393 220.059 107.859C220.459 107.726 220.926 107.526 221.327 107.392ZM218.39 103.254C218.59 103.788 219.391 104.188 219.992 104.455C220.793 104.722 221.06 105.19 221.193 105.991C218.991 106.124 218.39 103.855 216.588 103.254C217.322 102.787 217.789 101.852 218.39 103.254Z" fill="#EFF0F3"/>
<path d="M278.661 112.332C277.794 111.731 276.459 111.197 276.859 109.462C275.124 110.263 274.857 112.799 272.587 112.199C272.587 112.733 272.721 113.267 272.521 113.6C272.32 113.867 271.72 113.8 271.252 113.867C272.12 115.202 273.522 115.135 274.79 115.536C275.791 115.87 277.126 115.669 277.46 117.271C277.86 119.073 278.261 119.207 279.796 118.072C279.996 117.939 280.33 117.738 280.397 117.538C280.53 117.138 280.73 116.671 280.597 116.27C280.463 115.669 279.996 115.669 279.329 115.669C277.994 115.669 276.659 115.269 275.324 115.002C275.124 114.935 274.99 114.735 274.857 114.535C274.456 114.134 274.056 113.667 273.589 113.133C274.657 112.799 275.724 112.466 276.726 112.265C277.393 112.132 277.66 112.466 277.727 113.2C277.794 113.6 277.927 114.201 278.261 114.401C279.529 115.202 281.331 114.535 281.798 113.066C281.865 112.933 281.465 112.466 281.331 112.466C280.33 112.733 280.33 112.065 280.397 111.331C281.064 111.398 281.798 111.531 282.466 111.464C282.799 111.464 283.133 111.064 283.467 110.797C282.933 110.129 282.466 108.928 281.932 108.861C280.664 108.795 280.463 107.793 279.796 107.193C279.395 106.859 279.462 106.058 279.329 105.457C279.329 105.324 279.662 105.057 279.729 105.057C280.263 105.391 280.931 105.724 281.131 106.191C281.465 106.992 281.865 107.393 282.666 107.259C283 107.193 283.4 107.126 283.734 107.059C283.6 106.525 283.6 105.858 283.333 105.391C282.933 104.723 282.265 104.256 281.865 103.588C281.331 102.721 279.863 101.853 279.329 102.32C279.128 102.52 278.928 102.654 278.728 102.854C278.661 102.52 278.594 102.187 278.528 101.853C278.461 101.653 278.461 101.386 278.461 100.985C278.194 101.252 278.127 101.386 278.061 101.519C277.927 101.72 277.927 101.987 277.794 102.12C275.858 103.522 275.724 105.457 275.925 107.66C275.991 108.728 276.459 108.528 277.059 108.594C277.193 108.394 277.326 108.261 277.393 108.06C277.46 108.127 277.527 108.194 277.593 108.261C277.393 108.394 277.26 108.461 277.059 108.594C277.527 108.728 277.927 108.795 278.394 108.928C278.728 109.062 279.262 109.329 279.262 109.462C279.128 110.196 279.195 110.463 279.996 110.33C280.063 110.33 280.196 110.93 280.33 111.264C279.729 111.665 279.596 113 278.661 112.332ZM277.794 106.992C277.66 106.725 277.393 106.525 277.393 106.258C277.46 105.858 277.66 105.457 276.993 105.257C276.926 105.257 276.993 104.523 277.059 104.122C277.059 103.989 277.46 103.855 277.527 103.922C277.794 104.122 278.127 104.389 278.261 104.656C278.394 105.124 278.394 105.591 278.461 106.392C278.394 106.525 278.127 106.725 277.794 106.992Z" fill="#EFF0F3"/>
<path d="M321.911 148.775C321.844 148.908 320.977 148.441 320.443 148.174C320.176 148.04 319.642 147.64 319.642 147.64C318.908 148.508 318.507 147.573 317.906 147.306C317.84 147.707 317.573 148.307 317.639 148.374C318.841 149.108 318.374 151.111 320.042 151.444C320.843 152.379 321.577 152.379 322.312 151.444C321.577 151.444 320.843 151.378 320.109 151.378C320.109 150.31 320.843 150.51 321.511 150.443C322.312 150.376 322.312 150.91 322.312 151.444C322.712 151.711 323.179 152.245 323.513 152.245C324.514 152.112 325.115 150.777 326.383 151.244C326.517 150.51 327.384 150.043 326.85 149.108C326.049 147.707 325.782 147.44 324.714 147.84C323.913 148.174 322.712 147.773 321.911 148.775Z" fill="#EFF0F3"/>
<path d="M260.037 98.182C259.97 98.3155 260.037 98.6492 260.104 98.716C260.237 98.7827 260.504 98.7827 260.705 98.716C260.905 98.5825 261.105 98.3822 261.305 98.182C262.173 96.9806 262.974 96.9806 263.975 98.0485C264.442 98.5157 265.043 98.9162 265.644 99.3167C265.51 98.3155 265.043 97.5813 266.511 97.5145C266.578 97.5145 266.578 97.1141 266.645 96.9138C266.712 96.7136 266.778 96.3799 266.912 96.3131C267.246 96.2464 267.579 96.3131 268.247 96.3131C267.646 95.9126 267.446 95.7124 267.179 95.5789C266.511 95.2452 265.844 94.6445 265.51 95.9794C265.444 96.2464 264.843 96.3799 264.442 96.5801C264.309 96.1796 264.175 95.7124 264.042 95.3119C263.842 95.3787 263.708 95.4454 263.508 95.4454C263.508 95.3119 263.575 95.1784 263.575 95.045C263.708 95.1117 263.908 95.1784 264.042 95.2452C264.175 94.9782 264.309 94.7112 264.442 94.4442C264.042 94.3108 263.441 93.977 263.308 94.1105C262.04 95.4454 260.705 94.9115 259.103 94.244C259.37 95.1117 259.37 95.8459 259.77 96.2464C260.371 96.9138 260.638 97.3811 260.037 98.182Z" fill="#EFF0F3"/>
<path d="M287.939 120.408C288.273 120.141 288.807 119.874 288.873 119.474C289.207 118.539 289.341 117.538 289.608 116.27C287.138 117.471 286.804 117.738 287.271 119.274C287.338 119.674 287.672 120.008 287.939 120.408Z" fill="#EFF0F3"/>
<path d="M235.21 89.4382C235.477 88.704 235.944 88.3703 236.745 88.3703C237.078 88.3703 237.479 88.0365 237.813 87.7695C237.479 87.636 236.678 88.0365 237.078 87.1021C237.145 86.9018 237.212 86.7684 237.279 86.5681C237.012 86.5681 236.678 86.4346 236.544 86.5681C235.744 87.3023 234.943 87.9698 234.208 88.8375C234.075 89.0377 234.342 89.5717 234.409 89.9054C234.676 89.7719 235.143 89.7052 235.21 89.4382Z" fill="#EFF0F3"/>
<path d="M290.277 132.421C289.209 131.286 289.209 131.286 286.94 130.953C288.208 133.622 288.275 133.622 290.277 132.421Z" fill="#EFF0F3"/>
<path d="M326.318 153.179C327.519 153.513 328.52 153.78 329.588 154.113C329.121 153.179 328.72 152.245 328.186 151.11C327.519 151.844 327.052 152.378 326.318 153.179Z" fill="#EFF0F3"/>
<path d="M324.049 153.047C323.782 153.314 323.515 153.715 323.515 154.115C323.515 154.315 323.982 154.649 324.249 154.649C325.183 154.649 326.118 154.515 327.052 154.449C326.251 153.981 325.584 153.581 324.916 153.247C324.649 153.114 324.182 152.98 324.049 153.047Z" fill="#EFF0F3"/>
<path d="M271.12 111.732C270.853 111.398 270.385 110.864 270.252 110.931C269.785 111.198 269.384 111.665 268.984 111.999C269.251 112.199 269.451 112.466 269.718 112.666C269.985 112.867 270.319 113.134 270.586 113.334C270.586 113.401 270.652 113.467 270.652 113.467C270.652 113.467 270.719 113.467 270.786 113.467C270.719 113.401 270.652 113.334 270.586 113.334C270.719 113 270.786 112.666 270.919 112.333C270.919 112.066 271.186 111.799 271.12 111.732Z" fill="#EFF0F3"/>
<path d="M135.757 110.463C134.956 111.731 134.289 112.665 133.688 113.6C134.89 112.999 135.891 112.265 135.757 110.463Z" fill="#EFF0F3"/>
<path d="M324.248 147.04C324.515 147.107 324.849 146.973 325.116 146.84C325.249 146.773 325.249 146.373 325.116 146.172C324.782 145.638 324.448 145.171 324.048 144.637C323.981 145.171 323.848 145.772 323.781 146.306C323.848 146.573 324.048 146.973 324.248 147.04Z" fill="#EFF0F3"/>
<path d="M285.471 110.663C284.403 108.46 284.403 108.46 283.402 109.061C284.07 109.661 284.804 110.195 285.471 110.663Z" fill="#EFF0F3"/>
<path d="M243.955 93.4423C243.955 92.9751 244.156 92.5079 244.022 92.1074C243.889 91.8404 243.422 91.6402 243.155 91.4399C243.088 91.7737 242.821 92.1741 242.954 92.5079C243.088 92.9083 243.422 93.1753 243.689 93.5091C243.755 93.5091 243.822 93.4423 243.955 93.4423Z" fill="#EFF0F3"/>
<path d="M264.311 100.517C264.711 101.918 265.579 100.851 266.18 100.784C267.315 100.717 267.181 100.183 266.514 99.5156C266.247 100.784 265.179 100.45 264.311 100.517Z" fill="#EFF0F3"/>
<path d="M306.495 124.211C306.561 123.811 306.828 123.344 306.695 122.943C306.628 122.676 306.027 122.61 305.694 122.476C305.827 123.01 305.961 123.477 306.094 124.011C306.228 124.078 306.361 124.145 306.495 124.211Z" fill="#EFF0F3"/>
<path d="M299.554 131.421C299.487 130.754 299.487 130.153 299.42 129.619C299.153 129.686 298.753 129.686 298.686 129.819C298.352 130.554 298.753 131.021 299.554 131.421Z" fill="#EFF0F3"/>
<path d="M242.752 87.9017C242.819 87.7014 242.619 87.4345 242.552 87.1675C242.352 87.2342 242.218 87.2342 242.018 87.2342C241.884 87.4345 241.617 87.7014 241.684 87.9017C241.751 88.1687 242.085 88.3689 242.285 88.5691C242.418 88.3689 242.685 88.1687 242.752 87.9017Z" fill="#EFF0F3"/>
<path d="M318.842 144.236C318.709 144.236 318.642 144.236 318.509 144.236C318.575 144.503 318.642 144.77 318.709 145.037C318.709 145.037 318.909 145.037 318.976 145.037C318.909 144.77 318.842 144.503 318.842 144.236Z" fill="#EFF0F3"/>
<path d="M301.424 133.89C301.224 134.09 301.09 134.29 300.89 134.49C301.157 134.424 301.424 134.29 301.691 134.223C301.624 134.09 301.557 133.956 301.424 133.89Z" fill="#EFF0F3"/>
<path d="M263.243 100.451C263.577 100.451 263.91 100.451 264.244 100.518C263.91 100.384 263.643 100.318 263.31 100.184C263.31 100.251 263.31 100.384 263.243 100.451Z" fill="#EFF0F3"/>
<path d="M296.418 120.875V120.942H296.551L296.418 120.875Z" fill="#EFF0F3"/>
<path d="M324.049 144.636C323.982 144.502 323.849 144.436 323.716 144.302C323.849 144.369 323.982 144.502 324.049 144.636Z" fill="#EFF0F3"/>
<path d="M244.287 87.9692C244.354 88.036 244.354 88.036 244.42 88.036V87.9692C244.354 87.9692 244.287 87.9692 244.287 87.9692Z" fill="#EFF0F3"/>
<path d="M290.878 113.732L290.945 113.799V113.732H290.878Z" fill="#EFF0F3"/>
<path d="M238.012 87.6362C237.945 87.703 237.945 87.703 237.945 87.7697H238.012C238.012 87.703 238.012 87.703 238.012 87.6362Z" fill="#EFF0F3"/>
<path d="M266.449 99.3823C266.515 99.4491 266.515 99.4491 266.582 99.5158C266.582 99.4491 266.582 99.4491 266.515 99.4491C266.515 99.3823 266.449 99.3823 266.449 99.3823Z" fill="#EFF0F3"/>
<path d="M241.953 114.4C242.019 114.333 242.019 114.333 242.086 114.267C242.086 114.267 242.019 114.267 242.019 114.333C241.953 114.333 241.953 114.333 241.953 114.4Z" fill="#EFF0F3"/>
<path d="M242.085 114.267C242.218 114.134 242.285 114.067 242.419 113.934C242.285 114.067 242.218 114.134 242.085 114.267Z" fill="#EFF0F3"/>
<path d="M128.617 116.671C128.683 116.604 128.683 116.604 128.75 116.537C128.683 116.537 128.683 116.537 128.683 116.537C128.683 116.604 128.683 116.604 128.617 116.671Z" fill="#EFF0F3"/>
<path d="M236.746 105.591C236.812 105.658 236.812 105.658 236.879 105.724C236.879 105.724 236.879 105.658 236.812 105.658C236.812 105.591 236.746 105.591 236.746 105.591Z" fill="#EFF0F3"/>
<path d="M428.305 218.591C428.172 216.522 428.038 214.787 427.971 213.051C427.971 212.384 427.704 212.184 427.104 212.25C426.169 212.317 425.235 212.384 424.367 212.451C419.228 212.651 414.088 212.851 408.882 213.051C407.948 213.118 407.948 212.584 407.948 211.983C407.814 208.513 407.614 205.042 407.414 201.571C407.347 200.036 407.347 200.036 408.815 199.969C414.022 199.769 419.228 199.569 424.434 199.369C427.371 199.235 427.371 199.235 427.304 196.432C427.304 196.298 427.304 196.232 427.304 196.098C427.237 194.229 427.17 192.36 427.17 190.425C427.104 188.689 427.104 188.623 425.302 188.689C423.633 188.756 421.964 188.89 420.229 188.956C411.752 189.29 403.276 189.624 394.866 189.957C389.593 190.158 384.32 190.425 379.047 190.558C378.046 190.558 377.846 190.959 377.912 191.826C378.046 194.563 378.179 197.366 378.246 200.103C378.246 200.77 378.446 201.104 379.18 201.104C381.316 201.037 383.385 200.97 385.521 200.904C389.326 200.77 393.13 200.57 396.935 200.437C397.602 200.437 397.869 200.57 397.936 201.304C398.069 204.975 398.203 208.713 398.336 212.384C398.403 213.252 398.003 213.452 397.202 213.519C395.133 213.585 393.064 213.719 390.994 213.786C387.39 213.919 383.719 214.053 380.115 214.186C379.247 214.186 378.847 214.386 378.913 215.387C379.114 218.191 379.18 221.061 379.247 223.864C379.247 224.732 379.581 224.932 380.449 224.865C383.919 224.665 387.39 224.465 390.861 224.331C399.338 223.998 407.814 223.664 416.291 223.33C419.962 223.197 423.7 223.063 427.371 222.93C428.238 222.93 428.639 222.729 428.505 221.662C428.172 220.594 428.305 219.392 428.305 218.591Z" fill="#EFF0F3"/>
</g>
<defs>
<clipPath id="clip0">
<rect width="428.372" height="429.707" fill="white" transform="translate(0.000366211)"/>
</clipPath>
</defs>
</svg>
